<svg width="31" height="24" viewBox="0 0 31 24" fill="none" xmlns="http://www.w3.org/2000/svg">
<path d="M14.4849 23.7499H0.848209C0.607883 23.7499 0.406434 23.6684 0.24386 23.5056C0.0812867 23.3427 0 23.141 0 22.9004C0 22.6598 0.0812867 22.4585 0.24386 22.2964C0.406434 22.1344 0.607883 22.0534 0.848209 22.0534H14.4849C14.7252 22.0534 14.9266 22.1349 15.0892 22.2977C15.2518 22.4606 15.3331 22.6623 15.3331 22.9029C15.3331 23.1435 15.2518 23.3448 15.0892 23.5068C14.9266 23.6689 14.7252 23.7499 14.4849 23.7499ZM4.43698 19.7047C3.65606 19.7047 3.00407 19.4432 2.48101 18.9202C1.95795 18.3971 1.69642 17.7451 1.69642 16.9642V2.74056C1.69642 1.95965 1.95795 1.30766 2.48101 0.784593C3.00407 0.261531 3.65606 0 4.43698 0H27.7301C27.9704 0 28.1719 0.0814285 28.3344 0.244285C28.497 0.407141 28.5783 0.608874 28.5783 0.849483C28.5783 1.09009 28.497 1.2914 28.3344 1.45341C28.1719 1.61541 27.9704 1.69642 27.7301 1.69642H4.43698C4.17573 1.69642 3.9364 1.80513 3.71897 2.02255C3.50155 2.23998 3.39284 2.47931 3.39284 2.74056V16.9642C3.39284 17.2251 3.50155 17.4643 3.71897 17.6818C3.9364 17.8995 4.17573 18.0083 4.43698 18.0083H14.4849C14.7252 18.0083 14.9266 18.0896 15.0892 18.2522C15.2518 18.415 15.3331 18.6168 15.3331 18.8574C15.3331 19.098 15.2518 19.2993 15.0892 19.4613C14.9266 19.6236 14.7252 19.7047 14.4849 19.7047H4.43698ZM29.1652 21.4987V8.64537C29.1652 8.49298 29.111 8.36249 29.0024 8.25392C28.8935 8.14507 28.7631 8.09064 28.6109 8.09064H22.2816C22.1295 8.09064 21.999 8.14507 21.8902 8.25392C21.7816 8.36249 21.7273 8.49298 21.7273 8.64537V21.4987C21.7273 21.6511 21.7816 21.7816 21.8902 21.8902C21.999 21.999 22.1295 22.0534 22.2816 22.0534H28.6109C28.7631 22.0534 28.8935 21.999 29.0024 21.8902C29.111 21.7816 29.1652 21.6511 29.1652 21.4987ZM22.0861 23.7499C21.5152 23.7499 21.0299 23.5501 20.6301 23.1506C20.2306 22.7508 20.0309 22.2655 20.0309 21.6946V8.44943C20.0309 7.87859 20.2306 7.39327 20.6301 6.99349C21.0299 6.59398 21.5152 6.39423 22.0861 6.39423H28.8065C29.3773 6.39423 29.8626 6.59398 30.2624 6.99349C30.6619 7.39327 30.8617 7.87859 30.8617 8.44943V21.6946C30.8617 22.2655 30.6619 22.7508 30.2624 23.1506C29.8626 23.5501 29.3773 23.7499 28.8065 23.7499H22.0861ZM25.4403 12.7231C25.7683 12.7231 26.0416 12.6096 26.2601 12.3826C26.4787 12.1553 26.588 11.8902 26.588 11.5874C26.588 11.2594 26.4788 10.986 26.2606 10.7672C26.0423 10.5486 25.7662 10.4393 25.4323 10.4393C25.1241 10.4393 24.859 10.5486 24.6371 10.7672C24.4154 10.9854 24.3046 11.2615 24.3046 11.5954C24.3046 11.9036 24.4181 12.1685 24.6451 12.3902C24.8722 12.6122 25.1372 12.7231 25.4403 12.7231Z" fill="#002954"/>
</svg>
