<svg width="135" height="135" viewBox="0 0 135 135" fill="none" xmlns="http://www.w3.org/2000/svg">
<mask id="mask0_1464_18021" style="mask-type:alpha" maskUnits="userSpaceOnUse" x="0" y="0" width="135" height="135">
<rect width="135" height="135" fill="#D9D9D9"/>
</mask>
<g mask="url(#mask0_1464_18021)">
<path d="M67.5 85.7701C66.8944 85.7701 66.3356 85.6712 65.8237 85.4734C65.3119 85.2747 64.8103 84.9301 64.3191 84.4398L49.5872 69.7065C49.0387 69.159 48.7519 68.5136 48.7266 67.7701C48.7013 67.0276 48.9881 66.3461 49.5872 65.7254C50.2069 65.1057 50.8753 64.7903 51.5925 64.779C52.3106 64.7687 52.9795 65.0734 53.5992 65.6931L64.6875 76.7814V30.9376C64.6875 30.137 64.9561 29.4681 65.4933 28.9309C66.0305 28.3937 66.6994 28.1251 67.5 28.1251C68.3006 28.1251 68.9695 28.3937 69.5067 28.9309C70.0439 29.4681 70.3125 30.137 70.3125 30.9376V76.7814L81.4008 65.6931C81.9483 65.1456 82.5989 64.8592 83.3527 64.8339C84.1064 64.8086 84.7931 65.1057 85.4128 65.7254C86.0119 66.3461 86.3166 67.0098 86.3269 67.7167C86.3381 68.4236 86.0334 69.0868 85.4128 69.7065L70.6809 84.4398C70.1897 84.9301 69.6881 85.2747 69.1763 85.4734C68.6644 85.6712 68.1056 85.7701 67.5 85.7701ZM37.2122 106.875C34.6228 106.875 32.4609 106.008 30.7266 104.274C28.9922 102.539 28.125 100.377 28.125 97.7879V86.9711C28.125 86.1704 28.3936 85.5015 28.9308 84.9643C29.468 84.4272 30.1369 84.1586 30.9375 84.1586C31.7381 84.1586 32.407 84.4272 32.9442 84.9643C33.4814 85.5015 33.75 86.1704 33.75 86.9711V97.7879C33.75 98.6542 34.1105 99.4478 34.8314 100.169C35.5523 100.89 36.3459 101.25 37.2122 101.25H97.7878C98.6541 101.25 99.4477 100.89 100.169 100.169C100.89 99.4478 101.25 98.6542 101.25 97.7879V86.9711C101.25 86.1704 101.519 85.5015 102.056 84.9643C102.593 84.4272 103.262 84.1586 104.062 84.1586C104.863 84.1586 105.532 84.4272 106.069 84.9643C106.606 85.5015 106.875 86.1704 106.875 86.9711V97.7879C106.875 100.377 106.008 102.539 104.273 104.274C102.539 106.008 100.377 106.875 97.7878 106.875H37.2122Z" fill="url(#paint0_linear_1464_18021)"/>
</g>
<defs>
<linearGradient id="paint0_linear_1464_18021" x1="67.5" y1="28.1251" x2="67.5" y2="145.461" gradientUnits="userSpaceOnUse">
<stop stop-color="#002954"/>
<stop offset="1" stop-color="#4285CD"/>
</linearGradient>
</defs>
</svg>
