<svg width="204" height="69" viewBox="0 0 204 69" fill="none" xmlns="http://www.w3.org/2000/svg">
<g clip-path="url(#clip0_960_8703)">
<path d="M86.6654 35.3265C86.6654 44.888 79.1855 51.9337 70.0058 51.9337C60.8261 51.9337 53.3461 44.888 53.3461 35.3265C53.3461 25.6976 60.8261 18.7192 70.0058 18.7192C79.1855 18.7192 86.6654 25.6976 86.6654 35.3265ZM79.3726 35.3265C79.3726 29.3515 75.0374 25.2633 70.0058 25.2633C64.9742 25.2633 60.639 29.3515 60.639 35.3265C60.639 41.2416 64.9742 45.3896 70.0058 45.3896C75.0374 45.3896 79.3726 41.2341 79.3726 35.3265Z" fill="#002954"/>
<path d="M122.606 35.3265C122.606 44.888 115.126 51.9337 105.946 51.9337C96.7664 51.9337 89.2864 44.888 89.2864 35.3265C89.2864 25.7051 96.7664 18.7192 105.946 18.7192C115.126 18.7192 122.606 25.6976 122.606 35.3265ZM115.313 35.3265C115.313 29.3515 110.978 25.2633 105.946 25.2633C100.915 25.2633 96.5793 29.3515 96.5793 35.3265C96.5793 41.2416 100.915 45.3896 105.946 45.3896C110.978 45.3896 115.313 41.2341 115.313 35.3265Z" fill="#002954"/>
<path d="M157.049 19.7226V49.5377C157.049 61.8022 149.816 66.8113 141.265 66.8113C133.216 66.8113 128.372 61.4278 126.545 57.0252L132.894 54.3821C134.025 57.0851 136.795 60.2748 141.258 60.2748C146.731 60.2748 150.123 56.8979 150.123 50.541V48.1525H149.869C148.236 50.1667 145.092 51.9262 141.123 51.9262C132.82 51.9262 125.212 44.6933 125.212 35.3864C125.212 26.012 132.82 18.7192 141.123 18.7192C145.084 18.7192 148.229 20.4788 149.869 22.433H150.123V19.73H157.049V19.7226ZM150.64 35.3864C150.64 29.5387 146.739 25.2633 141.775 25.2633C136.743 25.2633 132.528 29.5387 132.528 35.3864C132.528 41.1742 136.743 45.3897 141.775 45.3897C146.739 45.3897 150.64 41.1742 150.64 35.3864Z" fill="#002954"/>
<path d="M168.468 2.24731V50.916H161.355V2.24731H168.468Z" fill="#002954"/>
<path d="M196.184 40.7926L201.845 44.5663C200.018 47.2693 195.615 51.9265 188.008 51.9265C178.573 51.9265 171.528 44.6337 171.528 35.3193C171.528 25.4433 178.633 18.712 187.192 18.712C195.81 18.712 200.025 25.5706 201.403 29.2769L202.159 31.1637L179.959 40.3583C181.658 43.6903 184.301 45.3899 188.008 45.3899C191.721 45.3899 194.297 43.563 196.184 40.7926ZM178.761 34.8176L193.601 28.6554C192.785 26.5814 190.329 25.1363 187.439 25.1363C183.732 25.1363 178.573 28.4083 178.761 34.8176Z" fill="#002954"/>
<path d="M26.4233 31.0059V23.9602H50.1662C50.3983 25.1882 50.5181 26.6407 50.5181 28.2131C50.5181 33.4993 49.073 40.0358 44.4158 44.693C39.8858 49.4102 34.098 51.9259 26.4308 51.9259C12.2196 51.9259 0.269539 40.3503 0.269539 26.1391C0.269539 11.9278 12.2196 0.352173 26.4308 0.352173C34.2927 0.352173 39.8933 3.43702 44.1013 7.45779L39.1296 12.4295C36.1121 9.59921 32.024 7.39789 26.4233 7.39789C16.0457 7.39789 7.92924 15.7614 7.92924 26.1391C7.92924 36.5167 16.0457 44.8802 26.4233 44.8802C33.1546 44.8802 36.9882 42.1772 39.4441 39.7214C41.4357 37.7297 42.7461 34.8844 43.2627 30.9984L26.4233 31.0059Z" fill="#002954"/>
</g>
<defs>
<clipPath id="clip0_960_8703">
<rect width="203.66" height="68.8849" fill="white"/>
</clipPath>
</defs>
</svg>
