<svg width="201" height="41" viewBox="0 0 201 41" fill="none" xmlns="http://www.w3.org/2000/svg">
<g clip-path="url(#clip0_960_8710)">
<path d="M6.57848 26.673C6.57848 28.9982 7.08883 30.7833 7.75588 31.8633C8.63045 33.2779 9.93491 33.8771 11.2648 33.8771C12.98 33.8771 14.5492 33.4515 17.5732 29.2692C19.9957 25.917 22.8503 21.2117 24.7709 18.2618L28.0236 13.2643C30.2831 9.79349 32.8984 5.93519 35.8969 3.31994C38.3449 1.18538 40.9855 -0.000488281 43.6432 -0.000488281C48.105 -0.000488281 52.355 2.58512 55.6077 7.43446C59.1674 12.7454 60.8954 19.435 60.8954 26.3384C60.8954 30.4424 60.0865 33.4579 58.71 35.8402C57.3801 38.1441 54.7882 40.446 50.428 40.446V33.8771C54.1614 33.8771 55.0931 30.4466 55.0931 26.5205C55.0931 20.9258 53.7887 14.7169 50.9151 10.2805C48.8758 7.13376 46.233 5.21097 43.3255 5.21097C40.1808 5.21097 37.6503 7.5827 34.8063 11.8116C33.2944 14.0584 31.7421 16.7964 29.9993 19.8861L28.0808 23.2848C24.2267 30.1184 23.2505 31.6748 21.3235 34.2435C17.9459 38.7413 15.0617 40.446 11.2648 40.446C6.7606 40.446 3.9124 38.4957 2.14842 35.5564C0.708444 33.1614 0.00115967 30.0189 0.00115967 26.438L6.57848 26.673Z" fill="#002954"/>
<path d="M5.18512 7.89822C8.20061 3.25005 12.5523 -0.000488281 17.5435 -0.000488281C20.4341 -0.000488281 23.3077 0.855029 26.3084 3.30511C29.5907 5.9839 33.089 10.3949 37.4534 17.6647L39.0183 20.2736C42.7962 26.5671 44.9455 29.805 46.2034 31.3318C47.8213 33.2927 48.9542 33.8771 50.4259 33.8771C54.1593 33.8771 55.0911 30.4466 55.0911 26.5205L60.8933 26.3384C60.8933 30.4424 60.0844 33.4579 58.708 35.8402C57.3781 38.1441 54.7861 40.446 50.4259 40.446C47.7154 40.446 45.314 39.8573 42.6585 37.3522C40.6171 35.4294 38.2306 32.0136 36.3946 28.9431L30.9333 19.8204C28.1931 15.2421 25.6794 11.8285 24.2246 10.2827C22.6597 8.62033 20.648 6.61283 17.4377 6.61283C14.8393 6.61283 12.6328 8.4361 10.7862 11.225L5.18512 7.89822Z" fill="#002954"/>
<path d="M17.4397 6.61283C14.8414 6.61283 12.6349 8.4361 10.7883 11.225C8.17728 15.1659 6.57848 21.0359 6.57848 26.673C6.57848 28.9982 7.08882 30.7833 7.75587 31.8633L2.14842 35.5564C0.708444 33.1614 0.00115967 30.0189 0.00115967 26.438C0.00115967 19.9263 1.78843 13.1393 5.1872 7.89822C8.20269 3.25005 12.5544 -0.000488281 17.5456 -0.000488281L17.4397 6.61283Z" fill="#002954"/>
<path d="M73.6833 1.27832H81.2919L94.2284 24.6822L107.167 1.27832H114.611V39.7342H108.404V10.2612L97.0576 30.6708H91.2341L79.8901 10.2612V39.7342H73.6833V1.27832ZM134.059 15.6167C129.607 15.6167 126.927 18.9668 126.285 23.1152H141.392C141.081 18.8418 138.616 15.6167 134.059 15.6167ZM120.131 25.4784C120.131 16.7496 125.772 10.3968 134.167 10.3968C142.423 10.3968 147.353 16.6692 147.353 25.9443V27.649H126.285C127.032 32.1616 130.027 35.2025 134.855 35.2025C138.707 35.2025 141.115 34.0273 143.397 31.8779L146.695 35.9162C143.588 38.7728 139.637 40.4203 134.635 40.4203C125.548 40.4203 120.131 33.7943 120.131 25.4784ZM154.879 16.1673H149.166V11.085H154.879V2.68018H160.868V11.085H169.548V16.1673H160.868V29.0487C160.868 33.447 162.274 35.0098 165.73 35.0098C167.307 35.0098 168.212 34.8743 169.548 34.652V39.6792C167.883 40.1493 166.295 40.3653 164.576 40.3653C158.111 40.3653 154.879 36.8331 154.879 29.7624V16.1673ZM194.764 21.1098C193.562 18.0731 190.879 15.8369 186.936 15.8369C181.811 15.8369 178.531 19.4729 178.531 25.3959C178.531 31.1706 181.551 34.9823 186.69 34.9823C190.73 34.9823 193.615 32.6318 194.764 29.7073V21.1098ZM200.753 39.7342H194.875V35.7235C193.231 38.0846 190.241 40.4203 185.398 40.4203C177.61 40.4203 172.405 33.9002 172.405 25.3959C172.405 16.811 177.735 10.3968 185.729 10.3968C189.68 10.3968 192.78 11.9765 194.875 14.7654V11.085H200.753V39.7342Z" fill="#002954"/>
</g>
<defs>
<clipPath id="clip0_960_8710">
<rect width="200.75" height="40.4465" fill="white"/>
</clipPath>
</defs>
</svg>
