<svg width="208" height="45" viewBox="0 0 208 45" fill="none" xmlns="http://www.w3.org/2000/svg">
<g clip-path="url(#clip0_960_8715)">
<path d="M86.2105 8.84258V35.3686H81.6052V14.553H81.5438L73.3158 35.3686H70.2457L61.8335 14.553H61.7721V35.3686H57.5353V8.84258H64.1668L71.7808 28.4915H71.9036L79.9474 8.84258H86.2105ZM90.0174 10.8689C90.0174 10.132 90.2631 9.51801 90.8157 9.02679C91.3683 8.53556 91.9823 8.28995 92.7192 8.28995C93.5174 8.28995 94.1928 8.53556 94.6841 9.02679C95.1753 9.51801 95.4823 10.132 95.4823 10.8689C95.4823 11.6057 95.2367 12.2197 94.6841 12.711C94.1314 13.2022 93.5174 13.4478 92.7192 13.4478C91.9209 13.4478 91.3069 13.2022 90.8157 12.711C90.3245 12.1583 90.0174 11.5443 90.0174 10.8689ZM94.9911 16.3337V35.3686H90.5087V16.3337H94.9911ZM108.561 32.1143C109.237 32.1143 109.973 31.9915 110.772 31.6231C111.57 31.316 112.307 30.8862 112.982 30.395V34.5704C112.245 35.0002 111.447 35.3072 110.526 35.4914C109.605 35.6756 108.623 35.7985 107.517 35.7985C104.693 35.7985 102.421 34.9388 100.702 33.1581C98.9209 31.3774 98.0612 29.1055 98.0612 26.4038C98.0612 23.3337 98.9823 20.8161 100.763 18.8513C102.544 16.8864 105.061 15.9039 108.377 15.9039C109.237 15.9039 110.096 16.0267 110.894 16.2109C111.754 16.3951 112.43 16.7022 112.921 16.9478V21.246C112.245 20.7547 111.508 20.3249 110.833 20.0793C110.096 19.8337 109.359 19.6495 108.623 19.6495C106.842 19.6495 105.43 20.2021 104.324 21.3688C103.219 22.5354 102.728 24.0705 102.728 26.0354C102.728 27.9389 103.28 29.474 104.324 30.5178C105.368 31.5617 106.78 32.1143 108.561 32.1143ZM125.693 16.0267C126.061 16.0267 126.368 16.0267 126.675 16.0881C126.982 16.1495 127.228 16.2109 127.412 16.2723V20.8161C127.166 20.6319 126.859 20.4477 126.368 20.3249C125.877 20.2021 125.386 20.0793 124.71 20.0793C123.605 20.0793 122.684 20.5705 121.947 21.4916C121.21 22.4126 120.78 23.8249 120.78 25.7898V35.3686H116.298V16.3337H120.78V19.3425H120.842C121.272 18.2986 121.886 17.5004 122.684 16.8864C123.543 16.3337 124.526 16.0267 125.693 16.0267ZM127.657 26.1582C127.657 23.0266 128.578 20.5091 130.298 18.667C132.078 16.825 134.535 15.9039 137.666 15.9039C140.613 15.9039 142.947 16.7636 144.605 18.5442C146.263 20.3249 147.122 22.7196 147.122 25.7284C147.122 28.7985 146.201 31.2546 144.482 33.0967C142.701 34.9388 140.306 35.8599 137.236 35.8599C134.289 35.8599 131.956 35.0002 130.236 33.2809C128.517 31.5002 127.657 29.1055 127.657 26.1582ZM132.324 25.974C132.324 27.9389 132.754 29.474 133.675 30.5178C134.596 31.5617 135.885 32.1143 137.543 32.1143C139.14 32.1143 140.429 31.6231 141.289 30.5178C142.149 29.474 142.578 27.9389 142.578 25.8512C142.578 23.8249 142.149 22.2898 141.289 21.1846C140.429 20.1407 139.14 19.5881 137.605 19.5881C135.947 19.5881 134.719 20.1407 133.798 21.246C132.754 22.4126 132.324 23.9477 132.324 25.974ZM153.815 21.3688C153.815 21.9828 153.999 22.5354 154.429 22.9038C154.859 23.2723 155.719 23.7021 157.131 24.2547C158.912 24.9915 160.201 25.7898 160.876 26.6494C161.613 27.5705 161.982 28.6143 161.982 29.9038C161.982 31.6845 161.306 33.0967 159.894 34.202C158.543 35.3072 156.64 35.7985 154.306 35.7985C153.508 35.7985 152.648 35.6756 151.666 35.4914C150.684 35.3072 149.885 35.0616 149.21 34.7546V30.3336C150.008 30.8862 150.929 31.3774 151.85 31.6845C152.771 31.9915 153.631 32.1757 154.429 32.1757C155.412 32.1757 156.21 32.0529 156.64 31.7459C157.131 31.4388 157.376 31.009 157.376 30.3336C157.376 29.7196 157.131 29.2283 156.64 28.7371C156.148 28.3073 155.166 27.8161 153.815 27.2635C152.157 26.588 150.991 25.7898 150.315 24.9301C149.64 24.0705 149.271 22.9652 149.271 21.6144C149.271 19.8951 149.947 18.4828 151.298 17.3776C152.648 16.2723 154.429 15.7197 156.578 15.7197C157.254 15.7197 157.991 15.7811 158.789 15.9653C159.587 16.1495 160.324 16.3337 160.876 16.5179V20.8775C160.262 20.5091 159.587 20.1407 158.789 19.8337C157.991 19.5267 157.192 19.4039 156.455 19.4039C155.596 19.4039 154.92 19.5881 154.491 19.8951C154.061 20.3249 153.815 20.7547 153.815 21.3688ZM163.885 26.1582C163.885 23.0266 164.806 20.5091 166.526 18.667C168.306 16.825 170.762 15.9039 173.894 15.9039C176.841 15.9039 179.175 16.7636 180.832 18.5442C182.49 20.3249 183.35 22.7196 183.35 25.7284C183.35 28.7985 182.429 31.2546 180.71 33.0967C178.929 34.9388 176.534 35.8599 173.464 35.8599C170.517 35.8599 168.183 35.0002 166.464 33.2809C164.806 31.5002 163.885 29.1055 163.885 26.1582ZM168.552 25.974C168.552 27.9389 168.982 29.474 169.903 30.5178C170.824 31.5617 172.113 32.1143 173.771 32.1143C175.368 32.1143 176.657 31.6231 177.517 30.5178C178.376 29.474 178.806 27.9389 178.806 25.8512C178.806 23.8249 178.376 22.2898 177.517 21.1846C176.657 20.1407 175.368 19.5881 173.832 19.5881C172.175 19.5881 170.947 20.1407 170.025 21.246C169.043 22.4126 168.552 23.9477 168.552 25.974ZM198.271 20.0179H191.578V35.3686H187.034V20.0179H183.841V16.3337H187.034V13.6934C187.034 11.7285 187.71 10.0706 188.999 8.78118C190.288 7.49171 191.946 6.87769 193.973 6.87769C194.525 6.87769 195.016 6.93909 195.446 6.93909C195.876 6.93909 196.245 7.06189 196.552 7.1847V11.0531C196.429 10.9917 196.122 10.8689 195.753 10.7461C195.385 10.6233 194.955 10.5619 194.464 10.5619C193.543 10.5619 192.806 10.8689 192.315 11.4215C191.824 11.9741 191.578 12.8952 191.578 14.0004V16.2723H198.271V11.9741L202.753 10.6233V16.2723H207.297V19.9565H202.753V28.8599C202.753 30.0266 202.999 30.8248 203.367 31.316C203.797 31.8073 204.473 32.0529 205.394 32.0529C205.639 32.0529 205.946 31.9915 206.315 31.8687C206.683 31.7459 206.99 31.6231 207.236 31.4388V35.123C206.929 35.3072 206.499 35.43 205.823 35.5528C205.148 35.6756 204.534 35.7371 203.859 35.7371C201.955 35.7371 200.543 35.2458 199.622 34.2634C198.701 33.2809 198.209 31.7459 198.209 29.7196L198.271 20.0179Z" fill="#002954"/>
<path d="M21.0017 0H0.00183105V20.9998H21.0017V0Z" fill="#002954"/>
<path d="M44.2119 0H23.212V20.9998H44.2119V0Z" fill="#002954"/>
<path d="M21.0017 23.2102H0.00183105V44.21H21.0017V23.2102Z" fill="#002954"/>
<path d="M44.2119 23.2102H23.212V44.21H44.2119V23.2102Z" fill="#002954"/>
</g>
<defs>
<clipPath id="clip0_960_8715">
<rect width="207.296" height="44.2101" fill="white"/>
</clipPath>
</defs>
</svg>
