<svg width="106" height="90" viewBox="0 0 106 90" fill="none" xmlns="http://www.w3.org/2000/svg">
<path d="M92.0123 66.1598C92.5608 65.6114 93.2119 65.3372 93.9656 65.3372C94.7184 65.3372 95.369 65.6114 95.9175 66.1598L104.885 75.1598C105.434 75.7336 105.708 76.4034 105.708 77.1694C105.708 77.9353 105.434 78.592 104.885 79.1395C104.337 79.688 103.68 79.9622 102.915 79.9622C102.149 79.9622 101.479 79.688 100.904 79.1395L91.904 70.1719C91.3565 69.6244 91.1006 68.9559 91.1362 68.1665C91.1728 67.3762 91.4648 66.7073 92.0123 66.1598ZM95.9062 0.845157C96.4547 1.40859 96.7289 2.0775 96.7289 2.85187C96.7289 3.62624 96.4547 4.28766 95.9062 4.8361L86.9386 13.8037C86.3911 14.3512 85.7404 14.625 84.9867 14.625C84.2329 14.625 83.5823 14.3437 83.0348 13.7812C82.4864 13.2178 82.2122 12.5489 82.2122 11.7745C82.2122 11.0002 82.4864 10.3387 83.0348 9.79031L91.9265 0.822653C92.5003 0.274215 93.1701 0 93.9361 0C94.702 0 95.3587 0.28172 95.9062 0.845157ZM9.82406 0.930937C10.3875 0.382499 11.0564 0.108284 11.8308 0.108284C12.6052 0.108284 13.2661 0.382499 13.8136 0.930937L22.7812 9.82265C23.3297 10.3973 23.6039 11.0672 23.6039 11.8322C23.6039 12.5981 23.3222 13.2553 22.7587 13.8037C22.1953 14.3512 21.5264 14.625 20.752 14.625C19.9777 14.625 19.3167 14.3512 18.7692 13.8037L9.80156 4.8361C9.25312 4.28766 8.9789 3.63656 8.9789 2.88281C8.9789 2.13 9.26062 1.47937 9.82406 0.930937ZM13.6955 66.2681C14.243 66.8156 14.5167 67.4662 14.5167 68.22C14.5167 68.9737 14.243 69.6244 13.6955 70.1719L4.72781 79.1395C4.17937 79.688 3.52828 79.9622 2.77453 79.9622C2.02172 79.9622 1.37109 79.6805 0.822656 79.117C0.274218 78.5536 0 77.8847 0 77.1103C0 76.3359 0.274218 75.675 0.822656 75.1275L9.71437 66.1598C10.2628 65.6114 10.9261 65.355 11.7042 65.3906C12.4833 65.4272 13.147 65.7197 13.6955 66.2681ZM30.1598 80.4276L52.8539 66.8194L75.6562 80.6766L69.7176 54.9098L89.654 37.7311L63.3895 35.363L52.8539 11.0447L42.4266 35.2223L16.162 37.4822L36.0984 54.9098L30.1598 80.4276ZM52.8539 73.5469L27.4542 88.8005C26.8561 89.0958 26.3011 89.2144 25.7892 89.1562C25.2773 89.0991 24.7795 88.9228 24.2958 88.6275C23.813 88.3312 23.4455 87.9075 23.1933 87.3562C22.9402 86.8041 22.9186 86.2073 23.1286 85.5661L29.8561 57.0403L7.45312 37.6664C6.94875 37.2286 6.63328 36.7298 6.50672 36.1702C6.38109 35.6105 6.43359 35.0672 6.66422 34.5403C6.89484 34.0134 7.20234 33.5798 7.58672 33.2395C7.97203 32.8992 8.50078 32.6803 9.17297 32.5828L38.6184 30.0839L50.1384 2.99672C50.3906 2.37703 50.7567 1.92985 51.2367 1.65516C51.7167 1.38141 52.2558 1.24453 52.8539 1.24453C53.452 1.24453 53.9911 1.38141 54.4711 1.65516C54.9511 1.92985 55.3172 2.37703 55.5694 2.99672L67.1976 30.0839L96.6417 32.5828C97.3308 32.6794 97.8722 32.8969 98.2659 33.2353C98.6597 33.5737 98.955 34.0087 99.1518 34.5403C99.3825 35.0672 99.435 35.6105 99.3093 36.1702C99.1828 36.7298 98.8673 37.2286 98.3629 37.6664L75.96 57.0403L82.6875 85.6744C82.8965 86.3156 82.875 86.8941 82.6228 87.4097C82.3706 87.9253 82.0031 88.3312 81.5203 88.6275C81.0365 88.9228 80.5387 89.0991 80.0268 89.1562C79.515 89.2144 78.9595 89.0958 78.3605 88.8005L52.8539 73.5469Z" fill="url(#paint0_linear_1464_18017)"/>
<defs>
<linearGradient id="paint0_linear_1464_18017" x1="52.8539" y1="0" x2="52.8539" y2="132.863" gradientUnits="userSpaceOnUse">
<stop stop-color="#002954"/>
<stop offset="1" stop-color="#4285CD"/>
</linearGradient>
</defs>
</svg>
