<svg width="135" height="135" viewBox="0 0 135 135" fill="none" xmlns="http://www.w3.org/2000/svg">
<mask id="mask0_1464_18027" style="mask-type:alpha" maskUnits="userSpaceOnUse" x="0" y="0" width="135" height="135">
<rect width="135" height="135" fill="#D9D9D9"/>
</mask>
<g mask="url(#mask0_1464_18027)">
<path d="M91.298 42.6206H114.663C117.18 42.6206 119.324 43.5056 121.095 45.2756C122.865 47.0466 123.75 49.1901 123.75 51.7064V53.7511C123.75 54.3567 123.68 54.9623 123.539 55.568C123.398 56.1745 123.224 56.7445 123.015 57.278L109.363 89.2969C109.11 89.8237 108.773 90.2526 108.352 90.5836C107.93 90.9154 107.408 91.0814 106.788 91.0814C105.735 91.0814 104.94 90.6703 104.403 89.8481C103.866 89.0259 103.792 88.11 104.182 87.1003L118.125 54.4008V51.7064C118.125 50.6967 117.801 49.8675 117.152 49.2187C116.502 48.57 115.673 48.2456 114.663 48.2456H90.1294C88.7091 48.2456 87.5498 47.7333 86.6517 46.7086C85.7545 45.6848 85.3997 44.4736 85.5872 43.0748L88.0636 25.7231C86.2533 27.4612 84.4847 29.1937 82.7578 30.9206C81.0309 32.6484 79.2624 34.4175 77.452 36.2278C76.9036 36.7753 76.2403 37.0673 75.4622 37.1039C74.6831 37.1395 74.0194 36.8831 73.4709 36.3347C72.9234 35.7872 72.6675 35.1187 72.7031 34.3294C72.7388 33.539 73.0308 32.8701 73.5792 32.3226L86.8191 18.9731C87.4397 18.3534 88.1212 18.0436 88.8637 18.0436C89.6072 18.0436 90.2888 18.3534 90.9084 18.9731L91.1461 19.1039C92.1708 20.1276 92.8866 21.2976 93.2934 22.6139C93.7012 23.9301 93.8006 25.2984 93.5916 26.7187L91.298 42.6206ZM15.7936 112.5C14.4877 112.5 13.4039 112.069 12.5423 111.208C11.6808 110.346 11.25 109.262 11.25 107.956V68.5814C11.25 67.2764 11.6808 66.1931 12.5423 65.3315C13.4039 64.469 14.4877 64.0378 15.7936 64.0378H32.452V69.6628H16.875V106.875H32.452V112.5H15.7936ZM70.5403 112.5H26.827V67.9331L53.7188 40.9331C54.4828 40.1681 55.3805 39.7678 56.4117 39.7322C57.443 39.6956 58.305 40.0237 58.9978 40.7165L59.1272 40.8459C60.1509 41.8697 60.7945 43.0036 61.058 44.2476C61.3214 45.4917 61.3486 46.8244 61.1395 48.2456L58.8459 64.0378H82.6439C85.1611 64.0378 87.3047 64.9233 89.0747 66.6942C90.8456 68.4642 91.7311 70.6078 91.7311 73.125V75.3103C91.7311 75.9159 91.6608 76.4981 91.5202 77.0569C91.3795 77.6156 91.2047 78.1978 90.9956 78.8034L78.8906 107.048C78.1697 108.75 77.0517 110.084 75.5367 111.05C74.0227 112.017 72.3572 112.5 70.5403 112.5ZM72.8114 106.875L86.1061 75.9586V73.125C86.1061 72.1153 85.7812 71.2861 85.1316 70.6373C84.4828 69.9876 83.6536 69.6628 82.6439 69.6628H57.5691C56.1703 69.6628 55.0167 69.1509 54.1083 68.1272C53.1998 67.1034 52.8394 65.8922 53.0269 64.4934L55.5033 47.1417L32.452 70.3012V106.875H72.8114Z" fill="url(#paint0_linear_1464_18027)"/>
</g>
<defs>
<linearGradient id="paint0_linear_1464_18027" x1="67.5" y1="18.0436" x2="67.5" y2="158.782" gradientUnits="userSpaceOnUse">
<stop stop-color="#002954"/>
<stop offset="1" stop-color="#4285CD"/>
</linearGradient>
</defs>
</svg>
