<svg width="45" height="45" viewBox="0 0 45 45" fill="none" xmlns="http://www.w3.org/2000/svg">
<mask id="mask0_3779_57264" style="mask-type:alpha" maskUnits="userSpaceOnUse" x="0" y="0" width="45" height="45">
<rect width="45" height="45" fill="#D9D9D9"/>
</mask>
<g mask="url(#mask0_3779_57264)">
<path d="M30.2166 18.75C30.4831 18.75 30.7059 18.6605 30.885 18.4814C31.0644 18.3023 31.1541 18.0794 31.1541 17.8125C31.1541 17.5456 31.0644 17.3227 30.885 17.1436C30.7059 16.9645 30.4831 16.875 30.2166 16.875H23.4375C23.1706 16.875 22.9477 16.9645 22.7686 17.1436C22.5895 17.3227 22.5 17.5456 22.5 17.8125C22.5 18.0794 22.5895 18.3023 22.7686 18.4814C22.9477 18.6605 23.1706 18.75 23.4375 18.75H30.2166ZM30.2166 28.125C30.4831 28.125 30.7059 28.0355 30.885 27.8564C31.0644 27.6773 31.1541 27.4544 31.1541 27.1875C31.1541 26.9206 31.0644 26.6977 30.885 26.5186C30.7059 26.3395 30.4831 26.25 30.2166 26.25H23.4375C23.1706 26.25 22.9477 26.3395 22.7686 26.5186C22.5895 26.6977 22.5 26.9206 22.5 27.1875C22.5 27.4544 22.5895 27.6773 22.7686 27.8564C22.9477 28.0355 23.1706 28.125 23.4375 28.125H30.2166ZM18.5138 19.4513C18.9597 19.0053 19.1827 18.4591 19.1827 17.8125C19.1827 17.1659 18.9597 16.6197 18.5138 16.1737C18.0678 15.7278 17.5216 15.5048 16.875 15.5048C16.2284 15.5048 15.6822 15.7278 15.2363 16.1737C14.7903 16.6197 14.5673 17.1659 14.5673 17.8125C14.5673 18.4591 14.7903 19.0053 15.2363 19.4513C15.6822 19.8972 16.2284 20.1202 16.875 20.1202C17.5216 20.1202 18.0678 19.8972 18.5138 19.4513ZM18.5138 28.8263C18.9597 28.3803 19.1827 27.8341 19.1827 27.1875C19.1827 26.5409 18.9597 25.9947 18.5138 25.5487C18.0678 25.1028 17.5216 24.8798 16.875 24.8798C16.2284 24.8798 15.6822 25.1028 15.2363 25.5487C14.7903 25.9947 14.5673 26.5409 14.5673 27.1875C14.5673 27.8341 14.7903 28.3803 15.2363 28.8263C15.6822 29.2722 16.2284 29.4952 16.875 29.4952C17.5216 29.4952 18.0678 29.2722 18.5138 28.8263ZM10.5291 37.5C9.66594 37.5 8.94531 37.2109 8.36719 36.6328C7.78906 36.0547 7.5 35.3341 7.5 34.4709V10.5291C7.5 9.66594 7.78906 8.94531 8.36719 8.36719C8.94531 7.78906 9.66594 7.5 10.5291 7.5H34.4709C35.3341 7.5 36.0547 7.78906 36.6328 8.36719C37.2109 8.94531 37.5 9.66594 37.5 10.5291V34.4709C37.5 35.3341 37.2109 36.0547 36.6328 36.6328C36.0547 37.2109 35.3341 37.5 34.4709 37.5H10.5291ZM10.5291 35.625H34.4709C34.7597 35.625 35.0242 35.5048 35.2645 35.2645C35.5048 35.0242 35.625 34.7597 35.625 34.4709V10.5291C35.625 10.2403 35.5048 9.97578 35.2645 9.73547C35.0242 9.49516 34.7597 9.375 34.4709 9.375H10.5291C10.2403 9.375 9.97578 9.49516 9.73547 9.73547C9.49516 9.97578 9.375 10.2403 9.375 10.5291V34.4709C9.375 34.7597 9.49516 35.0242 9.73547 35.2645C9.97578 35.5048 10.2403 35.625 10.5291 35.625Z" fill="#002954"/>
</g>
</svg>
