<svg width="45" height="45" viewBox="0 0 45 45" fill="none" xmlns="http://www.w3.org/2000/svg">
<mask id="mask0_3779_57246" style="mask-type:alpha" maskUnits="userSpaceOnUse" x="0" y="0" width="45" height="45">
<rect width="45" height="45" fill="#D9D9D9"/>
</mask>
<g mask="url(#mask0_3779_57246)">
<path d="M14.2791 41.25C13.44 41.25 12.7253 40.955 12.135 40.365C11.545 39.7747 11.25 39.06 11.25 38.2209V6.77906C11.25 5.91594 11.5391 5.19531 12.1172 4.61719C12.6953 4.03906 13.4159 3.75 14.2791 3.75H30.8653C31.7044 3.75 32.4189 4.045 33.0089 4.635C33.5992 5.22531 33.8944 5.94 33.8944 6.77906V12.8077C34.3606 12.8583 34.7656 13.0519 35.1094 13.3884C35.4531 13.7247 35.625 14.1297 35.625 14.6034V17.9208C35.625 18.3942 35.4531 18.7992 35.1094 19.1358C34.7656 19.4723 34.3606 19.6659 33.8944 19.7166V38.2209C33.8944 39.06 33.5992 39.7747 33.0089 40.365C32.4189 40.955 31.7044 41.25 30.8653 41.25H14.2791ZM14.2791 39.375H30.8653C31.2019 39.375 31.4783 39.2669 31.6945 39.0506C31.9111 38.8341 32.0194 38.5575 32.0194 38.2209V6.77906C32.0194 6.4425 31.9111 6.16594 31.6945 5.94937C31.4783 5.73312 31.2019 5.625 30.8653 5.625H14.2791C13.9425 5.625 13.6659 5.73312 13.4494 5.94937C13.2331 6.16594 13.125 6.4425 13.125 6.77906V38.2209C13.125 38.5575 13.2331 38.8341 13.4494 39.0506C13.6659 39.2669 13.9425 39.375 14.2791 39.375ZM22.5722 29.423C24.4903 29.423 26.1238 28.7488 27.4725 27.4003C28.8209 26.0516 29.4952 24.4181 29.4952 22.5C29.4952 20.5819 28.8209 18.9484 27.4725 17.5997C26.1238 16.2513 24.4903 15.577 22.5722 15.577C20.6538 15.577 19.0203 16.2513 17.6719 17.5997C16.3234 18.9484 15.6492 20.5819 15.6492 22.5C15.6492 24.4181 16.3234 26.0516 17.6719 27.4003C19.0203 28.7488 20.6538 29.423 22.5722 29.423ZM22.5722 27.7645C21.1153 27.7645 19.8737 27.2512 18.8475 26.2247C17.8209 25.1984 17.3077 23.9569 17.3077 22.5C17.3077 21.9328 17.3906 21.3973 17.5566 20.8936C17.7225 20.3902 17.9712 19.8944 18.3028 19.4063L25.6659 26.7694C25.1778 27.1009 24.682 27.3497 24.1786 27.5156C23.6748 27.6816 23.1394 27.7645 22.5722 27.7645ZM26.8416 25.5938L19.4784 18.2306C19.9663 17.8991 20.462 17.6503 20.9658 17.4844C21.4692 17.3184 22.0047 17.2355 22.5722 17.2355C24.0288 17.2355 25.2703 17.7487 26.2969 18.7753C27.3234 19.8016 27.8367 21.0431 27.8367 22.5C27.8367 23.0672 27.7658 23.5966 27.6239 24.0881C27.482 24.58 27.2213 25.0819 26.8416 25.5938Z" fill="#002954"/>
</g>
</svg>
