<svg width="45" height="45" viewBox="0 0 45 45" fill="none" xmlns="http://www.w3.org/2000/svg">
<mask id="mask0_3779_57240" style="mask-type:alpha" maskUnits="userSpaceOnUse" x="0" y="0" width="45" height="45">
<rect width="45" height="45" fill="#D9D9D9"/>
</mask>
<g mask="url(#mask0_3779_57240)">
<path d="M17.1994 40.6765C15.7619 40.6765 14.503 40.2413 13.4227 39.371C12.342 38.501 11.5973 37.3857 11.1886 36.0251C10.8089 36.6573 10.2844 37.141 9.615 37.4763C8.94531 37.8116 8.24031 37.9793 7.5 37.9793C6.19469 37.9793 5.08719 37.5226 4.1775 36.6091C3.2675 35.6957 2.8125 34.5899 2.8125 33.2918C2.8125 32.1402 3.21391 31.0916 4.01672 30.146C4.81953 29.2001 5.83281 28.721 7.05656 28.7088C6.42656 28.132 5.92828 27.4379 5.56172 26.6266C5.19516 25.8154 5.01187 24.971 5.01187 24.0935C5.01187 23.2738 5.18859 22.4841 5.54203 21.7245C5.89547 20.9648 6.40141 20.311 7.05984 19.7632C7.23797 19.5588 7.44906 19.4427 7.69312 19.4149C7.93687 19.3874 8.16094 19.4626 8.36531 19.6404C8.56969 19.8182 8.68156 20.0291 8.70094 20.2732C8.72 20.5173 8.64062 20.7415 8.46281 20.9459C7.95312 21.364 7.57094 21.8484 7.31625 22.399C7.06125 22.9493 6.93375 23.5298 6.93375 24.1404C6.93375 26.0226 7.61109 27.2521 8.96578 27.829C10.3205 28.4059 11.743 28.8398 13.2333 29.1307C13.363 29.1691 13.4711 29.2209 13.5577 29.2859C13.6442 29.3509 13.7259 29.4326 13.8028 29.531C13.8797 29.6295 13.9139 29.7359 13.9055 29.8502C13.897 29.9643 13.87 30.0863 13.8244 30.2163C13.4878 31.132 13.2319 31.9168 13.0566 32.5709C12.8809 33.2246 12.7931 33.8291 12.7931 34.3845C12.7931 35.5623 13.2192 36.587 14.0714 37.4585C14.9236 38.3298 15.9542 38.7654 17.1633 38.7654C18.3798 38.7654 19.3955 38.3465 20.2102 37.5087C21.0252 36.6709 21.7048 35.6457 22.2492 34.4332C22.7939 33.2204 23.2267 31.9373 23.5477 30.5838C23.8686 29.2304 24.1347 28.038 24.3459 27.0068C24.4159 26.6921 24.5614 26.4463 24.7823 26.2695C25.0036 26.0929 25.2441 26.0466 25.5037 26.1307C25.7944 26.2148 26.0005 26.3891 26.122 26.6538C26.2433 26.9182 26.2655 27.2077 26.1886 27.5224C25.9314 28.7918 25.6141 30.1909 25.2366 31.7196C24.8594 33.2487 24.3397 34.6766 23.6775 36.0035C23.015 37.3304 22.1675 38.4409 21.135 39.3349C20.1028 40.2293 18.7909 40.6765 17.1994 40.6765ZM27.7031 40.7126C27.4291 40.6885 27.1966 40.587 27.0056 40.4079C26.8144 40.2288 26.7308 40.0059 26.7548 39.739C26.7789 39.4721 26.8864 39.2432 27.0773 39.0523C27.2686 38.861 27.4977 38.7774 27.7645 38.8015C28.9808 38.8015 30.0209 38.3657 30.885 37.4941C31.7494 36.6229 32.1816 35.5827 32.1816 34.3737C32.1816 33.7943 32.0859 33.1782 31.8947 32.5254C31.7038 31.8729 31.4364 31.0695 31.0927 30.1151C31.0542 30.0166 31.035 29.9199 31.035 29.8249C31.035 29.7299 31.0734 29.6368 31.1503 29.5455C31.2272 29.454 31.3017 29.3837 31.3739 29.3346C31.4461 29.2852 31.535 29.2413 31.6406 29.2029C33.1622 28.912 34.6153 28.4679 36 27.8707C37.3847 27.2732 38.077 26.0262 38.077 24.1296C38.077 22.6152 37.5439 21.4926 36.4777 20.7616C35.4117 20.031 34.2116 19.6657 32.8772 19.6657C31.7356 19.6657 30.4159 19.8471 28.9181 20.2099C27.4206 20.573 25.7139 21.0635 23.798 21.6813C23.4833 21.7654 23.19 21.766 22.9181 21.6832C22.6466 21.6001 22.4688 21.4132 22.3847 21.1226C22.3006 20.8316 22.3488 20.566 22.5291 20.3257C22.7091 20.0851 22.9445 19.9227 23.2355 19.8387C25.132 19.2377 26.8472 18.7341 28.3809 18.3279C29.9147 17.9216 31.345 17.7185 32.6719 17.7185C34.5638 17.7185 36.25 18.2751 37.7306 19.3882C39.2116 20.501 39.952 22.0815 39.952 24.1296C39.952 25.0071 39.7747 25.8334 39.42 26.6084C39.0656 27.3837 38.5734 28.0838 37.9434 28.7088C39.1672 28.7451 40.1805 29.2241 40.9833 30.146C41.7861 31.0679 42.1875 32.1165 42.1875 33.2918C42.1875 34.5659 41.7325 35.6657 40.8225 36.5913C39.9128 37.5166 38.8053 37.9793 37.5 37.9793C36.7597 37.9793 36.0547 37.8116 35.385 37.4763C34.7156 37.141 34.1911 36.6573 33.8114 36.0251C33.4027 37.3785 32.6478 38.4963 31.5469 39.3785C30.4459 40.2607 29.1647 40.7054 27.7031 40.7126ZM17.9822 27.5224C15.6959 25.4552 13.8461 23.5851 12.4327 21.912C11.0192 20.2388 10.3125 18.4191 10.3125 16.4529C10.3125 14.686 10.9177 13.1974 12.128 11.9871C13.3383 10.7768 14.8269 10.1716 16.5938 10.1716C16.935 10.1716 17.2427 10.1915 17.5167 10.2312C17.7908 10.2709 18.0505 10.3268 18.2958 10.399C18.1467 10.1105 18.0289 9.81602 17.9423 9.51539C17.8558 9.21477 17.8125 8.89258 17.8125 8.54883C17.8125 7.25102 18.2692 6.14523 19.1827 5.23148C20.0961 4.31805 21.2019 3.86133 22.5 3.86133C23.7981 3.86133 24.9039 4.31805 25.8173 5.23148C26.7308 6.14523 27.1875 7.25102 27.1875 8.54883C27.1875 8.89258 27.1442 9.21289 27.0577 9.50977C26.9711 9.80664 26.8533 10.0995 26.7042 10.3882C26.928 10.316 27.1877 10.2618 27.4833 10.2255C27.7789 10.1896 28.0866 10.1716 28.4063 10.1716C29.4591 10.1716 30.4188 10.4168 31.2853 10.9071C32.1519 11.3974 32.8617 12.0452 33.4148 12.8505C33.5877 13.043 33.6633 13.263 33.6417 13.5105C33.6202 13.758 33.5133 13.9684 33.3211 14.1415C33.1286 14.3146 32.9086 14.3904 32.6611 14.3688C32.4136 14.3473 32.2033 14.2402 32.0302 14.0477C31.6455 13.4371 31.143 12.951 30.5227 12.5895C29.9027 12.2276 29.1972 12.0466 28.4063 12.0466C27.2859 12.0466 26.3852 12.3338 25.7039 12.9082C25.0223 13.4829 24.1527 14.3773 23.0948 15.5913C23.0108 15.6826 22.9111 15.751 22.7958 15.7966C22.6805 15.8423 22.5698 15.8651 22.4639 15.8651C22.3583 15.8651 22.2519 15.8423 22.1447 15.7966C22.0378 15.751 21.9423 15.6826 21.8583 15.5913C20.7933 14.322 19.9177 13.4138 19.2314 12.867C18.5452 12.3201 17.6659 12.0466 16.5938 12.0466C15.3294 12.0466 14.2789 12.4649 13.4423 13.3015C12.6058 14.138 12.1875 15.1885 12.1875 16.4529C12.1875 17.8376 12.8106 19.2949 14.0569 20.8249C15.3034 22.3549 17.0456 24.1452 19.2834 26.1959C19.5287 26.4024 19.6905 26.6529 19.7686 26.9473C19.8467 27.242 19.7825 27.4926 19.5759 27.6991C19.3619 27.9132 19.1041 27.9907 18.8025 27.9316C18.5006 27.8729 18.2272 27.7365 17.9822 27.5224ZM7.5 36.1043C8.27156 36.1043 8.93328 35.8285 9.48516 35.277C10.0367 34.7251 10.3125 34.0634 10.3125 33.2918C10.3125 32.5202 10.0367 31.8585 9.48516 31.3066C8.93328 30.7551 8.27156 30.4793 7.5 30.4793C6.72844 30.4793 6.06672 30.7551 5.51484 31.3066C4.96328 31.8585 4.6875 32.5202 4.6875 33.2918C4.6875 34.0634 4.96328 34.7251 5.51484 35.277C6.06672 35.8285 6.72844 36.1043 7.5 36.1043ZM24.4852 10.534C25.0367 9.98242 25.3125 9.3207 25.3125 8.54883C25.3125 7.77727 25.0367 7.1157 24.4852 6.56414C23.9333 6.01226 23.2716 5.73633 22.5 5.73633C21.7284 5.73633 21.0667 6.01226 20.5148 6.56414C19.9633 7.1157 19.6875 7.77727 19.6875 8.54883C19.6875 9.3207 19.9633 9.98242 20.5148 10.534C21.0667 11.0855 21.7284 11.3613 22.5 11.3613C23.2716 11.3613 23.9333 11.0855 24.4852 10.534ZM39.5086 35.277C40.0445 34.7251 40.3125 34.0634 40.3125 33.2918C40.3125 32.5202 40.0367 31.8507 39.4852 31.2832C38.9333 30.716 38.2716 30.4324 37.5 30.4324C36.7284 30.4324 36.0667 30.7082 35.5148 31.2598C34.9633 31.8116 34.6875 32.4734 34.6875 33.2449C34.6875 34.0165 34.9711 34.686 35.5383 35.2535C36.1058 35.8207 36.7753 36.1043 37.5469 36.1043C38.3184 36.1043 38.9723 35.8285 39.5086 35.277Z" fill="#002954"/>
</g>
</svg>
