<svg width="45" height="45" viewBox="0 0 45 45" fill="none" xmlns="http://www.w3.org/2000/svg">
<mask id="mask0_3779_57270" style="mask-type:alpha" maskUnits="userSpaceOnUse" x="0" y="0" width="45" height="45">
<rect width="45" height="45" fill="#D9D9D9"/>
</mask>
<g mask="url(#mask0_3779_57270)">
<path d="M21.3806 35.6034C21.0234 35.4713 20.7091 35.2694 20.4375 34.9978L18.285 33.0539C14.9484 30.0227 12.0042 27.075 9.45234 24.2109C6.90078 21.3469 5.625 18.3703 5.625 15.2812C5.625 12.8966 6.43516 10.8942 8.05547 9.27422C9.67547 7.65391 11.6778 6.84375 14.0625 6.84375C15.4303 6.84375 16.8545 7.18937 18.3352 7.88062C19.8161 8.57156 21.2044 9.875 22.5 11.7909C23.7956 9.875 25.1839 8.57156 26.6648 7.88062C28.1455 7.18937 29.5697 6.84375 30.9375 6.84375C33.3222 6.84375 35.3245 7.65391 36.9445 9.27422C38.5648 10.8942 39.375 12.8966 39.375 15.2812C39.375 18.4422 38.0469 21.4806 35.3906 24.3966C32.7344 27.3125 29.8269 30.2019 26.6681 33.0647L24.5264 34.9978C24.2548 35.2694 23.9345 35.4713 23.5655 35.6034C23.1964 35.7356 22.8292 35.8017 22.4639 35.8017C22.0986 35.8017 21.7375 35.7356 21.3806 35.6034ZM21.5841 13.7381C20.4616 11.9278 19.2945 10.6388 18.083 9.87094C16.8714 9.10281 15.5312 8.71875 14.0625 8.71875C12.1875 8.71875 10.625 9.34375 9.375 10.5938C8.125 11.8438 7.5 13.4062 7.5 15.2812C7.5 16.6659 7.89188 18.0859 8.67563 19.5413C9.45906 20.9969 10.5113 22.488 11.8322 24.0145C13.1531 25.5408 14.6712 27.102 16.3866 28.6983C18.1016 30.2945 19.887 31.9375 21.743 33.6272C21.9592 33.8197 22.2116 33.9159 22.5 33.9159C22.7884 33.9159 23.0408 33.8197 23.257 33.6272C25.113 31.9375 26.8984 30.2945 28.6134 28.6983C30.3288 27.102 31.8469 25.5408 33.1678 24.0145C34.4888 22.488 35.5409 20.9969 36.3244 19.5413C37.1081 18.0859 37.5 16.6659 37.5 15.2812C37.5 13.4062 36.875 11.8438 35.625 10.5938C34.375 9.34375 32.8125 8.71875 30.9375 8.71875C29.4688 8.71875 28.1286 9.10281 26.917 9.87094C25.7055 10.6388 24.5384 11.9278 23.4159 13.7381C23.3172 13.9063 23.1838 14.0323 23.0156 14.1164C22.8475 14.2008 22.6756 14.243 22.5 14.243C22.3244 14.243 22.1525 14.2008 21.9844 14.1164C21.8162 14.0323 21.6828 13.9063 21.5841 13.7381Z" fill="#002954"/>
</g>
</svg>
