<svg width="45" height="45" viewBox="0 0 45 45" fill="none" xmlns="http://www.w3.org/2000/svg">
<mask id="mask0_3779_57252" style="mask-type:alpha" maskUnits="userSpaceOnUse" x="0" y="0" width="45" height="45">
<rect width="45" height="45" fill="#D9D9D9"/>
</mask>
<g mask="url(#mask0_3779_57252)">
<path d="M15.9244 38.0466C13.8703 37.1609 12.0834 35.9591 10.5638 34.4409C9.04406 32.9228 7.84109 31.1375 6.95484 29.085C6.06828 27.0328 5.625 24.8398 5.625 22.5061C5.625 20.1727 6.06781 17.9787 6.95344 15.9244C7.83906 13.8703 9.04094 12.0834 10.5591 10.5637C12.0772 9.04406 13.8625 7.84109 15.915 6.95484C17.9672 6.06828 20.1602 5.625 22.4939 5.625C24.8273 5.625 27.0213 6.06781 29.0756 6.95344C31.1297 7.83906 32.9166 9.04094 34.4363 10.5591C35.9559 12.0772 37.1589 13.8625 38.0452 15.915C38.9317 17.9672 39.375 20.1602 39.375 22.4939C39.375 24.8273 38.9322 27.0212 38.0466 29.0756C37.1609 31.1297 35.9591 32.9166 34.4409 34.4363C32.9228 35.9559 31.1375 37.1589 29.085 38.0452C27.0328 38.9317 24.8398 39.375 22.5061 39.375C20.1727 39.375 17.9788 38.9322 15.9244 38.0466ZM33.1406 33.1406C36.0469 30.2344 37.5 26.6875 37.5 22.5C37.5 18.3125 36.0469 14.7656 33.1406 11.8594C30.2344 8.95312 26.6875 7.5 22.5 7.5C18.3125 7.5 14.7656 8.95312 11.8594 11.8594C8.95312 14.7656 7.5 18.3125 7.5 22.5C7.5 26.6875 8.95312 30.2344 11.8594 33.1406C14.7656 36.0469 18.3125 37.5 22.5 37.5C26.6875 37.5 30.2344 36.0469 33.1406 33.1406ZM15.8653 29.1431C14.0384 27.3219 13.125 25.1103 13.125 22.5084C13.125 19.9066 14.0356 17.6922 15.8569 15.8653C17.6781 14.0384 19.8897 13.125 22.4916 13.125C25.0934 13.125 27.3078 14.0356 29.1347 15.8569C30.9616 17.6781 31.875 19.8897 31.875 22.4916C31.875 25.0934 30.9644 27.3078 29.1431 29.1347C27.3219 30.9616 25.1103 31.875 22.5084 31.875C19.9066 31.875 17.6922 30.9644 15.8653 29.1431ZM27.7969 27.7969C29.2656 26.3281 30 24.5625 30 22.5C30 20.4375 29.2656 18.6719 27.7969 17.2031C26.3281 15.7344 24.5625 15 22.5 15C20.4375 15 18.6719 15.7344 17.2031 17.2031C15.7344 18.6719 15 20.4375 15 22.5C15 24.5625 15.7344 26.3281 17.2031 27.7969C18.6719 29.2656 20.4375 30 22.5 30C24.5625 30 26.3281 29.2656 27.7969 27.7969ZM21.1856 23.8144C20.8119 23.4406 20.625 23.0025 20.625 22.5C20.625 21.9975 20.8119 21.5594 21.1856 21.1856C21.5594 20.8119 21.9975 20.625 22.5 20.625C23.0025 20.625 23.4406 20.8119 23.8144 21.1856C24.1881 21.5594 24.375 21.9975 24.375 22.5C24.375 23.0025 24.1881 23.4406 23.8144 23.8144C23.4406 24.1881 23.0025 24.375 22.5 24.375C21.9975 24.375 21.5594 24.1881 21.1856 23.8144Z" fill="#002954"/>
</g>
</svg>
