<svg width="45" height="45" viewBox="0 0 45 45" fill="none" xmlns="http://www.w3.org/2000/svg">
<mask id="mask0_3779_57258" style="mask-type:alpha" maskUnits="userSpaceOnUse" x="0" y="0" width="45" height="45">
<rect width="45" height="45" fill="#D9D9D9"/>
</mask>
<g mask="url(#mask0_3779_57258)">
<path d="M21.9419 37.3917C22.1869 37.3917 22.438 37.3364 22.6952 37.2257C22.9524 37.1154 23.1604 36.9809 23.3191 36.8222L37.9371 22.2042C38.408 21.7332 38.7716 21.2514 39.0279 20.7586C39.2838 20.2657 39.4118 19.7248 39.4118 19.1357C39.4118 18.5395 39.2838 17.9607 39.0279 17.3995C38.7716 16.8382 38.408 16.3256 37.9371 15.8615L30.9058 8.83027C30.4418 8.35934 29.9652 8.01387 29.4761 7.79387C28.9868 7.57387 28.4441 7.46387 27.8482 7.46387C27.2591 7.46387 26.7122 7.57387 26.2076 7.79387C25.7026 8.01387 25.2266 8.35934 24.7797 8.83027L23.1461 10.4639L26.6149 13.9434C26.9874 14.3087 27.2651 14.7247 27.4479 15.1912C27.6304 15.6575 27.7216 16.1309 27.7216 16.6115C27.7216 17.5878 27.4026 18.395 26.7644 19.0331C26.1263 19.6712 25.3193 19.9903 24.3433 19.9903C23.8624 19.9903 23.393 19.917 22.9352 19.7704C22.4774 19.6239 22.0657 19.3678 21.7001 19.0022L18.9419 16.2548C18.7254 16.0386 18.4488 15.9304 18.1122 15.9304C17.776 15.9304 17.4996 16.0386 17.283 16.2548L10.0174 23.5204C9.82771 23.7104 9.68537 23.9262 9.59037 24.1678C9.49537 24.4093 9.44787 24.6526 9.44787 24.8976C9.44787 25.3401 9.58974 25.705 9.87349 25.9922C10.1569 26.2793 10.5199 26.4229 10.9624 26.4229C11.2074 26.4229 11.4585 26.3676 11.7157 26.257C11.9729 26.1467 12.1808 26.0122 12.3396 25.8534L17.6186 20.5743C17.794 20.399 18.0072 20.3036 18.2585 20.2879C18.5097 20.2723 18.7386 20.3678 18.9452 20.5743C19.1449 20.774 19.2447 20.9953 19.2447 21.2381C19.2447 21.4809 19.1449 21.702 18.9452 21.9014L13.6774 27.1804C13.4874 27.3701 13.3449 27.5857 13.2499 27.8273C13.1552 28.0689 13.1079 28.3123 13.1079 28.5576C13.1079 28.9761 13.2557 29.3331 13.5513 29.6287C13.8469 29.9243 14.2038 30.0722 14.6219 30.0722C14.8672 30.0722 15.1185 30.0168 15.3757 29.9062C15.6329 29.7956 15.8408 29.6609 15.9996 29.5022L21.7108 23.8017C21.8865 23.6261 22.0999 23.5304 22.3511 23.5148C22.6024 23.4992 22.8313 23.5948 23.0379 23.8017C23.2376 24.0011 23.3374 24.2222 23.3374 24.465C23.3374 24.7078 23.2376 24.929 23.0379 25.1287L17.3374 30.84C17.1715 30.9987 17.0351 31.2067 16.9282 31.4639C16.821 31.7211 16.7674 31.9723 16.7674 32.2176C16.7674 32.6357 16.9152 32.9926 17.2108 33.2882C17.5068 33.5842 17.8638 33.7322 18.2819 33.7322C18.5272 33.7322 18.7707 33.6847 19.0122 33.5897C19.2538 33.4947 19.4694 33.3522 19.6591 33.1622L25.3708 27.4617C25.5465 27.2861 25.7597 27.1904 26.0107 27.1748C26.2619 27.1592 26.491 27.2548 26.6979 27.4617C26.8972 27.6611 26.9969 27.8822 26.9969 28.125C26.9969 28.3678 26.8972 28.5889 26.6979 28.7882L20.9861 34.5C20.7965 34.69 20.6541 34.9178 20.5591 35.1834C20.4641 35.449 20.4166 35.6923 20.4166 35.9132C20.4166 36.3557 20.5722 36.7128 20.8835 36.9843C21.1947 37.2559 21.5476 37.3917 21.9419 37.3917ZM21.9311 39.2667C20.9671 39.2667 20.1419 38.914 19.4557 38.2087C18.7694 37.5031 18.4683 36.6322 18.5524 35.5959C17.4899 35.6081 16.6052 35.2909 15.8983 34.6443C15.1918 33.9975 14.8565 33.0948 14.8924 31.9364C13.734 31.9482 12.8211 31.6172 12.154 30.9431C11.4868 30.2687 11.1833 29.3798 11.2436 28.2764C10.2002 28.2886 9.32755 27.9953 8.62568 27.3965C7.9238 26.7981 7.57286 25.9651 7.57286 24.8976C7.57286 24.417 7.66599 23.9357 7.85224 23.4539C8.03849 22.9717 8.31427 22.5479 8.67958 22.1826L15.9813 14.8809C16.556 14.3065 17.2646 14.0193 18.1071 14.0193C18.9496 14.0193 19.6582 14.3065 20.2329 14.8809L22.9549 17.6034C23.1136 17.7693 23.3096 17.9057 23.5427 18.0126C23.7758 18.1195 24.0391 18.1729 24.3326 18.1729C24.7338 18.1729 25.0883 18.0329 25.3961 17.7529C25.704 17.4729 25.8579 17.1081 25.8579 16.6584C25.8579 16.3653 25.8043 16.1021 25.6971 15.869C25.5902 15.6359 25.4538 15.44 25.2879 15.2812L18.8374 8.83027C18.3733 8.35934 17.8907 8.01387 17.3894 7.79387C16.8882 7.57387 16.3396 7.46387 15.7436 7.46387C15.1546 7.46387 14.6197 7.57387 14.1391 7.79387C13.6582 8.01387 13.1821 8.35934 12.7108 8.83027L7.00287 14.549C6.34912 15.2031 5.92849 16.0012 5.74099 16.9434C5.55349 17.8859 5.6388 18.7862 5.99693 19.6443C6.06661 19.8872 6.03536 20.1215 5.90318 20.3475C5.77099 20.5734 5.58349 20.7176 5.34068 20.7801C5.09786 20.8426 4.85755 20.8095 4.61974 20.6807C4.38161 20.5523 4.2313 20.3667 4.1688 20.1239C3.76505 18.9123 3.67677 17.6881 3.90396 16.4512C4.13115 15.2143 4.71833 14.1225 5.66552 13.1756L11.3374 7.50371C11.9911 6.85684 12.6829 6.37606 13.4126 6.06137C14.1419 5.74637 14.931 5.58887 15.7797 5.58887C16.6282 5.58887 17.4111 5.74637 18.1286 6.06137C18.8461 6.37606 19.5282 6.85684 20.1747 7.50371L21.8083 9.13684L23.4419 7.50371C24.0957 6.85684 24.7813 6.37606 25.4988 6.06137C26.2163 5.74637 26.9994 5.58887 27.8482 5.58887C28.6966 5.58887 29.4857 5.74637 30.2154 6.06137C30.9447 6.37606 31.6329 6.85684 32.2797 7.50371L39.2641 14.4881C39.9107 15.1347 40.4094 15.8606 40.7604 16.6659C41.1113 17.4712 41.2868 18.2981 41.2868 19.1465C41.2868 19.9953 41.1113 20.7784 40.7604 21.4959C40.4094 22.2134 39.9107 22.8954 39.2641 23.542L24.6461 38.1492C24.2568 38.5386 23.833 38.8222 23.3749 39C22.9171 39.1778 22.4358 39.2667 21.9311 39.2667Z" fill="#002954"/>
</g>
</svg>
