<svg width="45" height="45" viewBox="0 0 45 45" fill="none" xmlns="http://www.w3.org/2000/svg">
<mask id="mask0_3779_57276" style="mask-type:alpha" maskUnits="userSpaceOnUse" x="0" y="0" width="45" height="45">
<rect width="45" height="45" fill="#D9D9D9"/>
</mask>
<g mask="url(#mask0_3779_57276)">
<path d="M15.9691 35.625C15.6975 35.625 15.4433 35.5631 15.2064 35.4394C14.9698 35.3156 14.7855 35.1216 14.6533 34.8572L11.3575 28.9181H13.7158L15.0391 31.4208C15.1713 31.6923 15.3575 31.8961 15.5978 32.032C15.8381 32.1677 16.0941 32.2355 16.3656 32.2355H18.497C18.6989 32.2355 18.8695 32.1658 19.0089 32.0264C19.1483 31.887 19.218 31.7164 19.218 31.5145C19.218 31.3127 19.1483 31.1419 19.0089 31.0022C18.8695 30.8628 18.6989 30.7931 18.497 30.7931H16.3188L14.9955 28.2909C14.8633 28.0194 14.677 27.8156 14.4367 27.6797C14.1964 27.5437 13.9405 27.4758 13.6689 27.4758H10.5423L8.15922 23.257C8.09672 23.1248 8.04797 22.9987 8.01297 22.8787C7.97828 22.7584 7.96094 22.6322 7.96094 22.5C7.96094 22.4231 8.02703 22.1708 8.15922 21.743L10.5423 17.5242H13.6689C13.9405 17.5242 14.1964 17.4563 14.4367 17.3203C14.677 17.1844 14.8633 16.9806 14.9955 16.7091L16.3188 14.2069H18.497C18.6989 14.2069 18.8695 14.1372 19.0089 13.9978C19.1483 13.8581 19.218 13.6873 19.218 13.4855C19.218 13.2836 19.1483 13.113 19.0089 12.9736C18.8695 12.8342 18.6989 12.7645 18.497 12.7645H16.3656C16.0941 12.7645 15.8381 12.8323 15.5978 12.968C15.3575 13.1039 15.1713 13.3077 15.0391 13.5792L13.7158 16.0819H11.3575L14.6533 10.1428C14.7855 9.87844 14.9698 9.68438 15.2064 9.56063C15.4433 9.43688 15.6975 9.375 15.9691 9.375H20.2638C20.6988 9.375 21.0598 9.51859 21.347 9.80578C21.6345 10.093 21.7783 10.4542 21.7783 10.8895V17.6681H18.9297C18.7275 17.6681 18.5567 17.7378 18.4173 17.8772C18.278 18.0169 18.2083 18.1877 18.2083 18.3895C18.2083 18.5914 18.278 18.762 18.4173 18.9014C18.5567 19.0408 18.7275 19.1105 18.9297 19.1105H21.7783V24.2306H18.0859L16.8344 21.7645C16.7022 21.493 16.5159 21.2892 16.2756 21.1533C16.0353 21.0173 15.7794 20.9494 15.5078 20.9494H12.9437C12.7419 20.9494 12.5713 21.0191 12.4319 21.1584C12.2925 21.2981 12.2228 21.4689 12.2228 21.6708C12.2228 21.8727 12.2925 22.0433 12.4319 22.1827C12.5713 22.322 12.7419 22.3917 12.9437 22.3917H15.5547L16.8058 24.8583C16.938 25.1298 17.1242 25.3336 17.3645 25.4695C17.6048 25.6052 17.8609 25.673 18.1328 25.673H21.7783V34.1105C21.7783 34.5458 21.6345 34.907 21.347 35.1942C21.0598 35.4814 20.6988 35.625 20.2638 35.625H15.9691ZM24.25 34.8117C23.7078 34.2698 23.4367 33.6034 23.4367 32.8125C23.4367 32.19 23.6145 31.6473 23.9702 31.1845C24.3261 30.7217 24.7733 30.3906 25.3117 30.1912V14.8087C24.7733 14.6094 24.3261 14.2783 23.9702 13.8155C23.6145 13.3527 23.4367 12.81 23.4367 12.1875C23.4367 11.3966 23.7078 10.7302 24.25 10.1883C24.7919 9.64609 25.4583 9.375 26.2492 9.375C27.0402 9.375 27.7066 9.64609 28.2484 10.1883C28.7906 10.7302 29.0617 11.3966 29.0617 12.1875C29.0617 12.81 28.8839 13.3527 28.5283 13.8155C28.1723 14.2783 27.7252 14.6094 27.1867 14.8087V20.2284L31.9464 17.3653C31.7539 16.4953 31.9408 15.7212 32.507 15.0431C33.0733 14.3653 33.7998 14.0264 34.6867 14.0264C35.4777 14.0264 36.1441 14.2975 36.6859 14.8397C37.2281 15.3816 37.4992 16.048 37.4992 16.8389C37.4992 17.6298 37.2281 18.2963 36.6859 18.8381C36.1441 19.3803 35.4777 19.6514 34.6867 19.6514C34.343 19.6514 34.0286 19.5883 33.7436 19.462C33.4589 19.3358 33.188 19.1706 32.9308 18.9666L27.9077 22.0134L33.2191 26.2322C33.4378 26.0903 33.6686 25.9856 33.9114 25.9181C34.1542 25.8509 34.4127 25.8173 34.6867 25.8173C35.4777 25.8173 36.1441 26.0884 36.6859 26.6306C37.2281 27.1725 37.4992 27.8389 37.4992 28.6298C37.4992 29.4208 37.2281 30.0872 36.6859 30.6291C36.1441 31.1713 35.4777 31.4423 34.6867 31.4423C33.6986 31.4423 32.9336 31.0409 32.3917 30.2381C31.8495 29.435 31.7287 28.5912 32.0294 27.7069L27.1867 23.8303V30.2381C27.7252 30.4375 28.1645 30.7625 28.5048 31.2131C28.8448 31.6641 29.0148 32.1972 29.0148 32.8125C29.0148 33.6034 28.7516 34.2698 28.225 34.8117C27.6988 35.3539 27.0402 35.625 26.2492 35.625C25.4583 35.625 24.7919 35.3539 24.25 34.8117Z" fill="#002954"/>
</g>
</svg>
