<svg width="45" height="45" viewBox="0 0 45 45" fill="none" xmlns="http://www.w3.org/2000/svg">
<mask id="mask0_3773_54319" style="mask-type:alpha" maskUnits="userSpaceOnUse" x="0" y="0" width="45" height="45">
<rect width="45" height="45" fill="#D9D9D9"/>
</mask>
<g mask="url(#mask0_3773_54319)">
<path d="M22.4986 38.4375C22.2327 38.4375 22.0102 38.3477 21.8311 38.168C21.652 37.9883 21.5625 37.7656 21.5625 37.5V30C21.5625 29.7344 21.6525 29.5117 21.8325 29.332C22.0125 29.1523 22.2355 29.0625 22.5014 29.0625C22.7673 29.0625 22.9898 29.1523 23.1689 29.332C23.348 29.5117 23.4375 29.7344 23.4375 30V32.8125H37.5C37.7656 32.8125 37.9883 32.9025 38.168 33.0825C38.3477 33.2625 38.4375 33.4855 38.4375 33.7514C38.4375 34.0173 38.3477 34.2398 38.168 34.4189C37.9883 34.598 37.7656 34.6875 37.5 34.6875H23.4375V37.5C23.4375 37.7656 23.3475 37.9883 23.1675 38.168C22.9875 38.3477 22.7645 38.4375 22.4986 38.4375ZM7.5 34.6875C7.23438 34.6875 7.01172 34.5975 6.83203 34.4175C6.65234 34.2375 6.5625 34.0145 6.5625 33.7486C6.5625 33.4827 6.65234 33.2602 6.83203 33.0811C7.01172 32.902 7.23438 32.8125 7.5 32.8125H15C15.2656 32.8125 15.4883 32.9025 15.668 33.0825C15.8477 33.2625 15.9375 33.4855 15.9375 33.7514C15.9375 34.0173 15.8477 34.2398 15.668 34.4189C15.4883 34.598 15.2656 34.6875 15 34.6875H7.5ZM14.9986 27.1875C14.7327 27.1875 14.5102 27.0977 14.3311 26.918C14.152 26.7383 14.0625 26.5156 14.0625 26.25V23.4375H7.5C7.23438 23.4375 7.01172 23.3475 6.83203 23.1675C6.65234 22.9875 6.5625 22.7645 6.5625 22.4986C6.5625 22.2327 6.65234 22.0102 6.83203 21.8311C7.01172 21.652 7.23438 21.5625 7.5 21.5625H14.0625V18.75C14.0625 18.4844 14.1525 18.2617 14.3325 18.082C14.5125 17.9023 14.7355 17.8125 15.0014 17.8125C15.2673 17.8125 15.4898 17.9023 15.6689 18.082C15.848 18.2617 15.9375 18.4844 15.9375 18.75V26.25C15.9375 26.5156 15.8475 26.7383 15.6675 26.918C15.4875 27.0977 15.2645 27.1875 14.9986 27.1875ZM22.5 23.4375C22.2344 23.4375 22.0117 23.3475 21.832 23.1675C21.6523 22.9875 21.5625 22.7645 21.5625 22.4986C21.5625 22.2327 21.6523 22.0102 21.832 21.8311C22.0117 21.652 22.2344 21.5625 22.5 21.5625H37.5C37.7656 21.5625 37.9883 21.6525 38.168 21.8325C38.3477 22.0125 38.4375 22.2355 38.4375 22.5014C38.4375 22.7673 38.3477 22.9898 38.168 23.1689C37.9883 23.348 37.7656 23.4375 37.5 23.4375H22.5ZM29.9986 15.9375C29.7327 15.9375 29.5102 15.8477 29.3311 15.668C29.152 15.4883 29.0625 15.2656 29.0625 15V7.5C29.0625 7.23438 29.1525 7.01172 29.3325 6.83203C29.5125 6.65234 29.7355 6.5625 30.0014 6.5625C30.2673 6.5625 30.4898 6.65234 30.6689 6.83203C30.848 7.01172 30.9375 7.23438 30.9375 7.5V10.3125H37.5C37.7656 10.3125 37.9883 10.4025 38.168 10.5825C38.3477 10.7625 38.4375 10.9855 38.4375 11.2514C38.4375 11.5173 38.3477 11.7398 38.168 11.9189C37.9883 12.098 37.7656 12.1875 37.5 12.1875H30.9375V15C30.9375 15.2656 30.8475 15.4883 30.6675 15.668C30.4875 15.8477 30.2645 15.9375 29.9986 15.9375ZM7.5 12.1875C7.23438 12.1875 7.01172 12.0975 6.83203 11.9175C6.65234 11.7375 6.5625 11.5145 6.5625 11.2486C6.5625 10.9827 6.65234 10.7602 6.83203 10.5811C7.01172 10.402 7.23438 10.3125 7.5 10.3125H22.5C22.7656 10.3125 22.9883 10.4025 23.168 10.5825C23.3477 10.7625 23.4375 10.9855 23.4375 11.2514C23.4375 11.5173 23.3477 11.7398 23.168 11.9189C22.9883 12.098 22.7656 12.1875 22.5 12.1875H7.5Z" fill="#002954"/>
</g>
</svg>
