<svg width="48" height="48" viewBox="0 0 48 48" fill="none" xmlns="http://www.w3.org/2000/svg">
<mask id="mask0_1059_11251" style="mask-type:alpha" maskUnits="userSpaceOnUse" x="-1" y="0" width="49" height="48">
<rect x="-0.00195312" width="47.05" height="47.05" fill="#D9D9D9"/>
</mask>
<g mask="url(#mask0_1059_11251)">
<g filter="url(#filter0_d_1059_11251)">
<path d="M11.371 38.6202C10.5542 38.6202 9.85987 38.3343 9.28809 37.7625C8.7163 37.1907 8.4304 36.4964 8.4304 35.6796V11.3704C8.4304 11.2071 8.43857 11.06 8.45491 10.9293C8.47125 10.7986 8.51209 10.668 8.57744 10.5373L7.74426 9.70408C7.61356 9.57339 7.54005 9.41819 7.52371 9.23848C7.50738 9.05878 7.58089 8.88724 7.74426 8.72387C7.90763 8.5605 8.07099 8.47882 8.23436 8.47882C8.39773 8.47882 8.5611 8.5605 8.72447 8.72387L38.3267 38.3261C38.4574 38.4568 38.5309 38.612 38.5473 38.7917C38.5636 38.9714 38.4901 39.143 38.3267 39.3064C38.1634 39.4697 38 39.5514 37.8366 39.5514C37.6733 39.5514 37.5099 39.4697 37.3465 39.3064L36.5624 38.5222C36.399 38.5549 36.252 38.5794 36.1213 38.5957C35.9906 38.612 35.8435 38.6202 35.6802 38.6202H11.371ZM11.371 37.2479H35.2881L9.8027 11.7625V35.6796C9.8027 36.137 9.94973 36.5128 10.2438 36.8068C10.5379 37.1009 10.9136 37.2479 11.371 37.2479ZM37.9347 32.5429C37.7713 32.5429 37.6161 32.4857 37.4691 32.3714C37.322 32.257 37.2485 32.0855 37.2485 31.8568V16.0754H22.8395C22.4474 16.0754 22.0635 15.9937 21.6877 15.8304C21.312 15.667 20.9934 15.4546 20.732 15.1932L16.4681 10.9293C16.2394 10.7006 16.1087 10.4474 16.076 10.1697C16.0434 9.89195 16.076 9.6224 16.174 9.36101C16.2721 9.09962 16.4354 8.87907 16.6641 8.69937C16.8929 8.51966 17.1706 8.42981 17.4973 8.42981H35.6802C36.497 8.42981 37.1913 8.7157 37.7631 9.28749C38.3349 9.85928 38.6208 10.5536 38.6208 11.3704V31.8568C38.6208 32.0855 38.5473 32.257 38.4003 32.3714C38.2532 32.4857 38.098 32.5429 37.9347 32.5429Z" fill="#002954"/>
</g>
</g>
<defs>
<filter id="filter0_d_1059_11251" x="1.24816" y="2.15648" width="43.6463" height="43.6682" filterUnits="userSpaceOnUse" color-interpolation-filters="sRGB">
<feFlood flood-opacity="0" result="BackgroundImageFix"/>
<feColorMatrix in="SourceAlpha" type="matrix" values="0 0 0 0 0 0 0 0 0 0 0 0 0 0 0 0 0 0 127 0" result="hardAlpha"/>
<feOffset/>
<feGaussianBlur stdDeviation="3.13666"/>
<feComposite in2="hardAlpha" operator="out"/>
<feColorMatrix type="matrix" values="0 0 0 0 1 0 0 0 0 1 0 0 0 0 1 0 0 0 0.18 0"/>
<feBlend mode="normal" in2="BackgroundImageFix" result="effect1_dropShadow_1059_11251"/>
<feBlend mode="normal" in="SourceGraphic" in2="effect1_dropShadow_1059_11251" result="shape"/>
</filter>
</defs>
</svg>
