<svg width="48" height="48" viewBox="0 0 48 48" fill="none" xmlns="http://www.w3.org/2000/svg">
<mask id="mask0_1059_11280" style="mask-type:alpha" maskUnits="userSpaceOnUse" x="-1" y="0" width="49" height="48">
<rect x="-0.00195312" width="47.05" height="47.05" fill="#D9D9D9"/>
</mask>
<g mask="url(#mask0_1059_11280)">
<path d="M22.6179 37.2479H6.85911C6.58139 37.2479 6.34859 37.1538 6.16072 36.9656C5.97284 36.7774 5.87891 36.5443 5.87891 36.2663C5.87891 35.9882 5.97284 35.7556 6.16072 35.5683C6.34859 35.3811 6.58139 35.2875 6.85911 35.2875H22.6179C22.8956 35.2875 23.1284 35.3816 23.3163 35.5698C23.5042 35.758 23.5981 35.9911 23.5981 36.2692C23.5981 36.5473 23.5042 36.7799 23.3163 36.9671C23.1284 37.1543 22.8956 37.2479 22.6179 37.2479ZM11.0064 32.5733C10.1039 32.5733 9.35048 32.2711 8.74601 31.6666C8.14155 31.0622 7.83932 30.3087 7.83932 29.4063V12.9692C7.83932 12.0667 8.14155 11.3133 8.74601 10.7088C9.35048 10.1044 10.1039 9.80212 11.0064 9.80212H37.9244C38.2021 9.80212 38.4349 9.89622 38.6227 10.0844C38.8106 10.2726 38.9046 10.5058 38.9046 10.7838C38.9046 11.0619 38.8106 11.2945 38.6227 11.4817C38.4349 11.6689 38.2021 11.7625 37.9244 11.7625H11.0064C10.7045 11.7625 10.4279 11.8882 10.1766 12.1394C9.92537 12.3907 9.79974 12.6673 9.79974 12.9692V29.4063C9.79974 29.7079 9.92537 29.9843 10.1766 30.2355C10.4279 30.4871 10.7045 30.6129 11.0064 30.6129H22.6179C22.8956 30.6129 23.1284 30.7068 23.3163 30.8947C23.5042 31.0829 23.5981 31.316 23.5981 31.5941C23.5981 31.8722 23.5042 32.1048 23.3163 32.292C23.1284 32.4796 22.8956 32.5733 22.6179 32.5733H11.0064ZM39.5829 34.6465V19.7929C39.5829 19.6168 39.5201 19.466 39.3947 19.3405C39.2689 19.2147 39.1181 19.1518 38.9423 19.1518H31.628C31.4522 19.1518 31.3014 19.2147 31.1756 19.3405C31.0502 19.466 30.9874 19.6168 30.9874 19.7929V34.6465C30.9874 34.8226 31.0502 34.9734 31.1756 35.0988C31.3014 35.2246 31.4522 35.2875 31.628 35.2875H38.9423C39.1181 35.2875 39.2689 35.2246 39.3947 35.0988C39.5201 34.9734 39.5829 34.8226 39.5829 34.6465ZM31.4021 37.2479C30.7424 37.2479 30.1815 37.0171 29.7195 36.5554C29.2578 36.0934 29.027 35.5326 29.027 34.8729V19.5665C29.027 18.9068 29.2578 18.3459 29.7195 17.8839C30.1815 17.4223 30.7424 17.1914 31.4021 17.1914H39.1682C39.8279 17.1914 40.3888 17.4223 40.8508 17.8839C41.3124 18.3459 41.5433 18.9068 41.5433 19.5665V34.8729C41.5433 35.5326 41.3124 36.0934 40.8508 36.5554C40.3888 37.0171 39.8279 37.2479 39.1682 37.2479H31.4021ZM35.2783 24.5052C35.6573 24.5052 35.9731 24.3741 36.2257 24.1117C36.4782 23.849 36.6045 23.5427 36.6045 23.1927C36.6045 22.8137 36.4784 22.4978 36.2261 22.2449C35.9739 21.9923 35.6548 21.866 35.269 21.866C34.9128 21.866 34.6065 21.9923 34.35 22.2449C34.0939 22.4971 33.9658 22.8162 33.9658 23.2021C33.9658 23.5582 34.097 23.8643 34.3593 24.1205C34.6217 24.377 34.928 24.5052 35.2783 24.5052Z" fill="#002954"/>
</g>
</svg>
