<svg width="48" height="48" viewBox="0 0 48 48" fill="none" xmlns="http://www.w3.org/2000/svg">
<mask id="mask0_1059_11264" style="mask-type:alpha" maskUnits="userSpaceOnUse" x="-1" y="0" width="49" height="48">
<rect x="-0.00195312" width="47.05" height="47.05" fill="#D9D9D9"/>
</mask>
<g mask="url(#mask0_1059_11264)">
<path d="M22.3523 37.2253C21.9788 37.0871 21.6501 36.8761 21.3662 36.5921L19.1156 34.5597C15.6271 31.3903 12.5487 28.3084 9.8806 25.3139C7.21281 22.3193 5.87891 19.2072 5.87891 15.9774C5.87891 13.4841 6.72597 11.3905 8.4201 9.6967C10.1139 8.00258 12.2075 7.15552 14.7008 7.15552C16.1309 7.15552 17.62 7.51689 19.1681 8.23963C20.7165 8.96204 22.168 10.3249 23.5226 12.3281C24.8773 10.3249 26.3288 8.96204 27.8772 8.23963C29.4253 7.51689 30.9144 7.15552 32.3445 7.15552C34.8378 7.15552 36.9314 8.00258 38.6252 9.6967C40.3193 11.3905 41.1664 13.4841 41.1664 15.9774C41.1664 19.2823 39.7778 22.4592 37.0005 25.5079C34.2232 28.5567 31.1833 31.5777 27.8806 34.5709L25.6414 36.5921C25.3574 36.8761 25.0225 37.0871 24.6367 37.2253C24.2508 37.3636 23.8669 37.4327 23.4849 37.4327C23.103 37.4327 22.7254 37.3636 22.3523 37.2253ZM22.565 14.364C21.3913 12.4712 20.1712 11.1234 18.9044 10.3206C17.6376 9.51749 16.2364 9.11593 14.7008 9.11593C12.7404 9.11593 11.1067 9.7694 9.79974 11.0763C8.49279 12.3833 7.83932 14.017 7.83932 15.9774C7.83932 17.4252 8.24905 18.9098 9.0685 20.4314C9.88763 21.9534 10.9877 23.5124 12.3689 25.1085C13.75 26.7043 15.3373 28.3367 17.1307 30.0056C18.9238 31.6746 20.7906 33.3924 22.7311 35.1591C22.9572 35.3603 23.2211 35.461 23.5226 35.461C23.8242 35.461 24.0881 35.3603 24.3142 35.1591C26.2546 33.3924 28.1215 31.6746 29.9146 30.0056C31.708 28.3367 33.2953 26.7043 34.6764 25.1085C36.0575 23.5124 37.1577 21.9534 37.9768 20.4314C38.7962 18.9098 39.206 17.4252 39.206 15.9774C39.206 14.017 38.5525 12.3833 37.2456 11.0763C35.9386 9.7694 34.3049 9.11593 32.3445 9.11593C30.8089 9.11593 29.4076 9.51749 28.1409 10.3206C26.8741 11.1234 25.6539 12.4712 24.4803 14.364C24.3771 14.5397 24.2375 14.6716 24.0618 14.7595C23.886 14.8477 23.7063 14.8918 23.5226 14.8918C23.339 14.8918 23.1593 14.8477 22.9835 14.7595C22.8077 14.6716 22.6682 14.5397 22.565 14.364Z" fill="#002954"/>
</g>
</svg>
