<svg width="48" height="48" viewBox="0 0 48 48" fill="none" xmlns="http://www.w3.org/2000/svg">
<mask id="mask0_1062_11663" style="mask-type:alpha" maskUnits="userSpaceOnUse" x="0" y="0" width="48" height="48">
<rect width="47.05" height="47.05" fill="#D9D9D9"/>
</mask>
<g mask="url(#mask0_1062_11663)">
<path d="M22.5442 11.7321V9.5007C22.5442 9.22166 22.6378 8.98854 22.825 8.80132C23.0122 8.6141 23.2453 8.52049 23.5244 8.52049C23.8034 8.52049 24.0365 8.6141 24.2237 8.80132C24.411 8.98854 24.5046 9.22166 24.5046 9.5007V11.7096C25.5351 11.8053 26.4769 12.1378 27.33 12.707C28.1835 13.2761 28.874 13.9994 29.4017 14.8766C29.5602 15.108 29.6149 15.3548 29.5659 15.6172C29.5169 15.8799 29.3767 16.0905 29.1454 16.2489C28.9144 16.4071 28.6675 16.4616 28.4048 16.4126C28.1421 16.3636 27.9315 16.2236 27.7731 15.9926C27.3408 15.2611 26.754 14.6773 26.0126 14.2415C25.2713 13.8053 24.4745 13.5872 23.6224 13.5872C23.0872 13.5872 22.5664 13.6739 22.0599 13.8474C21.5535 14.0209 21.0866 14.2647 20.6592 14.5787C20.4129 14.7319 20.1685 14.7734 19.926 14.7031C19.6833 14.6329 19.4853 14.4746 19.332 14.2282C19.1788 13.9819 19.1311 13.7375 19.1889 13.495C19.2467 13.2523 19.3988 13.0543 19.6452 12.901C20.0572 12.5694 20.5089 12.308 21.0003 12.1169C21.4917 11.9257 22.0064 11.7975 22.5442 11.7321ZM37.2169 39.9925L29.7222 32.4978C29.1818 33.2644 28.4241 33.9097 27.4491 34.4337C26.4738 34.9578 25.4923 35.2274 24.5046 35.2424V37.4744C24.5046 37.7531 24.411 37.986 24.2237 38.1732C24.0365 38.3608 23.8034 38.4546 23.5244 38.4546C23.2453 38.4546 23.0122 38.3608 22.825 38.1732C22.6378 37.986 22.5442 37.7531 22.5442 37.4744V35.1444C21.1065 34.8601 19.9303 34.2952 19.0154 33.4496C18.1006 32.604 17.3541 31.4975 16.7761 30.1301C16.6654 29.8586 16.6477 29.5834 16.7232 29.3043C16.7987 29.0253 16.9722 28.8306 17.2437 28.7201C17.4976 28.6097 17.7557 28.6147 18.0181 28.7353C18.2807 28.8559 18.4712 29.0519 18.5895 29.3234C19.0545 30.4644 19.7287 31.417 20.6122 32.1812C21.4957 32.9451 22.5971 33.3271 23.9165 33.3271C24.8565 33.3271 25.7035 33.1216 26.4576 32.7105C27.2114 32.2998 27.8296 31.7589 28.3122 31.0878L7.05688 9.8325C6.87325 9.64887 6.77523 9.42391 6.76282 9.15762C6.75008 8.89101 6.8481 8.65347 7.05688 8.44501C7.26534 8.23623 7.4965 8.13184 7.75038 8.13184C8.00425 8.13184 8.23558 8.23623 8.44436 8.44501L38.6044 38.605C38.788 38.7886 38.886 39.0136 38.8984 39.2799C38.9112 39.5465 38.8132 39.784 38.6044 39.9925C38.3959 40.2013 38.1648 40.3057 37.9109 40.3057C37.657 40.3057 37.4257 40.2013 37.2169 39.9925Z" fill="white"/>
</g>
</svg>
