<svg width="48" height="48" viewBox="0 0 48 48" fill="none" xmlns="http://www.w3.org/2000/svg">
<mask id="mask0_1059_11245" style="mask-type:alpha" maskUnits="userSpaceOnUse" x="-1" y="0" width="49" height="48">
<rect x="-0.00195312" width="47.05" height="47.05" fill="#D9D9D9"/>
</mask>
<g mask="url(#mask0_1059_11245)">
<g filter="url(#filter0_d_1059_11245)">
<path d="M16.9535 36.6602C16.6899 36.6602 16.4443 36.603 16.2169 36.4887C15.9892 36.3743 15.81 36.1864 15.6793 35.925L12.3466 29.8968H14.6991L16.0713 32.4453C16.1893 32.7067 16.3662 32.9027 16.6021 33.0334C16.8384 33.1641 17.0862 33.2295 17.3456 33.2295H19.5511C19.7341 33.2295 19.8942 33.1608 20.0314 33.0236C20.1686 32.8864 20.2372 32.7263 20.2372 32.5433C20.2372 32.3603 20.1686 32.2002 20.0314 32.063C19.8942 31.9258 19.7341 31.8572 19.5511 31.8572H17.2902L15.9243 29.3086C15.8064 29.0472 15.6294 28.8512 15.3935 28.7205C15.1573 28.5898 14.9095 28.5245 14.65 28.5245H11.5624L9.14765 24.2767C9.09113 24.1353 9.04653 24.0046 9.01385 23.8847C8.98118 23.7651 8.96484 23.6453 8.96484 23.5254C8.96484 23.4601 9.03019 23.215 9.16089 22.7903L11.5624 18.5263H14.65C14.9095 18.5263 15.1573 18.461 15.3935 18.3303C15.6294 18.1996 15.8064 18.0036 15.9243 17.7422L17.2902 15.1936H19.5511C19.7341 15.1936 19.8942 15.125 20.0314 14.9878C20.1686 14.8506 20.2372 14.6905 20.2372 14.5075C20.2372 14.3245 20.1686 14.1644 20.0314 14.0272C19.8942 13.89 19.7341 13.8214 19.5511 13.8214H17.3456C17.0862 13.8214 16.8384 13.8867 16.6021 14.0174C16.3662 14.1481 16.1893 14.3441 16.0713 14.6055L14.6991 17.1541H12.3466L15.6793 11.1258C15.81 10.8644 15.9892 10.6765 16.2169 10.5622C16.4443 10.4478 16.6899 10.3906 16.9535 10.3906H21.3645C21.7811 10.3906 22.1303 10.5314 22.4123 10.8131C22.694 11.0951 22.8348 11.4443 22.8348 11.8609V18.7224H19.8451C19.6622 18.7224 19.5021 18.791 19.3648 18.9282C19.2276 19.0655 19.159 19.2256 19.159 19.4085C19.159 19.5915 19.2276 19.7516 19.3648 19.8888C19.5021 20.0261 19.6622 20.0947 19.8451 20.0947H22.8348V25.2898H19.11L17.8357 22.7903C17.7178 22.5289 17.5408 22.3328 17.3049 22.2021C17.0687 22.0714 16.8209 22.0061 16.5615 22.0061H14.0658C13.8672 22.0061 13.7025 22.0747 13.5718 22.2119C13.4411 22.3492 13.3758 22.5093 13.3758 22.6922C13.3758 22.8752 13.4444 23.0353 13.5816 23.1725C13.7189 23.3098 13.879 23.3784 14.0619 23.3784H16.6105L17.8847 25.8779C18.0027 26.1393 18.1796 26.3353 18.4155 26.466C18.6517 26.5967 18.8996 26.6621 19.159 26.6621H22.8348V35.1899C22.8348 35.6065 22.694 35.9556 22.4123 36.2372C22.1303 36.5192 21.7811 36.6602 21.3645 36.6602H16.9535ZM27.4418 36.6602C26.6903 36.6602 26.0613 36.407 25.5549 35.9005C25.0484 35.3941 24.7952 34.7651 24.7952 34.0136C24.7952 33.4046 24.9831 32.8684 25.3588 32.4051C25.7346 31.9418 26.2002 31.6285 26.7556 31.4651V15.5857C26.2002 15.4224 25.7346 15.109 25.3588 14.6457C24.9831 14.1824 24.7952 13.6462 24.7952 13.0372C24.7952 12.2857 25.0484 11.6567 25.5549 11.1503C26.0613 10.6438 26.6903 10.3906 27.4418 10.3906C28.1933 10.3906 28.8222 10.6438 29.3287 11.1503C29.8351 11.6567 30.0883 12.2857 30.0883 13.0372C30.0883 13.6462 29.9004 14.1824 29.5247 14.6457C29.149 15.109 28.6834 15.4224 28.1279 15.5857V21.467L33.421 18.2813C33.1596 17.4318 33.2985 16.664 33.8376 15.9778C34.3767 15.2917 35.0874 14.9486 35.9696 14.9486C36.7211 14.9486 37.35 15.2018 37.8565 15.7083C38.3629 16.2147 38.6161 16.8437 38.6161 17.5952C38.6161 18.3466 38.3629 18.9756 37.8565 19.4821C37.35 19.9885 36.7211 20.2417 35.9696 20.2417C35.6222 20.2417 35.2984 20.1682 34.9982 20.0212C34.6982 19.8741 34.4176 19.6863 34.1562 19.4575L28.667 22.7903L34.4012 27.3482C34.6299 27.1849 34.8742 27.0623 35.1339 26.9806C35.394 26.899 35.6726 26.8581 35.9696 26.8581C36.7211 26.8581 37.35 27.1113 37.8565 27.6178C38.3629 28.1242 38.6161 28.7532 38.6161 29.5047C38.6161 30.2562 38.3629 30.8851 37.8565 31.3916C37.35 31.898 36.7211 32.1512 35.9696 32.1512C34.9894 32.1512 34.246 31.7428 33.7396 30.926C33.2332 30.1091 33.1596 29.276 33.519 28.4264L28.1279 24.1135V31.5141C28.6834 31.6775 29.1408 31.9797 29.5002 32.4208C29.8596 32.8619 30.0393 33.3928 30.0393 34.0136C30.0393 34.7651 29.7943 35.3941 29.3042 35.9005C28.814 36.407 28.1933 36.6602 27.4418 36.6602Z" fill="#002954"/>
</g>
</g>
<defs>
<filter id="filter0_d_1059_11245" x="2.69151" y="4.1173" width="42.197" height="38.8162" filterUnits="userSpaceOnUse" color-interpolation-filters="sRGB">
<feFlood flood-opacity="0" result="BackgroundImageFix"/>
<feColorMatrix in="SourceAlpha" type="matrix" values="0 0 0 0 0 0 0 0 0 0 0 0 0 0 0 0 0 0 127 0" result="hardAlpha"/>
<feOffset/>
<feGaussianBlur stdDeviation="3.13666"/>
<feComposite in2="hardAlpha" operator="out"/>
<feColorMatrix type="matrix" values="0 0 0 0 1 0 0 0 0 1 0 0 0 0 1 0 0 0 0.18 0"/>
<feBlend mode="normal" in2="BackgroundImageFix" result="effect1_dropShadow_1059_11245"/>
<feBlend mode="normal" in="SourceGraphic" in2="effect1_dropShadow_1059_11245" result="shape"/>
</filter>
</defs>
</svg>
