<svg width="48" height="48" viewBox="0 0 48 48" fill="none" xmlns="http://www.w3.org/2000/svg">
<mask id="mask0_1059_11239" style="mask-type:alpha" maskUnits="userSpaceOnUse" x="-1" y="0" width="49" height="48">
<rect x="-0.00195312" width="47.05" height="47.05" fill="#D9D9D9"/>
</mask>
<g mask="url(#mask0_1059_11239)">
<path d="M23.5226 41.1688C21.062 41.1688 18.7585 40.7107 16.6122 39.7946C14.4659 38.8784 12.5984 37.6262 11.0098 36.0379C9.42154 34.4493 8.16932 32.5819 7.25316 30.4356C6.33699 28.2892 5.87891 25.9857 5.87891 23.5251C5.87891 21.0644 6.33699 18.761 7.25316 16.6146C8.16932 14.4683 9.42154 12.6008 11.0098 11.0122C12.5984 9.42398 14.4659 8.17177 16.6122 7.2556C18.7585 6.33943 21.062 5.88135 23.5226 5.88135C25.9833 5.88135 28.2868 6.33943 30.4331 7.2556C32.5794 8.17177 34.4469 9.42398 36.0355 11.0122C37.6238 12.6008 38.876 14.4683 39.7921 16.6146C40.7083 18.761 41.1664 21.0644 41.1664 23.5251C41.1664 25.9857 40.7083 28.2892 39.7921 30.4356C38.876 32.5819 37.6238 34.4493 36.0355 36.0379C34.4469 37.6262 32.5794 38.8784 30.4331 39.7946C28.2868 40.7107 25.9833 41.1688 23.5226 41.1688ZM23.5226 39.2084C25.5282 39.2084 27.4088 38.8596 29.1647 38.162C30.9203 37.4648 32.4929 36.5053 33.8825 35.2837L28.0051 29.4063H30.7914L35.2699 33.8849C36.4916 32.4953 37.453 30.9227 38.1542 29.1672C38.8554 27.4113 39.206 25.5306 39.206 23.5251C39.206 19.1795 37.6785 15.4792 34.6235 12.4242C31.5685 9.36925 27.8682 7.84176 23.5226 7.84176C21.5171 7.84176 19.6364 8.19235 17.8806 8.89353C16.125 9.5947 14.5524 10.5687 13.1628 11.8155L19.0024 17.6438H16.2539L11.7753 13.1653C10.5537 14.5549 9.59226 16.1275 8.89109 17.883C8.18991 19.6389 7.83932 21.5196 7.83932 23.5251C7.83932 27.8707 9.36681 31.571 12.4218 34.6259C15.4768 37.6809 19.1771 39.2084 23.5226 39.2084ZM10.5535 27.069L13.2305 23.5251L10.5535 19.9811H12.5517L14.2107 22.2057L15.8697 19.9811H17.8678L15.2286 23.5251L17.8678 27.069H15.8697L14.2107 24.8444L12.5517 27.069H10.5535ZM19.8655 27.069L22.5424 23.5251L19.8655 19.9811H21.8636L23.5226 22.2057L25.1816 19.9811H27.1798L24.5406 23.5251L27.1798 27.069H25.1816L23.5226 24.8444L21.8636 27.069H19.8655ZM29.1775 27.069L31.8544 23.5251L29.1775 19.9811H31.1756L32.8346 22.2057L34.4936 19.9811H36.4918L33.8526 23.5251L36.4918 27.069H34.4936L32.8346 24.8444L31.1756 27.069H29.1775Z" fill="#002954"/>
</g>
</svg>
