<svg width="48" height="48" viewBox="0 0 48 48" fill="none" xmlns="http://www.w3.org/2000/svg">
<mask id="mask0_1059_11274" style="mask-type:alpha" maskUnits="userSpaceOnUse" x="-1" y="0" width="49" height="48">
<rect x="-0.00195312" width="47.05" height="47.05" fill="#D9D9D9"/>
</mask>
<g mask="url(#mask0_1059_11274)">
<path d="M22.8216 39.9067C22.6344 39.7188 22.5407 39.486 22.5407 39.2083V31.3666C22.5407 31.0889 22.6348 30.8561 22.823 30.6682C23.0112 30.4804 23.2444 30.3864 23.5224 30.3864C23.8005 30.3864 24.0331 30.4804 24.2203 30.6682C24.4075 30.8561 24.5012 31.0889 24.5012 31.3666V34.3073H39.2043C39.482 34.3073 39.7148 34.4014 39.9027 34.5896C40.0905 34.7778 40.1845 35.0109 40.1845 35.2889C40.1845 35.567 40.0905 35.7996 39.9027 35.9869C39.7148 36.1741 39.482 36.2677 39.2043 36.2677H24.5012V39.2083C24.5012 39.486 24.4071 39.7188 24.2189 39.9067C24.0307 40.0946 23.7975 40.1885 23.5195 40.1885C23.2414 40.1885 23.0088 40.0946 22.8216 39.9067ZM7.83763 36.2677C7.5599 36.2677 7.3271 36.1736 7.13923 35.9854C6.95136 35.7972 6.85742 35.5641 6.85742 35.286C6.85742 35.0079 6.95136 34.7753 7.13923 34.5881C7.3271 34.4009 7.5599 34.3073 7.83763 34.3073H15.6793C15.957 34.3073 16.1898 34.4014 16.3777 34.5896C16.5656 34.7778 16.6595 35.0109 16.6595 35.2889C16.6595 35.567 16.5656 35.7996 16.3777 35.9869C16.1898 36.1741 15.957 36.2677 15.6793 36.2677H7.83763ZM14.9799 28.1442C14.7927 27.9563 14.6991 27.7235 14.6991 27.4458V24.5052H7.83763C7.5599 24.5052 7.3271 24.4111 7.13923 24.2229C6.95136 24.0347 6.85742 23.8016 6.85742 23.5235C6.85742 23.2455 6.95136 23.0128 7.13923 22.8256C7.3271 22.6384 7.5599 22.5448 7.83763 22.5448H14.6991V19.6041C14.6991 19.3264 14.7932 19.0936 14.9814 18.9058C15.1696 18.7179 15.4027 18.6239 15.6808 18.6239C15.9588 18.6239 16.1914 18.7179 16.3787 18.9058C16.5659 19.0936 16.6595 19.3264 16.6595 19.6041V27.4458C16.6595 27.7235 16.5654 27.9563 16.3772 28.1442C16.189 28.3321 15.9559 28.426 15.6778 28.426C15.3998 28.426 15.1671 28.3321 14.9799 28.1442ZM23.521 24.5052C23.2432 24.5052 23.0104 24.4111 22.8226 24.2229C22.6347 24.0347 22.5407 23.8016 22.5407 23.5235C22.5407 23.2455 22.6347 23.0128 22.8226 22.8256C23.0104 22.6384 23.2432 22.5448 23.521 22.5448H39.2043C39.482 22.5448 39.7148 22.6389 39.9027 22.8271C40.0905 23.0153 40.1845 23.2484 40.1845 23.5265C40.1845 23.8045 40.0905 24.0371 39.9027 24.2244C39.7148 24.4116 39.482 24.5052 39.2043 24.5052H23.521ZM30.6632 16.3817C30.476 16.1938 30.3824 15.961 30.3824 15.6833V7.84166C30.3824 7.56393 30.4765 7.33113 30.6647 7.14326C30.8529 6.95539 31.086 6.86145 31.3641 6.86145C31.6421 6.86145 31.8748 6.95539 32.062 7.14326C32.2492 7.33113 32.3428 7.56393 32.3428 7.84166V10.7823H39.2043C39.482 10.7823 39.7148 10.8764 39.9027 11.0646C40.0905 11.2528 40.1845 11.4859 40.1845 11.764C40.1845 12.042 40.0905 12.2746 39.9027 12.4619C39.7148 12.6491 39.482 12.7427 39.2043 12.7427H32.3428V15.6833C32.3428 15.961 32.2487 16.1938 32.0605 16.3817C31.8723 16.5696 31.6392 16.6635 31.3611 16.6635C31.0831 16.6635 30.8505 16.5696 30.6632 16.3817ZM7.83763 12.7427C7.5599 12.7427 7.3271 12.6486 7.13923 12.4604C6.95136 12.2722 6.85742 12.0391 6.85742 11.761C6.85742 11.483 6.95136 11.2503 7.13923 11.0631C7.3271 10.8759 7.5599 10.7823 7.83763 10.7823H23.521C23.7987 10.7823 24.0315 10.8764 24.2194 11.0646C24.4072 11.2528 24.5012 11.4859 24.5012 11.764C24.5012 12.042 24.4072 12.2746 24.2194 12.4619C24.0315 12.6491 23.7987 12.7427 23.521 12.7427H7.83763Z" fill="#002954"/>
</g>
</svg>
