<svg width="36" height="36" viewBox="0 0 36 36" fill="none" xmlns="http://www.w3.org/2000/svg">
<mask id="mask0_998_10691" style="mask-type:alpha" maskUnits="userSpaceOnUse" x="0" y="0" width="36" height="36">
<rect width="36" height="36" fill="#D9D9D9"/>
</mask>
<g mask="url(#mask0_998_10691)">
<path d="M11.7377 19.5L19.0877 26.85C19.3877 27.15 19.5314 27.5 19.5189 27.9C19.5064 28.3 19.3502 28.65 19.0502 28.95C18.7502 29.225 18.4002 29.3688 18.0002 29.3813C17.6002 29.3938 17.2502 29.25 16.9502 28.95L7.0502 19.05C6.9002 18.9 6.79395 18.7375 6.73145 18.5625C6.66895 18.3875 6.6377 18.2 6.6377 18C6.6377 17.8 6.66895 17.6125 6.73145 17.4375C6.79395 17.2625 6.9002 17.1 7.0502 16.95L16.9502 7.05C17.2252 6.775 17.5689 6.6375 17.9814 6.6375C18.3939 6.6375 18.7502 6.775 19.0502 7.05C19.3502 7.35 19.5002 7.70625 19.5002 8.11875C19.5002 8.53125 19.3502 8.8875 19.0502 9.1875L11.7377 16.5H28.5002C28.9252 16.5 29.2814 16.6438 29.5689 16.9313C29.8564 17.2188 30.0002 17.575 30.0002 18C30.0002 18.425 29.8564 18.7813 29.5689 19.0688C29.2814 19.3563 28.9252 19.5 28.5002 19.5H11.7377Z" fill="white"/>
</g>
</svg>
