<svg width="24" height="23" viewBox="0 0 24 23" fill="none" xmlns="http://www.w3.org/2000/svg">
<path d="M5.1 12.8625L12.45 20.2125C12.75 20.5125 12.8938 20.8625 12.8813 21.2625C12.8688 21.6625 12.7125 22.0125 12.4125 22.3125C12.1125 22.5875 11.7625 22.7313 11.3625 22.7438C10.9625 22.7563 10.6125 22.6125 10.3125 22.3125L0.4125 12.4125C0.2625 12.2625 0.15625 12.1 0.09375 11.925C0.03125 11.75 0 11.5625 0 11.3625C0 11.1625 0.03125 10.975 0.09375 10.8C0.15625 10.625 0.2625 10.4625 0.4125 10.3125L10.3125 0.4125C10.5875 0.1375 10.9312 0 11.3438 0C11.7563 0 12.1125 0.1375 12.4125 0.4125C12.7125 0.7125 12.8625 1.06875 12.8625 1.48125C12.8625 1.89375 12.7125 2.25 12.4125 2.55L5.1 9.8625H21.8625C22.2875 9.8625 22.6438 10.0063 22.9313 10.2938C23.2188 10.5813 23.3625 10.9375 23.3625 11.3625C23.3625 11.7875 23.2188 12.1438 22.9313 12.4313C22.6438 12.7188 22.2875 12.8625 21.8625 12.8625H5.1Z" fill="#002954"/>
</svg>
