<svg width="34" height="34" viewBox="0 0 34 34" fill="none" xmlns="http://www.w3.org/2000/svg">
<path fill-rule="evenodd" clip-rule="evenodd" d="M21.2779 7.12971C22.3351 5.90446 23.0477 4.19794 22.8527 2.5C21.3293 2.558 19.4862 3.47317 18.3938 4.69697C17.4129 5.78301 16.5566 7.51835 16.7868 9.18295C18.4862 9.30908 20.2208 8.35639 21.2779 7.12971ZM25.0887 17.9064C25.1312 22.2955 29.1062 23.7556 29.1502 23.7744C29.118 23.8774 28.5153 25.8548 27.0564 27.8993C25.794 29.6654 24.4846 31.4243 22.4216 31.462C20.3953 31.4983 19.7428 30.3108 17.4246 30.3108C15.108 30.3108 14.3836 31.4242 12.4658 31.4981C10.4746 31.5692 8.95706 29.5874 7.68582 27.8271C5.0847 24.2267 3.09793 17.6528 5.7665 13.2158C7.09199 11.0133 9.45998 9.61636 12.0318 9.58156C13.9863 9.54531 15.8323 10.8418 17.0273 10.8418C18.2223 10.8418 20.4656 9.28307 22.8234 9.51217C23.8102 9.55132 26.5814 9.89341 28.3599 12.3888C28.2162 12.4744 25.0535 14.2379 25.0887 17.9064Z" fill="#002954"/>
</svg>
