<svg preserveAspectRatio="none" width="100%" height="100%" overflow="visible" style="display: block;" viewBox="0 0 25 25" fill="none" xmlns="http://www.w3.org/2000/svg">
<g id="keyboard_arrow_down">
<mask id="mask0_1361_6241" style="mask-type:alpha" maskUnits="userSpaceOnUse" x="0" y="0" width="25" height="25">
<rect id="Bounding box" width="25" height="25" fill="var(--fill-0, #D9D9D9)"/>
</mask>
<g mask="url(#mask0_1361_6241)">
<path id="keyboard_arrow_down_2" d="M12.5006 14.9779C12.3884 14.9779 12.285 14.9596 12.1902 14.9229C12.0954 14.8861 12.0025 14.8223 11.9115 14.7315L7.34043 10.1602C7.24286 10.0628 7.19078 9.94323 7.18418 9.80157C7.17741 9.66007 7.22949 9.53394 7.34043 9.42318C7.45119 9.31224 7.57402 9.25677 7.70892 9.25677C7.84381 9.25677 7.96664 9.31224 8.07741 9.42318L12.5006 13.8461L16.9238 9.42318C17.0212 9.32561 17.1407 9.27353 17.2824 9.26693C17.4238 9.26016 17.55 9.31224 17.6607 9.42318C17.7717 9.53394 17.8271 9.65677 17.8271 9.79167C17.8271 9.92657 17.7717 10.0494 17.6607 10.1602L13.0896 14.7315C12.9987 14.8223 12.9058 14.8861 12.811 14.9229C12.7162 14.9596 12.6127 14.9779 12.5006 14.9779Z" fill="var(--fill-0, #002954)"/>
</g>
</g>
</svg>
