<svg width="176" height="48" viewBox="0 0 176 48" fill="none" xmlns="http://www.w3.org/2000/svg">
<path d="M9.08769 0.386616L118.576 0.39339L151.752 0.394034L162.133 0.391407C165.799 0.390008 170.135 -0.160029 172.961 2.63627C174.257 3.91762 174.841 5.62672 174.843 7.42434C174.849 14.5139 174.843 21.6031 174.843 28.6925L174.849 34.9615C174.851 36.0957 174.926 37.4239 174.798 38.5343C174.362 42.3043 170.935 44.6786 167.387 44.7315C163.176 44.7599 158.964 44.7667 154.753 44.7521H132.013L63.7152 44.7514L26.3104 44.7539L14.5254 44.7548C10.7537 44.7544 6.49796 45.3147 3.45222 42.6345C0.610302 40.1338 1.14756 34.9317 1.1458 31.4738L1.14412 21.4076L1.14631 12.9486C1.1509 8.79911 0.557473 3.9361 4.67846 1.58732C6.345 0.637478 7.19356 0.519267 9.08769 0.386616ZM66.3588 30.442C66.3 30.0192 66.3165 28.7675 66.1353 28.5862C66.1033 29.1031 65.9954 30.0049 66.2434 30.4432L66.3588 30.442Z" fill="black"/>
<path d="M102.945 1.333C104.283 1.27764 105.82 1.34656 107.174 1.34842L116.061 1.35037L143.86 1.35029L159.276 1.35179C162.561 1.35257 165.816 1.2137 169.068 1.65367C171.373 1.96564 173.588 4.05657 173.875 6.35452C174.243 9.29956 174.084 12.509 174.081 15.4867V32.9657C174.085 35.9028 174.461 39.761 172.237 41.8367C171.089 42.9071 169.908 43.5124 168.353 43.6434C164.817 43.9413 160.995 43.8241 157.429 43.8238L138.072 43.8243L73.4412 43.8256L29.4821 43.8274L16.2958 43.8279C13.6299 43.8276 10.8697 43.914 8.2158 43.6522C6.68385 43.501 5.31752 43.0542 4.18672 41.9674C2.77804 40.6135 2.14764 38.986 2.1675 37.0515C2.16162 34.621 2.17593 32.1941 2.17933 29.7652V16.5853C2.1868 14.8105 2.18217 13.0354 2.16546 11.2606C2.12807 8.31613 1.75886 5.59313 4.02952 3.27197C6.16669 1.0873 9.35798 1.36247 12.2041 1.35627L17.823 1.35166L35.8889 1.35068L80.0112 1.35025C87.5244 1.35038 95.4369 1.47357 102.945 1.333ZM66.3592 30.4418C66.3004 30.019 66.3169 28.7673 66.1357 28.5861C66.1037 29.1029 65.9958 30.0047 66.2438 30.443L66.3592 30.4418Z" fill="white"/>
<path d="M25.5789 15.9918C27.9597 15.8705 29.6794 16.1784 31.3003 18.1167C28.9384 20.3456 27.7365 22.914 29.7678 26.0085C30.2865 26.7987 31.1968 27.3103 31.9642 27.8652C31.8262 28.3158 31.6022 28.8029 31.4024 29.2243C31.0375 29.9944 30.4944 30.8125 30.0624 31.5047C26.7327 36.839 24.9141 32.1118 20.7556 33.5805C19.6557 34.1014 18.0683 34.4754 17.0106 33.6354C13.1252 30.5502 10.6837 23.1055 13.4469 18.6496C14.6694 16.6782 17.2479 15.5459 19.5102 16.1731C20.4095 16.413 21.4122 16.9586 22.3903 16.9526C23.4543 16.8721 24.4236 16.2387 25.5789 15.9918Z" fill="black"/>
<path d="M54.4706 20.4413L54.854 20.4229C55.1691 20.712 54.9404 26.9442 55.0172 27.858C55.0239 27.9371 55.0276 28.8743 55.0178 28.9516C54.878 30.0513 55.2259 33.1213 54.9505 34.0215C54.7539 34.103 54.6864 34.1266 54.4784 34.1704L54.4628 34.4707C54.2692 34.611 54.2056 34.6342 53.9478 34.6382C52.8819 34.6546 52.971 34.6833 52.1929 33.9993C51.9763 33.5256 52.0993 29.0783 52.1011 28.2426C51.9138 27.2338 52.0005 27.0729 52.0973 26.0844C52.121 25.842 52.0247 25.8058 51.8692 25.654C51.0338 27.4794 50.3297 29.3582 49.4992 31.2057C49.2173 31.8324 48.67 33.8216 48.0211 34.1217C47.6201 34.3072 46.6415 33.9654 46.509 33.5341C45.7331 32.0664 45.2686 30.4699 44.5936 28.9567C44.3442 28.3931 44.0867 27.7938 43.8553 27.2237C43.4273 26.1689 42.8405 25.1148 42.4893 24.0366L42.4638 23.9571C42.5145 25.8804 42.5477 28.6408 42.4549 30.5671C42.8841 31.0668 42.9236 33.4359 42.7164 34.0271C42.6438 34.0622 42.5235 34.1255 42.4529 34.1516C42.4187 34.2924 42.4081 34.477 42.3046 34.5268C41.8558 34.743 41.0079 34.598 40.5052 34.6084C40.4284 34.0955 40.4591 34.1097 39.9857 34.0129C39.7504 33.0695 39.9653 22.7143 40.0485 21.0032C40.0631 20.7009 40.2433 20.9476 40.4954 20.5131C40.713 20.4717 41.1323 20.4579 41.3699 20.4435L42.9522 20.4526C43.6367 21.9008 44.2712 23.3721 44.8542 24.8641C45.6203 26.8184 46.4713 29.5164 47.7912 31.0922C48.2747 29.0394 49.9273 25.5918 50.7251 23.5734C51.0896 22.6514 51.6833 21.4591 51.9099 20.5065C52.7757 20.4322 53.6041 20.4412 54.4706 20.4413Z" fill="black"/>
<path d="M40.4954 20.513C40.713 20.4716 41.1323 20.4578 41.3699 20.4434L40.9545 20.6009C40.8822 23.9568 41.164 27.4817 41.0377 30.8613C41.0019 31.8186 41.0132 33.0291 41.0623 33.9857C41.3795 33.9882 42.0391 33.9744 42.3286 34.007L42.3811 34.0051L42.4529 34.1515C42.4187 34.2923 42.4081 34.4769 42.3046 34.5267C41.8558 34.7429 41.0079 34.5979 40.5052 34.6083C40.4284 34.0954 40.4591 34.1096 39.9857 34.0128C39.7504 33.0694 39.9653 22.7142 40.0485 21.0031C40.0631 20.7008 40.2433 20.9475 40.4954 20.513Z" fill="black"/>
<path d="M39.9857 34.013C39.7504 33.0696 39.9653 22.7144 40.0485 21.0033C40.0631 20.701 40.2433 20.9477 40.4954 20.5132C40.4765 22.4481 40.5391 24.6596 40.4759 26.5611C40.5056 29.0125 40.4229 31.6372 40.5117 34.0557L40.5052 34.6085C40.4284 34.0956 40.4591 34.1097 39.9857 34.013Z" fill="white"/>
<path d="M40.5113 34.0559C40.9077 34.0736 42.002 34.1592 42.3282 34.0073L42.3807 34.0054L42.4525 34.1518C42.4183 34.2926 42.4078 34.4772 42.3043 34.527C41.8555 34.7432 41.0075 34.5982 40.5049 34.6086L40.5113 34.0559Z" fill="white"/>
<path d="M54.4704 20.4413L54.8539 20.4229C55.1689 20.712 54.9403 26.9442 55.0171 27.858C55.0238 27.9371 55.0274 28.8743 55.0177 28.9516C54.8778 30.0513 55.2258 33.1213 54.9503 34.0215C54.7537 34.103 54.6862 34.1266 54.4782 34.1704L54.4014 34.096C54.4934 33.5766 54.439 30.7825 54.443 30.0691C54.461 26.8631 54.3882 23.6505 54.4704 20.4413Z" fill="white"/>
<path d="M52.5596 27.3062C52.6615 29.4633 52.6199 31.8903 52.6247 34.0679C53.1668 34.0758 53.8728 34.0649 54.4013 34.0958L54.4781 34.1703L54.4625 34.4705C54.2689 34.6108 54.2053 34.6341 53.9476 34.638C52.8816 34.6544 52.9707 34.6831 52.1926 33.9992C51.9761 33.5254 52.0991 29.0782 52.1009 28.2424C52.4505 27.8716 52.4943 27.7852 52.5596 27.3062Z" fill="white"/>
<path d="M51.8691 25.6541L52.479 24.0117C52.5312 25.0955 52.5002 26.2798 52.5598 27.3065C52.4944 27.7855 52.4506 27.8719 52.1011 28.2427C51.9137 27.234 52.0004 27.073 52.0972 26.0845C52.1209 25.8421 52.0246 25.806 51.8691 25.6541Z" fill="white"/>
<path d="M42.4547 30.5669C42.8839 31.0666 42.9234 33.4357 42.7162 34.0268C42.6436 34.0619 42.5233 34.1252 42.4527 34.1514L42.3809 34.0049C42.3835 32.8585 42.4082 31.7123 42.4547 30.5669Z" fill="white"/>
<path d="M98.3826 24.0705C98.6171 24.0502 98.8516 24.0427 99.0869 24.0481C102.1 24.0992 103.213 26.7518 103.159 29.4002C103.106 32.0484 101.839 34.4105 98.8705 34.2569C97.5889 34.1907 96.7729 33.7976 95.896 32.8497C95.8582 33.5052 95.8453 34.1899 95.8229 34.8483C95.8255 35.7446 95.8041 36.6407 95.7568 37.5357L93.6902 37.5064C93.6627 33.049 93.6644 28.5915 93.6962 24.134C94.3756 24.1123 95.1289 24.1407 95.8144 24.1542L95.7448 25.5252C96.5891 24.7132 97.2239 24.2776 98.3826 24.0705Z" fill="black"/>
<path d="M97.9878 25.8598C101.709 25.6203 102.299 31.4022 98.8725 32.5369C97.609 32.6118 96.4684 32.0241 96.0767 30.8065C95.393 28.6764 95.8482 26.6895 97.9878 25.8598Z" fill="white"/>
<path d="M109.585 24.0643C112.498 23.7987 114.109 25.8872 114.345 28.6143C114.736 33.1393 110.821 36.2799 106.999 32.8899L106.92 34.7905C106.91 35.737 106.895 36.5814 106.831 37.5301C106.214 37.5146 105.53 37.5305 104.908 37.5316C104.766 33.3527 104.784 28.3275 104.867 24.1278L106.795 24.1235C106.866 24.7204 106.86 24.9854 106.837 25.5747C107.665 24.7379 108.419 24.2607 109.585 24.0643Z" fill="black"/>
<path d="M109.063 25.8658C112.917 25.4292 113.173 31.7592 109.941 32.5325C106.517 32.7706 105.614 27.3343 109.063 25.8658Z" fill="white"/>
<path d="M141.585 24.0694C142.818 23.9428 144.34 24.048 145.322 24.849C148.394 27.3547 147.832 33.5998 143.411 34.2298C142.034 34.3485 140.759 34.267 139.588 33.4353C137.361 31.8531 137.072 27.9508 138.667 25.8494C139.442 24.828 140.316 24.2668 141.585 24.0694Z" fill="black"/>
<path d="M142.087 25.7786C145.982 25.6308 146.186 31.6322 142.9 32.5892C139.006 32.9699 138.697 26.5408 142.087 25.7786Z" fill="white"/>
<path d="M85.2644 20.4771C86.0872 20.4433 86.7056 20.447 87.5293 20.4816C87.8695 21.8029 88.426 22.9696 88.8753 24.2414C89.2876 25.4088 89.656 26.5677 90.0718 27.741C90.7898 29.7656 91.8661 32.1277 92.3815 34.1755L90.1439 34.1813C89.6981 33.095 89.3606 31.4386 88.8564 30.4878C88.3238 30.4662 87.7226 30.4719 87.184 30.4653L83.6556 30.4816C83.1768 31.5483 82.8647 32.9802 82.3877 34.1638C81.6458 34.1979 80.9024 34.1786 80.1631 34.1063C80.218 33.8974 80.278 33.6898 80.343 33.4839C80.9448 31.6117 81.8648 29.4576 82.5269 27.6016C82.8713 26.6361 84.7842 20.7236 85.2644 20.4771Z" fill="black"/>
<path d="M86.2113 23.062C86.6597 23.4938 88.064 27.8671 88.3509 28.7481L86.3616 28.7834L84.2529 28.7749C84.6527 27.1686 85.5875 24.5906 86.2113 23.062Z" fill="white"/>
<path d="M124.467 20.3015C124.624 20.2925 124.781 20.2866 124.938 20.2837C127.518 20.2367 129.858 21.3125 129.898 24.1923C129.259 24.211 128.687 24.187 128.049 24.1612C127.14 22.5984 126.665 21.9173 124.765 22.0664C123.902 22.134 123.298 22.192 122.661 22.8826C122.332 23.239 122.129 23.6554 122.151 24.1529C122.36 26.5224 127.714 26.0646 129.204 27.7726C129.834 28.3432 130.169 29.1154 130.181 29.9623C130.198 31.0911 130.084 31.9627 129.273 32.794C128.112 33.9861 126.987 34.3229 125.396 34.3846C122.178 34.2628 120.29 33.8664 119.545 30.3967C120.253 30.3707 120.859 30.3633 121.567 30.3807C122.317 32.1095 123.542 32.7116 125.373 32.6223C126.609 32.5621 128.129 31.6379 127.898 30.2734C127.47 27.7499 122.628 28.3739 121.034 26.735C120.428 26.2027 120.103 25.5811 120.045 24.7521C119.824 21.6544 121.687 20.514 124.467 20.3015Z" fill="black"/>
<path d="M59.9065 24.0714C61.6641 23.8255 64.2983 24.3868 64.5854 26.4966C64.9122 28.8992 64.7315 31.714 64.711 34.1671C64.081 34.1825 63.3949 34.1674 62.7602 34.1658L62.7473 32.9247C61.2684 33.7936 60.6339 34.7926 58.5693 34.2149C57.6027 33.9445 56.981 33.5392 56.4683 32.6618C54.9509 28.3038 59.9032 28.3542 62.7252 28.1837C62.7326 27.0041 62.3166 25.8718 60.9376 25.7232C59.7606 25.5964 59.1264 26.3443 58.2969 27.0395C57.6603 27.0949 57.2514 27.0931 56.6143 27.0784C57.0235 25.2287 58.0341 24.3462 59.9065 24.0714Z" fill="black"/>
<path d="M61.3553 29.749C61.7319 29.718 62.3173 29.7407 62.7101 29.7444C62.5968 31.8147 61.8135 32.761 59.7005 32.7118C58.6591 32.4971 57.7739 31.5495 58.5229 30.4585C58.9817 29.7902 60.5706 29.7939 61.3553 29.749Z" fill="white"/>
<path d="M158.439 24.0645C158.747 24.0384 159.201 24.0241 159.51 24.0255C160.585 24.0195 161.619 24.4427 162.381 25.2011C163.685 26.5209 163.767 27.9914 163.761 29.7025C161.927 29.6718 158.294 29.6305 156.578 29.7923C156.889 31.1582 157.382 32.3934 158.983 32.6788C160.233 32.9016 161.021 32.0456 161.946 31.3584C162.464 31.2071 163.163 31.0494 163.502 31.5266C163.68 32.6521 161.57 34.0998 160.615 34.233C159.268 34.3947 157.64 34.2578 156.493 33.4902C154.267 32 154.087 27.9484 155.512 25.8692C156.264 24.7722 157.179 24.315 158.439 24.0645Z" fill="black"/>
<path d="M158.712 25.7734C160.583 25.6392 161.44 26.3983 161.752 28.1989C161.149 28.2433 160.449 28.2378 159.836 28.2464C159.092 28.2366 157.144 28.433 156.706 27.9374C156.53 27.1023 157.971 26.0231 158.712 25.7734Z" fill="white"/>
<path d="M70.2566 24.0667C71.0959 23.9828 72.4091 23.9966 73.154 24.3987C73.8818 24.7917 75.8349 26.6381 75.2587 27.5371C74.9092 27.6355 74.2007 27.6011 73.81 27.5981C73.0654 26.7399 72.2498 25.7242 70.9858 25.8009C68.8588 26.044 68.565 27.6595 68.4531 29.3835C68.289 31.9095 71.0694 33.7883 72.9182 31.8103L73.7124 30.8275C74.2728 30.7968 74.9216 30.8301 75.4886 30.845C75.0576 32.4271 74.1423 33.8525 72.4179 34.1726C69.7806 34.6468 67.0522 33.6805 66.5697 30.7496C66.0676 27.6999 66.7594 24.6755 70.2566 24.0667Z" fill="black"/>
<path d="M132.571 21.9008C132.578 21.8284 132.593 21.5363 132.629 21.4992C132.892 21.2289 134.651 21.2608 134.874 21.4653L134.9 21.9175C134.889 22.659 134.897 23.4008 134.922 24.142C135.449 24.1263 135.986 24.1034 136.513 24.1151L136.5 25.7906C135.946 25.8385 135.452 25.8423 134.897 25.848C134.894 27.6621 134.961 30.4067 134.761 32.1407C135.313 32.6035 135.839 32.6092 136.529 32.6704C136.53 33.2245 136.497 33.6349 136.448 34.182C136.263 34.1943 136.076 34.2035 135.891 34.2095C134.335 34.267 132.889 34.0795 132.672 32.2954C132.425 30.2704 132.589 27.8992 132.526 25.8464C132.124 25.7783 131.482 25.7556 131.058 25.7282C131.113 25.2825 131.116 24.595 131.132 24.1299L132.577 24.0784C132.55 23.3945 132.57 22.5937 132.571 21.9008Z" fill="black"/>
<path d="M134.762 32.1403C134.437 31.1197 133.99 26.4377 134.637 25.8548C135.237 25.6874 135.883 25.7397 136.5 25.7903C135.946 25.8381 135.452 25.842 134.897 25.8476C134.895 27.6618 134.961 30.4064 134.762 32.1403Z" fill="black"/>
<path d="M132.571 21.9008C132.578 21.8284 132.594 21.5363 132.63 21.4992C132.893 21.2289 134.651 21.2608 134.874 21.4653L134.901 21.9175L134.34 21.8841L132.571 21.9008Z" fill="white"/>
<path d="M134.339 21.8838L134.9 21.9172C134.889 22.6587 134.897 23.4005 134.922 24.1417L134.56 24.1132C134.279 23.8437 134.351 22.353 134.339 21.8838Z" fill="black"/>
<path d="M41.0156 10.0365L41.082 9.84886C41.5847 9.65756 43.8153 9.72762 44.3798 10.0082C44.587 10.1113 44.5495 10.1159 44.6988 10.3046C46.9413 11.3041 46.8267 14.9164 45.1147 16.2705C43.995 16.8973 42.3856 16.7613 41.1026 16.7265C40.8735 16.7257 40.8018 16.7359 40.6038 16.6276C40.4372 16.1836 40.4787 11.0994 40.5407 10.3831L41.0156 10.0365Z" fill="black"/>
<path d="M42.3128 10.9668C43.0032 11.01 44.2397 10.9958 44.7227 11.5187C45.8305 12.7183 45.4143 14.5115 44.2894 15.4812C43.6011 15.4492 43.0494 15.6004 42.2865 15.5343C42.2535 14.0226 42.229 12.4751 42.3128 10.9668Z" fill="white"/>
<path d="M41.0156 10.0366L41.09 10.3046C40.9632 11.8599 41.0743 14.5919 41.0695 16.2483L41.1026 16.7266C40.8735 16.7258 40.8018 16.736 40.6038 16.6276C40.4372 16.1837 40.4787 11.0995 40.5407 10.3831L41.0156 10.0366Z" fill="white"/>
<path d="M42.2861 15.5345C43.049 15.6007 43.6007 15.4495 44.2891 15.4814C44.0909 15.6987 43.9472 15.6032 43.8001 15.8384L43.8447 15.891L44.0632 15.7721L44.1501 16.0114L44.6633 16.1883C44.8146 16.2081 44.9718 16.2205 45.1146 16.2705C43.9948 16.8974 42.3854 16.7614 41.1024 16.7265L41.0693 16.2483L41.5369 16.1459C41.7415 15.9091 41.6788 15.8344 41.6933 15.4668L41.7599 15.5169L42.2861 15.5345Z" fill="black"/>
<path d="M42.286 15.5347C43.0489 15.6008 43.6006 15.4496 44.2889 15.4815C44.0908 15.6988 43.947 15.6034 43.7999 15.8385L43.8446 15.8912L44.0631 15.7723L44.1499 16.0115L44.6631 16.1884L44.6145 16.2007C44.1519 16.3223 42.4136 16.22 42.1874 15.7655C42.0862 15.5619 41.9895 15.5926 41.7598 15.517L42.286 15.5347Z" fill="black"/>
<path d="M41.6933 15.4666C41.774 14.1888 41.5835 12.3013 41.7392 11.0965C41.9394 10.9323 42.0172 10.9808 42.3124 10.9668C42.2287 12.4751 42.2532 14.0226 42.2862 15.5343L41.76 15.5166L41.6933 15.4666Z" fill="black"/>
<path d="M41.0156 10.0365L41.0819 9.84886C41.5847 9.65756 43.8153 9.72762 44.3797 10.0082C44.587 10.1113 44.5495 10.1159 44.6987 10.3046C43.4959 10.328 42.2928 10.328 41.09 10.3045L41.0156 10.0365Z" fill="black"/>
<path d="M85.0931 9.72085C85.3926 9.73639 85.4442 9.68779 85.6516 9.85513C85.7948 11.209 85.6829 15.2274 85.6687 16.7145C85.2914 16.7372 84.7584 16.8054 84.4206 16.6793L84.2368 16.6492C83.3472 16.6022 82.5914 17.0159 81.7133 16.5243C80.4244 15.8027 80.4017 13.677 81.0031 12.5092C81.3209 11.8922 81.8543 11.6619 82.5073 11.4834C82.8775 11.3807 83.545 11.438 83.949 11.4536C83.9772 10.9227 83.8371 10.3812 83.9991 9.88741C84.1873 9.67217 84.1636 9.73261 84.5086 9.70557L85.0931 9.72085Z" fill="black"/>
<path d="M85.0931 9.72085C85.3926 9.73639 85.4443 9.68779 85.6516 9.85513C85.7949 11.209 85.683 15.2274 85.6687 16.7145C85.2915 16.7372 84.7585 16.8054 84.4207 16.6793L84.5078 16.587C84.4614 15.7359 83.8081 16.5266 83.0049 15.62C83.2675 15.5998 83.5298 15.5768 83.7918 15.5509C84.0307 15.3672 83.9638 15.4063 84.0499 15.0661C83.9918 14.9205 84.0185 13.7377 83.9586 13.3213L84.3113 13.1407L84.4807 13.4199L84.4967 12.0421L84.4975 11.2425L83.949 11.4536C83.9772 10.9227 83.8371 10.3812 83.9992 9.88741C84.1873 9.67217 84.1637 9.73261 84.5086 9.70557L85.0931 9.72085Z" fill="black"/>
<path d="M85.0934 9.7207C85.3929 9.73624 85.4445 9.68765 85.6518 9.85499C85.7951 11.2089 85.6832 15.2272 85.6689 16.7144C85.2917 16.7371 84.7587 16.8052 84.4209 16.6792L84.508 16.5868C84.7291 16.6672 84.8106 16.7157 85.0283 16.6427C85.2118 16.2865 85.1162 10.5483 85.0934 9.7207Z" fill="white"/>
<path d="M83.959 13.3213L84.3117 13.1406L84.4811 13.4198L84.466 14.1653C84.5213 15.002 84.4114 14.9172 84.4077 15.5255L84.3397 15.5982C84.214 15.3649 84.1925 15.3197 84.1489 15.0602L84.0504 15.0661C83.9922 14.9205 84.0189 13.7377 83.959 13.3213Z" fill="black"/>
<path d="M84.3119 13.1406L84.4812 13.4198L84.4661 14.1653C84.4484 14.461 84.439 14.5525 84.3572 14.8399L84.2737 14.8028C84.1875 14.2869 84.1699 13.647 84.3119 13.1406Z" fill="white"/>
<path d="M83.9494 11.4536C83.9776 10.9227 83.8375 10.3812 83.9996 9.88741C84.1877 9.67217 84.1641 9.73261 84.509 9.70557L84.498 11.2425L83.9494 11.4536Z" fill="white"/>
<path d="M82.5056 15.6029C81.1415 15.084 81.5553 12.8697 82.8418 12.5421C83.0952 12.4758 83.3649 12.5174 83.5866 12.6569C83.9249 12.8667 83.856 12.9026 83.9586 13.3213C84.0185 13.7377 83.9918 14.9205 84.05 15.0661C83.9638 15.4063 84.0307 15.3672 83.7918 15.5509C83.5298 15.5768 83.2675 15.5998 83.0049 15.62C82.9223 15.5693 82.6222 15.5981 82.5056 15.6029Z" fill="white"/>
<path d="M84.498 11.2422L84.4971 12.0418C83.5881 12.0566 83.7639 12.0765 83.068 11.5133C82.8511 11.5016 82.6644 11.4915 82.5078 11.483C82.8779 11.3803 83.5455 11.4377 83.9495 11.4532L84.498 11.2422Z" fill="black"/>
<path d="M82.5059 15.6028C82.6225 15.598 82.9225 15.5692 83.0052 15.6199C83.8083 16.5265 84.4617 15.7358 84.508 16.5869L84.4209 16.6793L84.2371 16.6491C84.2017 16.6057 82.8647 15.8992 82.5059 15.6028Z" fill="white"/>
<path d="M150.82 25.6379C151.036 25.3398 151.278 25.0621 151.545 24.8081C152.384 23.9972 153.061 24.0282 154.129 24.0429C154.136 24.6536 154.115 25.3147 154.105 25.9293C151.262 25.9255 151.061 27.0499 151.001 29.5699C150.973 31.0663 151.024 32.6315 151.01 34.1497C150.354 34.1724 149.654 34.1541 148.994 34.1472C148.962 32.0334 148.972 29.8872 148.965 27.7708C148.962 26.9466 148.927 24.8523 149.047 24.0847C150.694 24.0915 151.179 23.8069 150.82 25.6379Z" fill="black"/>
<path d="M71.3025 11.4287C74.8958 11.169 74.8791 16.43 72.1791 16.7891C68.6688 16.9284 68.3004 12.4985 71.3025 11.4287Z" fill="black"/>
<path d="M71.2832 12.5381C72.8843 12.5411 73.369 13.755 72.815 15.1819C72.6638 15.5713 72.3773 15.6317 71.9916 15.7621C70.1425 15.9466 70.0758 13.3439 71.2832 12.5381Z" fill="white"/>
<path d="M91.5911 11.4487C94.7073 11.2956 95.2287 16.345 91.9913 16.8022C88.7574 16.8643 88.3915 12.0992 91.5911 11.4487Z" fill="black"/>
<path d="M91.5187 12.562C92.187 12.5404 92.7521 12.6022 92.9643 13.3304C93.2821 14.4203 93.0528 15.5064 91.9404 15.9215C90.2174 15.6272 89.8189 13.1256 91.5187 12.562Z" fill="white"/>
<path d="M49.9479 11.46C52.3798 11.6044 52.8538 14.3156 51.6623 16.092C51.2842 16.6558 50.6246 16.7279 49.9894 16.7786C47.2389 16.7651 46.7861 13.1432 48.7834 11.7968C49.1194 11.5703 49.5492 11.5121 49.9479 11.46Z" fill="black"/>
<path d="M49.5212 12.5589C50.5099 12.4165 50.6946 12.6445 51.2332 13.4266C51.2832 14.489 51.3882 15.2442 50.3612 15.846C48.502 16.2785 48.138 13.2954 49.5212 12.5589Z" fill="white"/>
<path d="M75.6227 13.1303L75.4833 12.9984C75.1599 11.4985 77.5117 11.1035 78.671 11.7777C79.6802 12.7119 79.426 14.0415 79.4037 15.3285C79.4225 15.8432 79.4325 16.2368 79.4046 16.7565C79.1549 16.744 78.3375 16.7261 78.1546 16.6471C76.705 16.7373 76.2273 17.1022 75.1338 15.9232C75.0775 14.9408 74.8549 14.3506 75.9531 14.0076C76.0181 13.8261 76.0278 13.7591 76.0564 13.5689C75.9873 13.3352 75.8265 13.262 75.6227 13.1303Z" fill="black"/>
<path d="M75.6227 13.1303L75.4834 12.9984C75.1599 11.4985 77.5118 11.1035 78.6711 11.7777C78.3624 12.0022 78.1802 12.1371 78.1186 12.5419C78.1141 12.572 78.1103 12.6022 78.1071 12.6324C76.9314 12.5938 76.7202 12.604 75.6227 13.1303Z" fill="black"/>
<path d="M75.6221 13.1301C76.7196 12.6038 76.9307 12.5936 78.1065 12.6322C78.115 13.0062 78.1315 13.4081 78.1189 13.7796C77.527 13.803 76.5078 13.8281 75.9525 14.0073C76.0175 13.8259 76.0272 13.7589 76.0558 13.5687C75.9867 13.335 75.8259 13.2617 75.6221 13.1301Z" fill="white"/>
<path d="M76.6484 14.8194L76.5335 14.5573C76.8948 14.1851 77.6297 14.3506 78.1413 14.3476L78.1024 15.5575L77.6129 15.5367C77.3024 15.5677 76.8385 15.5549 76.515 15.5549C76.289 15.3436 76.3098 15.4179 76.2285 15.159C76.3657 14.9208 76.3779 14.9671 76.6484 14.8194Z" fill="white"/>
<path d="M76.6484 14.8193C77.0456 14.8801 77.4058 14.8951 77.6848 15.1605C77.7037 15.4126 77.726 15.3229 77.6129 15.5366C77.3024 15.5677 76.8385 15.5549 76.515 15.5549C76.289 15.3435 76.3098 15.4179 76.2285 15.1589C76.3657 14.9207 76.3779 14.967 76.6484 14.8193Z" fill="white"/>
<path d="M78.103 15.5575C77.9079 15.573 77.7065 15.5676 77.554 15.6869C77.6103 16.1349 78.81 16.6274 79.2117 16.6285C79.3371 16.4472 79.3739 15.617 79.4036 15.3281C79.4224 15.8428 79.4324 16.2364 79.4045 16.7561C79.1549 16.7437 78.3374 16.7257 78.1546 16.6467C77.6914 16.2371 77.1572 16.0834 76.5936 15.8758L76.5156 15.5549C76.8392 15.5549 77.303 15.5677 77.6135 15.5366L78.103 15.5575Z" fill="white"/>
<path d="M114.414 11.8288C115.382 11.2503 115.969 11.2513 116.988 11.7849L117.355 12.1019C117.881 12.8645 117.883 13.4323 117.918 14.3599L117.622 14.5121C117.647 15.0678 117.872 14.8858 117.682 15.2321C116.857 15.5909 115.768 14.4467 115.066 15.1681C115.026 15.3016 114.98 15.4273 114.981 15.5668L114.843 15.585L115.142 15.7043L115.169 15.8385C115.002 15.9807 114.923 16.0435 114.737 16.1574C114.532 16.1898 114.338 16.1997 114.184 16.3366C114.159 16.3126 114.134 16.2881 114.11 16.263C112.91 15.0075 113.172 12.9902 114.414 11.8288Z" fill="black"/>
<path d="M117.918 14.3601L117.623 14.5122C117.647 15.0679 117.873 14.886 117.683 15.2323C116.857 15.5911 115.768 14.4469 115.066 15.1683C115.027 15.3017 114.98 15.4274 114.981 15.5669L114.844 15.5851C114.681 15.2175 114.674 14.7627 114.646 14.3574C115.631 14.3251 116.945 14.3149 117.918 14.3601Z" fill="white"/>
<path d="M115.391 12.5908C115.67 12.6039 116.182 12.6146 116.433 12.6707C116.431 13.0666 116.414 13.4511 116.502 13.8382C115.967 13.7904 115.173 13.7885 114.618 13.77C114.737 13.0508 114.635 12.7188 115.391 12.5908Z" fill="white"/>
<path d="M114.414 11.8288C115.382 11.2503 115.97 11.2513 116.988 11.7849C116.877 11.821 116.725 11.8813 116.614 11.8831C116.535 11.8145 116.387 11.7215 116.295 11.6594C115.944 11.6961 116.055 11.7553 115.747 11.9787C115.293 12.3083 115.069 11.952 114.414 11.8288Z" fill="black"/>
<path d="M116.614 11.8834C116.726 11.8816 116.878 11.8213 116.988 11.7852L117.355 12.1021C117.282 12.2026 117.044 12.5171 116.997 12.6068L116.433 12.671C116.183 12.6149 115.67 12.6042 115.392 12.5911C116.065 12.1233 115.775 12.8806 116.614 11.8834Z" fill="black"/>
<path d="M116.434 12.6706L116.997 12.6064C116.963 12.926 116.952 13.5384 116.84 13.7812C116.708 13.82 116.642 13.8469 116.502 13.8381C116.415 13.451 116.431 13.0665 116.434 12.6706Z" fill="black"/>
<path d="M26.5258 10.1499L26.7629 10.1542C26.8692 10.2396 26.9519 10.2849 26.9478 10.4479C26.8796 13.1248 25.2208 15.1376 22.5306 15.5539L22.2013 15.5305C21.5559 14.9117 22.5996 12.8898 23.0435 12.2928C23.9411 11.0857 25.0469 10.3889 26.5258 10.1499Z" fill="black"/>
<path d="M97.6405 11.4567C98.5355 11.4265 99.2218 11.7202 99.5422 12.5746C99.8325 13.3452 99.8394 16.0042 99.5405 16.681C99.2519 16.734 99.1918 16.7366 98.9023 16.6914C98.3097 16.0165 99.4048 13.3432 98.2109 12.6816C98.0176 12.5747 97.4937 12.5955 97.2652 12.5953C97.132 12.6078 97.0582 12.6552 96.9388 12.7138C96.475 13.3398 96.6004 15.8157 96.5995 16.6926L95.5147 16.7157C95.4013 15.1568 95.4554 13.2112 95.4898 11.6487C95.9793 11.6793 96.4793 11.8024 96.9646 11.8102C97.2746 11.8151 97.181 11.5944 97.6405 11.4567Z" fill="black"/>
<path d="M58.8001 12.2689C58.9256 11.9562 59.0478 11.5625 59.4183 11.479C59.9729 11.8188 59.573 13.3843 59.4484 13.9159L59.3419 13.9866L59.247 13.9012L59.1239 14.0219C59.2292 15.1617 58.793 15.7422 58.4158 16.6776C58.175 16.8255 58.2788 16.803 58.0034 16.775C57.376 16.4221 56.695 14.1366 56.4825 13.3806C56.4531 13.2746 56.426 13.1678 56.4014 13.0606C56.2362 13.7871 55.8915 14.9748 55.7753 15.6203C55.5338 15.3679 55.5186 15.3062 55.5596 14.9817C55.7506 14.1799 55.3121 12.2666 56.2572 11.5115C57.1677 11.4109 58.0537 14.5724 58.1834 15.3289C58.2959 14.5547 58.4736 13.0654 58.7313 12.3683L58.8001 12.2689Z" fill="black"/>
<path d="M58.8002 12.2689C58.9257 11.9562 59.0479 11.5625 59.4184 11.479C59.973 11.8188 59.5731 13.3843 59.4486 13.9159L59.3421 13.9866L59.2472 13.9012L59.124 14.0219C58.8912 13.5124 58.8222 12.9243 58.7314 12.3683L58.8002 12.2689Z" fill="black"/>
<path d="M58.7314 12.3685L58.8002 12.269C59.0172 12.5077 59.1558 13.4978 59.2472 13.9014L59.124 14.022C58.8912 13.5125 58.8222 12.9244 58.7314 12.3685Z" fill="white"/>
<path d="M107.772 9.74119L107.734 9.36805C107.883 9.1917 107.919 9.18491 108.143 9.12061C109.051 9.26485 108.958 9.94305 108.861 10.6636C108.86 11.1232 108.873 11.5827 108.9 12.0415C108.94 12.2067 109.018 12.4513 108.985 12.6078C109.031 12.7006 109.166 12.9843 109.222 13.0469C109.427 13.703 109.488 15.8748 109.266 16.5148C109.082 16.706 109.153 16.6507 108.829 16.6817C108.617 16.7388 107.99 16.7335 107.739 16.738C107.698 15.8487 107.625 10.3393 107.772 9.74119Z" fill="black"/>
<path d="M108.986 12.6079C109.032 12.7006 109.167 12.9844 109.223 13.047C109.428 13.7031 109.488 15.8749 109.267 16.5149C109.083 16.706 109.154 16.6507 108.829 16.6817L108.817 16.2041C108.821 15.1474 108.79 13.5979 108.986 12.6079Z" fill="white"/>
<path d="M107.772 9.74121C107.83 11.8311 107.791 14.0508 107.789 16.15L108.817 16.204L108.829 16.6817C108.617 16.7389 107.99 16.7335 107.739 16.738C107.698 15.8488 107.625 10.3393 107.772 9.74121Z" fill="black"/>
<path d="M107.773 9.74119L107.735 9.36805C107.884 9.1917 107.92 9.18491 108.144 9.12061C109.052 9.26485 108.959 9.94305 108.862 10.6636C108.849 10.3747 108.864 10.0748 108.725 9.82671C108.512 9.66933 108.061 9.72977 107.773 9.74119Z" fill="white"/>
<path d="M67.2714 16.7811C67.05 16.6294 66.893 16.8109 66.6637 16.5894C66.5004 14.7971 66.5389 11.7106 66.6498 9.89194C66.8036 9.68253 66.8825 9.72701 67.1892 9.66699C67.499 9.71344 67.54 9.66553 67.7289 9.86052C67.8482 11.1717 68.2174 15.7199 67.6887 16.6422C67.5106 16.7265 67.4664 16.7524 67.2714 16.7811Z" fill="black"/>
<path d="M67.2714 16.7811C67.05 16.6294 66.893 16.8109 66.6637 16.5894C66.5004 14.7971 66.5389 11.7106 66.6498 9.89194C66.8036 9.68253 66.8825 9.72701 67.1892 9.66699C67.1744 10.7538 67.0607 16.0696 67.2714 16.7811Z" fill="white"/>
<path d="M61.4181 16.7862L60.9659 16.6904C60.771 16.4262 60.7776 11.6862 61.0195 11.4668L61.2007 11.7382C61.4682 11.5763 61.1545 11.6676 61.508 11.4341C61.9328 11.6643 61.9833 12.002 62.4262 11.849C63.3199 11.5405 64.0733 11.0963 64.8746 11.9186C64.5048 12.0682 63.7686 12.1733 63.6416 12.5083C61.9099 12.9354 62.2964 13.1 61.9773 14.691C61.9919 15.391 61.9977 16.0485 61.8835 16.7437L61.4181 16.7862Z" fill="black"/>
<path d="M61.4181 16.7862L60.9659 16.6904C60.771 16.4262 60.7776 11.6862 61.0195 11.4668L61.2007 11.7382C61.4682 11.5763 61.1545 11.6676 61.508 11.4341C61.2752 11.8145 61.3331 16.1512 61.4181 16.7862Z" fill="white"/>
<path d="M61.8827 16.7435L61.597 16.6227C61.3333 16.1463 61.3582 12.6438 61.6489 12.1206L61.7537 12.1686C62.0501 12.935 61.8945 13.855 61.9764 14.6908C61.991 15.3908 61.9969 16.0482 61.8827 16.7435Z" fill="black"/>
<path d="M110.585 12.6349L110.708 12.2967C110.933 12.0303 111.198 11.9732 111.527 11.8608C112.35 12.9798 112.177 15.1773 112.196 16.6451C111.922 16.6755 111.482 16.7368 111.22 16.742C111.019 16.7417 110.92 16.7592 110.761 16.6385C110.349 15.701 111.047 13.1955 110.424 12.625L110.585 12.6349Z" fill="black"/>
<path d="M110.424 12.625L110.585 12.6349C110.705 12.6519 111.012 12.6696 111.033 12.7437C111.314 13.7354 111.155 15.7691 111.22 16.742C111.019 16.7417 110.92 16.7592 110.761 16.6385C110.349 15.7011 111.047 13.1955 110.424 12.625Z" fill="white"/>
<path d="M55.7758 15.62C55.6068 16.042 55.4473 16.4693 55.0384 16.6975C54.7665 16.7097 54.6025 16.6787 54.4465 16.4192C54.0248 15.7171 52.8849 12.0432 53.3907 11.5029C54.7336 11.5524 54.003 14.2378 54.8974 14.4634C55.4013 14.5905 55.2659 14.5646 55.5601 14.9814C55.5191 15.3059 55.5343 15.3676 55.7758 15.62Z" fill="black"/>
<path d="M53.7577 12.5112C54.0091 12.7176 53.9017 13.4633 53.8617 13.7708L53.737 13.774C53.6688 13.4233 53.7309 12.8839 53.7577 12.5112Z" fill="black"/>
<path d="M104.266 10.333L105.35 10.357L105.375 11.4076C105.722 11.4402 106.135 11.4686 106.474 11.5185C106.497 11.7997 106.575 12.2922 106.446 12.5148C106.274 12.6637 106.009 12.6232 105.772 12.6193L105.369 12.6252L104.247 12.6356L104.233 12.6869C104.139 12.6585 103.748 12.6227 103.628 12.6095C103.455 12.6249 103.391 12.6135 103.221 12.5917C102.936 12.2147 102.95 11.8874 103.258 11.5203L103.645 11.4914C103.735 11.4647 104.125 11.4311 104.24 11.4189L104.241 11.3331L104.266 10.333Z" fill="black"/>
<path d="M104.267 10.333L105.351 10.357L105.376 11.4076C105.723 11.4402 106.136 11.4686 106.474 11.5185C106.498 11.7997 106.576 12.2922 106.446 12.5148C106.274 12.6637 106.01 12.6232 105.773 12.6193L105.818 12.4547C105.764 12.0521 105.361 11.2647 105.13 10.9252L104.59 11.3406C104.457 11.3116 104.374 11.3238 104.241 11.3331L104.267 10.333Z" fill="black"/>
<path d="M103.645 11.4915C103.735 11.4648 104.125 11.4312 104.24 11.4189C104.229 11.7493 104.193 12.3316 104.247 12.6357L104.233 12.687C104.139 12.6586 103.748 12.6228 103.628 12.6095C103.455 12.625 103.391 12.6136 103.221 12.5918C102.936 12.2148 102.95 11.8875 103.258 11.5204L103.645 11.4915Z" fill="black"/>
<path d="M103.628 12.6097C103.455 12.6252 103.391 12.6138 103.221 12.592C102.936 12.215 102.95 11.8877 103.258 11.5206L103.645 11.4917L103.628 12.6097Z" fill="white"/>
<path d="M104.247 12.6355L105.37 12.625C105.366 13.4814 105.333 14.5812 105.39 15.4172C105.791 15.6968 106.242 15.9589 106.393 16.4339C106.125 17.3155 104.784 16.4835 104.372 15.9732C104.259 14.7884 104.244 13.8724 104.233 12.6867L104.247 12.6355Z" fill="black"/>
<path d="M63.6416 12.5081C63.7686 12.1732 64.5048 12.0681 64.8746 11.9185C65.6478 12.8596 65.4275 14.0858 65.3985 15.3211C65.4136 15.7599 65.3963 16.2942 65.3944 16.741L64.3786 16.7056C64.3786 16.0118 64.3404 14.3097 64.4298 13.6924C64.3001 13.0306 64.2571 12.8214 63.6416 12.5081Z" fill="black"/>
<path d="M64.4295 13.6924L64.4353 13.7132C64.6374 14.4692 64.226 15.7033 64.7055 16.1701C64.9399 16.2539 64.9781 16.2616 65.2149 16.1951C65.4088 15.9845 65.2343 15.7303 65.3981 15.3211C65.4132 15.7599 65.396 16.2942 65.3941 16.741L64.3782 16.7056C64.3782 16.0118 64.3401 14.3097 64.4295 13.6924Z" fill="black"/>
<path d="M116.34 15.5556C116.674 15.5198 117.381 15.4058 117.665 15.4995C117.804 15.805 117.809 15.6996 117.723 15.9722C117.476 16.1431 117.354 16.1952 117.087 16.3123C117.092 16.4011 117.101 16.4896 117.113 16.5777L116.876 16.6934C115.938 16.8324 114.981 16.8778 114.184 16.3366C114.337 16.1998 114.532 16.1898 114.737 16.1574C114.923 16.0435 115.002 15.9807 115.169 15.8385L115.142 15.7044L114.843 15.585L114.981 15.5668C115.434 15.5759 115.888 15.5721 116.34 15.5556Z" fill="black"/>
<path d="M116.341 15.5556C116.674 15.5198 117.381 15.4058 117.665 15.4995C117.804 15.805 117.81 15.6996 117.724 15.9722C117.476 16.1431 117.354 16.1952 117.087 16.3123C117.092 16.4011 117.101 16.4896 117.113 16.5777L116.877 16.6934C116.807 16.531 116.561 16.2945 116.431 16.1559L116.341 15.5556Z" fill="black"/>
<path d="M114.981 15.5669C115.435 15.576 115.888 15.5722 116.341 15.5557L116.431 16.156C115.788 16.067 115.381 16.1124 114.737 16.1575C114.924 16.0436 115.003 15.9808 115.169 15.8387L115.143 15.7045L114.844 15.5851L114.981 15.5669Z" fill="black"/>
<path d="M108.9 12.0418C108.959 12.023 109.14 11.9807 109.165 11.9368C109.57 11.2254 110.66 11.2586 111.262 11.6626C111.354 11.7248 111.442 11.791 111.527 11.8611C111.198 11.9734 110.933 12.0305 110.708 12.2969L110.586 12.6351L110.424 12.6252C110.098 12.6117 109.642 12.5521 109.375 12.7084C109.31 12.8278 109.256 12.9131 109.222 13.0472C109.167 12.9846 109.032 12.7008 108.985 12.6081C109.018 12.4516 108.94 12.207 108.9 12.0418Z" fill="black"/>
<path d="M66.1359 28.5859C66.3171 28.7672 66.3006 30.0189 66.3594 30.4417L66.244 30.4429C65.996 30.0046 66.1039 29.1028 66.1359 28.5859Z" fill="white"/>
</svg>
