<svg preserveAspectRatio="none" width="100%" height="100%" overflow="visible" style="display: block;" viewBox="0 0 26 26" fill="none" xmlns="http://www.w3.org/2000/svg">
<g id="language">
<mask id="mask0_1361_6237" style="mask-type:alpha" maskUnits="userSpaceOnUse" x="0" y="0" width="26" height="26">
<rect id="Bounding box" width="26" height="26" fill="var(--fill-0, #D9D9D9)"/>
</mask>
<g mask="url(#mask0_1361_6237)">
<path id="language_2" d="M9.00521 22.4802C7.75306 21.9393 6.66106 21.2028 5.72921 20.2708C4.79718 19.3389 4.06069 18.2469 3.51975 16.9948C2.97881 15.7426 2.70833 14.4082 2.70833 12.9916C2.70833 11.575 2.97881 10.2434 3.51975 8.99681C4.06069 7.75026 4.79718 6.66105 5.72921 5.72921C6.66106 4.79718 7.75306 4.06069 9.00521 3.51975C10.2574 2.97881 11.5918 2.70833 13.0084 2.70833C14.425 2.70833 15.7566 2.97881 17.0032 3.51975C18.2497 4.06069 19.3389 4.79718 20.2708 5.72921C21.2028 6.66105 21.9393 7.75026 22.4802 8.99681C23.0212 10.2434 23.2917 11.575 23.2917 12.9916C23.2917 14.4082 23.0212 15.7426 22.4802 16.9948C21.9393 18.2469 21.2028 19.3389 20.2708 20.2708C19.3389 21.2028 18.2497 21.9393 17.0032 22.4802C15.7566 23.0212 14.425 23.2917 13.0084 23.2917C11.5918 23.2917 10.2574 23.0212 9.00521 22.4802ZM13 21.6436C13.5529 20.9104 14.0182 20.1709 14.3959 19.425C14.7736 18.6791 15.0813 17.8638 15.3189 16.9791H10.6811C10.9326 17.8916 11.2438 18.7208 11.6147 19.4667C11.9854 20.2126 12.4471 20.9382 13 21.6436ZM10.9021 21.3457C10.4868 20.7499 10.1139 20.0725 9.78331 19.3137C9.45272 18.5546 9.19578 17.7764 9.01252 16.9791H5.33758C5.90976 18.1041 6.67712 19.0493 7.63967 19.8147C8.60221 20.5799 9.68969 21.0902 10.9021 21.3457ZM15.0979 21.3457C16.3103 21.0902 17.3978 20.5799 18.3603 19.8147C19.3229 19.0493 20.0902 18.1041 20.6624 16.9791H16.9875C16.7694 17.7833 16.495 18.5649 16.1644 19.324C15.834 20.083 15.4785 20.7569 15.0979 21.3457ZM4.65617 15.3541H8.68346C8.61539 14.9514 8.56601 14.5567 8.53531 14.1697C8.5048 13.783 8.48954 13.3931 8.48954 13C8.48954 12.6069 8.5048 12.217 8.53531 11.8303C8.56601 11.4433 8.61539 11.0486 8.68346 10.6459H4.65617C4.55199 11.0139 4.47218 11.3965 4.41675 11.7937C4.36114 12.1909 4.33333 12.593 4.33333 13C4.33333 13.407 4.36114 13.8091 4.41675 14.2063C4.47218 14.6035 4.55199 14.9861 4.65617 15.3541ZM10.3082 15.3541H15.6918C15.7597 14.9514 15.809 14.5602 15.8397 14.1803C15.8702 13.8004 15.8855 13.407 15.8855 13C15.8855 12.593 15.8702 12.1996 15.8397 11.8197C15.809 11.4398 15.7597 11.0486 15.6918 10.6459H10.3082C10.2403 11.0486 10.191 11.4398 10.1603 11.8197C10.1298 12.1996 10.1145 12.593 10.1145 13C10.1145 13.407 10.1298 13.8004 10.1603 14.1803C10.191 14.5602 10.2403 14.9514 10.3082 15.3541ZM17.3165 15.3541H21.3438C21.448 14.9861 21.5278 14.6035 21.5833 14.2063C21.6389 13.8091 21.6667 13.407 21.6667 13C21.6667 12.593 21.6389 12.1909 21.5833 11.7937C21.5278 11.3965 21.448 11.0139 21.3438 10.6459H17.3165C17.3846 11.0486 17.434 11.4433 17.4647 11.8303C17.4952 12.217 17.5105 12.6069 17.5105 13C17.5105 13.3931 17.4952 13.783 17.4647 14.1697C17.434 14.5567 17.3846 14.9514 17.3165 15.3541ZM16.9875 9.02092H20.6624C20.0834 7.88197 19.3213 6.93676 18.376 6.18529C17.4308 5.434 16.3381 4.92014 15.0979 4.64371C15.5132 5.27421 15.8826 5.96384 16.2061 6.7126C16.5299 7.46119 16.7903 8.23063 16.9875 9.02092ZM10.6811 9.02092H15.3189C15.0674 8.11525 14.751 7.28081 14.3699 6.5176C13.9885 5.7544 13.5319 5.03398 13 4.35635C12.4681 5.03398 12.0115 5.7544 11.6301 6.5176C11.249 7.28081 10.9326 8.11525 10.6811 9.02092ZM5.33758 9.02092H9.01252C9.20969 8.23063 9.47014 7.46119 9.79388 6.7126C10.1174 5.96384 10.4868 5.27421 10.9021 4.64371C9.65485 4.92014 8.56041 5.43581 7.61881 6.19071C6.67703 6.94543 5.91662 7.88883 5.33758 9.02092Z" fill="var(--fill-0, #002954)"/>
</g>
</g>
</svg>
