<svg width="74" height="74" viewBox="0 0 74 74" fill="none" xmlns="http://www.w3.org/2000/svg">
<path d="M34.6956 43.9903C34.6956 49.4827 31.8342 52.9394 27.2636 52.9394C22.693 52.9394 19.8316 49.4635 19.8316 43.9903C19.8316 38.4787 22.693 35.0219 27.2636 35.0219C31.8342 35.0219 34.6956 38.4787 34.6956 43.9903ZM41.0714 24.6133L39.0741 24.7477C37.9411 24.8245 37.4418 25.2278 37.4418 25.9576C37.4418 26.7257 38.0755 27.1482 38.9589 27.1482C40.1688 27.1482 41.0714 26.3609 41.0714 25.3046V24.6133ZM69.6471 37C69.6471 55.2247 55.2248 69.647 37.0001 69.647C18.7753 69.647 4.35303 55.2247 4.35303 37C4.35303 18.7752 18.7753 4.35291 37.0001 4.35291C55.2248 4.35291 69.6471 18.7752 69.6471 37ZM44.5665 24.21C44.5665 26.8602 46.026 28.4733 48.4074 28.4733C50.4238 28.4733 51.6913 27.3403 51.9025 25.7271H50.3278C50.1165 26.6105 49.4252 27.0906 48.4074 27.0906C47.0631 27.0906 46.2373 25.996 46.2373 24.21C46.2373 22.4432 47.0631 21.387 48.4074 21.387C49.4828 21.387 50.1549 22.0015 50.3278 22.7889H51.9025C51.6913 21.2142 50.4622 20.0235 48.4074 20.0235C46.026 20.0043 44.5665 21.6174 44.5665 24.21ZM22.6162 20.1771V28.3197H24.2293V23.3266C24.2293 22.2704 24.9783 21.4254 25.9577 21.4254C26.9179 21.4254 27.5324 22.0015 27.5324 22.9233V28.3197H29.1072V23.173C29.1072 22.1936 29.7793 21.4254 30.8356 21.4254C31.8918 21.4254 32.4103 21.9631 32.4103 23.0962V28.3197H34.0234V22.6929C34.0234 21.0029 33.0632 20.0043 31.4117 20.0043C30.2786 20.0043 29.3376 20.5804 28.9343 21.4638H28.7999C28.435 20.5804 27.6669 20.0043 26.553 20.0043C25.4584 20.0043 24.6326 20.542 24.2869 21.4638H24.1717V20.1579L22.6162 20.1771ZM37.557 43.9903C37.557 36.9039 33.601 32.4486 27.2636 32.4486C20.9262 32.4486 16.9702 36.9039 16.9702 43.9903C16.9702 51.0766 20.9262 55.5128 27.2636 55.5128C33.601 55.5128 37.557 51.0574 37.557 43.9903ZM38.5556 28.4541C39.6311 28.4541 40.5144 27.9932 41.0138 27.1674H41.1482V28.3197H42.7037V22.7505C42.7037 21.0413 41.5515 20.0235 39.4966 20.0235C37.6338 20.0235 36.3279 20.9261 36.1551 22.2896H37.7106C37.8835 21.6943 38.5172 21.3678 39.4198 21.3678C40.5144 21.3678 41.0906 21.8671 41.0906 22.7697V23.4802L38.8821 23.6147C36.9425 23.7299 35.8478 24.5749 35.8478 26.0536C35.8286 27.5131 36.9809 28.4541 38.5556 28.4541ZM56.1658 48.7913C56.1658 45.6226 54.3222 43.779 49.6748 42.7612L47.1975 42.2235C44.144 41.5513 42.9534 40.3415 42.9534 38.5939C42.9534 36.3278 45.1042 34.9643 47.8888 34.9643C50.8079 34.9643 52.7283 36.4622 52.9779 38.9204H55.7625C55.6281 35.1372 52.421 32.4678 47.9657 32.4678C43.3375 32.4678 40.092 35.0603 40.092 38.7283C40.092 41.897 42.0316 43.9327 46.5061 44.9121L48.9835 45.4498C52.0753 46.1219 53.3236 47.3702 53.3236 49.233C53.3236 51.4223 51.1151 53.0162 48.1001 53.0162C44.893 53.0162 42.6653 51.5567 42.3388 49.1562H39.5542C39.8231 53.0162 43.0686 55.5128 47.9465 55.5128C52.9203 55.5128 56.1658 52.9202 56.1658 48.7913Z" fill="#002954"/>
</svg>
