<svg width="28" height="28" viewBox="0 0 28 28" fill="none" xmlns="http://www.w3.org/2000/svg">
<mask id="mask0_2121_17511" style="mask-type:alpha" maskUnits="userSpaceOnUse" x="0" y="0" width="28" height="28">
<rect width="27.8571" height="27.8571" fill="#D9D9D9"/>
</mask>
<g mask="url(#mask0_2121_17511)">
<path d="M15.6484 24.9553C13.7164 24.9553 12.0706 24.2778 10.711 22.9229C9.35139 21.5679 8.6716 19.924 8.6716 17.991V17.357C7.10463 17.1533 5.79399 16.4546 4.73968 15.261C3.68536 14.0676 3.1582 12.6562 3.1582 11.0267V5.40189C3.1582 5.10456 3.2587 4.85539 3.4597 4.6544C3.66089 4.4532 3.91006 4.35261 4.2072 4.35261H6.64035V4.06243C6.64035 3.81578 6.72382 3.60907 6.89077 3.44232C7.05772 3.27537 7.26452 3.19189 7.51117 3.19189C7.75802 3.19189 7.96472 3.27537 8.13128 3.44232C8.29804 3.60907 8.38142 3.81578 8.38142 4.06243V6.38386C8.38142 6.63051 8.29794 6.83731 8.13099 7.00426C7.96404 7.17102 7.75715 7.25439 7.5103 7.25439C7.26365 7.25439 7.05695 7.17102 6.89019 7.00426C6.72363 6.83731 6.64035 6.63051 6.64035 6.38386V6.09368H4.89927V11.0267C4.89927 12.3035 5.35389 13.3965 6.26311 14.3057C7.17234 15.215 8.26535 15.6696 9.54213 15.6696C10.8189 15.6696 11.9119 15.215 12.8211 14.3057C13.7304 13.3965 14.185 12.3035 14.185 11.0267V6.09368H12.4439V6.38386C12.4439 6.63051 12.3604 6.83731 12.1935 7.00426C12.0265 7.17102 11.8196 7.25439 11.5728 7.25439C11.3261 7.25439 11.1194 7.17102 10.9527 7.00426C10.7861 6.83731 10.7028 6.63051 10.7028 6.38386V4.06243C10.7028 3.81578 10.7863 3.60907 10.9533 3.44232C11.12 3.27537 11.3268 3.19189 11.5737 3.19189C11.8203 3.19189 12.027 3.27537 12.1938 3.44232C12.3605 3.60907 12.4439 3.81578 12.4439 4.06243V4.35261H14.8768C15.1741 4.35261 15.4233 4.4532 15.6243 4.6544C15.8255 4.85539 15.9261 5.10456 15.9261 5.40189V11.0267C15.9261 12.6562 15.3989 14.0676 14.3446 15.261C13.2903 16.4546 11.9796 17.1533 10.4127 17.357V17.991C10.4127 19.4419 10.9215 20.6752 11.9393 21.6908C12.9571 22.7064 14.1929 23.2142 15.6469 23.2142C17.0978 23.2142 18.3311 22.7064 19.3467 21.6908C20.3623 20.6752 20.8701 19.4419 20.8701 17.991V16.1138C20.26 15.9219 19.7578 15.5672 19.3635 15.0498C18.9691 14.5323 18.7718 13.9427 18.7718 13.2811C18.7718 12.4566 19.0607 11.7557 19.6383 11.1785C20.2158 10.6012 20.917 10.3126 21.7421 10.3126C22.567 10.3126 23.2678 10.6012 23.8445 11.1785C24.4211 11.7557 24.7095 12.4566 24.7095 13.2811C24.7095 13.9427 24.5123 14.5323 24.1178 15.0498C23.7235 15.5672 23.2213 15.9219 22.6112 16.1138V17.991C22.6112 19.924 21.9337 21.5679 20.5788 22.9229C19.2238 24.2778 17.5804 24.9553 15.6484 24.9553ZM22.6124 14.1528C22.8497 13.9154 22.9684 13.6249 22.9684 13.2811C22.9684 12.9373 22.8497 12.6469 22.6124 12.4097C22.375 12.1723 22.0844 12.0537 21.7407 12.0537C21.3969 12.0537 21.1063 12.1723 20.869 12.4097C20.6316 12.6469 20.5129 12.9373 20.5129 13.2811C20.5129 13.6249 20.6316 13.9154 20.869 14.1528C21.1063 14.3902 21.3969 14.5089 21.7407 14.5089C22.0844 14.5089 22.375 14.3902 22.6124 14.1528Z" fill="#002954"/>
</g>
</svg>
