<svg width="41" height="41" viewBox="0 0 41 41" fill="none" xmlns="http://www.w3.org/2000/svg">
<path d="M36.7372 23.4272C36.7938 23.8068 36.8315 24.2052 36.8315 24.5848C36.8315 27.6688 35.0254 30.5193 31.7741 32.6484C28.5982 34.7209 24.4155 35.8621 19.9663 35.8621C15.5172 35.8621 11.3156 34.7209 8.15858 32.6484C4.88599 30.5193 3.10115 27.6688 3.10115 24.5848C3.10115 24.1675 3.13888 23.7502 3.19546 23.3305C1.99771 22.5713 1.17957 21.2203 1.17957 19.6972C1.17957 17.3229 3.10115 15.4013 5.47543 15.4013C6.54115 15.4013 7.53142 15.8021 8.29062 16.4481C11.3345 14.5077 15.3074 13.4042 19.5466 13.3264L22.0954 5.28642C22.2086 4.92568 22.5905 4.71584 22.9701 4.79129L29.5696 6.34978C30.1189 5.09544 31.3756 4.2207 32.8209 4.2207C34.7802 4.2207 36.3576 5.81928 36.3576 7.75973C36.3576 9.71668 34.7802 11.3153 32.8209 11.3153C30.8805 11.3153 29.3031 9.73554 29.2843 7.79745L23.2932 6.38986L21.0886 13.3477C25.0992 13.5174 28.8457 14.6232 31.7364 16.5047C32.4956 15.821 33.5047 15.4013 34.6081 15.4013C36.9824 15.4013 38.904 17.3229 38.904 19.6972C38.904 21.2957 38.0293 22.6845 36.7372 23.4272ZM3.61279 21.8097C4.2211 20.1758 5.38112 18.6527 7.03393 17.3394C6.60009 17.0376 6.04602 16.8655 5.47543 16.8655C3.91694 16.8655 2.64374 18.1387 2.64374 19.6972C2.64374 20.5365 3.02335 21.2957 3.61279 21.8097ZM35.3673 24.5848C35.3673 22.0384 33.8065 19.6052 30.9748 17.7567C28.0464 15.8563 24.1302 14.793 19.9663 14.793C15.8025 14.793 11.8839 15.8587 8.95551 17.7567C6.12147 19.6028 4.56297 22.0361 4.56297 24.5848C4.56297 27.1524 6.12147 29.5857 8.95551 31.4318C11.8839 33.3322 15.8001 34.3979 19.964 34.3979C24.1278 34.3979 28.0464 33.3322 30.9724 31.4318C33.8065 29.5857 35.3673 27.1524 35.3673 24.5848ZM14.376 25.1365C12.9496 25.1365 11.733 23.9765 11.733 22.5501C11.733 21.1071 12.9496 19.907 14.376 19.907C15.8025 19.907 16.9814 21.1071 16.9814 22.5501C16.9814 23.9765 15.8025 25.1365 14.376 25.1365ZM26.1272 28.9231C26.4125 29.2061 26.4125 29.6823 26.1272 29.9676C24.854 31.2408 22.8758 31.8491 20.0606 31.8491H20.0229C17.2077 31.8491 15.2296 31.2408 13.9564 29.9676C13.6711 29.6823 13.6711 29.2061 13.9564 28.9231C14.2416 28.6355 14.6967 28.6355 14.9843 28.9231C15.9723 29.911 17.6086 30.385 20.0229 30.385H20.0606C22.4585 30.385 24.1113 29.911 25.0992 28.9231C25.3845 28.6355 25.8396 28.6355 26.1272 28.9231ZM28.3506 22.5501C28.3506 23.9742 27.1717 25.1365 25.7452 25.1365C24.3188 25.1365 23.1022 23.9765 23.1022 22.5501C23.1022 21.1071 24.3188 19.907 25.7452 19.907C27.1717 19.907 28.3506 21.1071 28.3506 22.5501ZM30.7461 7.75973C30.7461 8.89617 31.6774 9.82985 32.8186 9.82985C33.9597 9.82985 34.8911 8.89617 34.8911 7.75973C34.8911 6.61856 33.9574 5.68488 32.8186 5.68488C31.6774 5.68488 30.7461 6.61856 30.7461 7.75973ZM37.4398 19.6972C37.4398 18.1387 36.1666 16.8655 34.6081 16.8655C33.9998 16.8655 33.4292 17.0564 32.9718 17.3983C34.6081 18.7116 35.7658 20.2512 36.3576 21.9252C37.0225 21.39 37.4398 20.5907 37.4398 19.6972Z" fill="white"/>
</svg>
