<svg width="44" height="44" viewBox="0 0 44 44" fill="none" xmlns="http://www.w3.org/2000/svg">
<path d="M21.0959 7.78125C15.3887 7.78125 10.0293 8.21351 7.17576 8.818C5.2745 9.25026 3.62989 10.547 3.28543 12.5361C2.94097 14.6096 2.59314 17.7232 2.59314 21.6135C2.59314 25.5039 2.9376 28.5297 3.36986 30.691C3.71769 32.5922 5.35892 33.9768 7.26019 34.4091C10.2894 35.0136 15.4731 35.4458 21.1803 35.4458C26.8874 35.4458 32.0712 35.0136 35.097 34.4091C37.0016 33.9768 38.6429 32.68 38.9873 30.691C39.3352 28.5297 39.7674 25.4194 39.8518 21.5291C39.8518 17.6388 39.4196 14.5252 38.9873 12.3639C38.6429 10.4626 37.0016 9.07803 35.097 8.64577C32.0712 8.21351 26.7996 7.78125 21.0959 7.78125ZM21.0959 9.51029C27.3197 9.51029 32.3312 10.027 34.7525 10.4592C36.0493 10.8071 37.0861 11.6716 37.2583 12.7961C37.7784 15.5619 38.1228 18.5033 38.1228 21.5291C38.0384 25.2438 37.6061 28.2697 37.2583 30.4309C37.0016 32.0722 35.2726 32.5922 34.7525 32.7678C31.6389 33.3723 26.4518 33.8012 21.2647 33.8012C16.0776 33.8012 10.8061 33.4568 7.78025 32.7678C6.48347 32.42 5.44672 31.5555 5.2745 30.4309C4.58221 28.0096 4.32218 24.8116 4.32218 21.6135C4.32218 17.6354 4.67001 14.6974 5.01447 12.8839C5.2745 11.2393 7.08796 10.7193 7.52022 10.547C10.3738 9.94255 15.6487 9.51029 21.0959 9.51029ZM16.4254 14.6974V28.5297L28.5287 21.6135L16.4254 14.6974ZM18.1545 17.6388L25.0706 21.6135L18.1545 25.5883V17.6388Z" fill="white"/>
</svg>
