<svg width="61" height="61" viewBox="0 0 61 61" fill="none" xmlns="http://www.w3.org/2000/svg">
<path d="M57.7332 16.9847H30.3909C27.758 16.9847 25.3806 17.8351 23.2585 19.1067C19.6067 21.4 17.145 25.4757 16.9738 30.0594L6.44499 11.8031C12.0504 4.67072 20.6256 0 30.3909 0C42.3625 0 52.8071 6.96396 57.7332 16.982V16.9847ZM5.08915 13.5041L18.6747 37.1103C18.7589 37.1946 18.759 37.2815 18.8459 37.3657C20.036 39.4878 21.9027 41.186 24.1117 42.3761C26.0653 43.3108 28.1031 43.9901 30.3963 43.9901C32.6896 43.9901 34.8117 43.3108 36.7653 42.3761L26.1522 60.6324C11.3766 58.5103 0 45.8567 0 30.4887C0 24.204 1.86937 18.3459 5.09459 13.5068L5.08915 13.5041ZM37.526 19.1095H58.6679C60.0265 22.5901 60.8769 26.4973 60.8769 30.4887C60.8769 47.3022 47.2071 60.8878 30.3936 60.8878C29.7143 60.8878 29.1193 60.8878 28.44 60.8036L42.0256 37.3685C42.1098 37.2842 42.1098 37.1973 42.1968 37.113C43.2999 35.0752 43.895 32.8662 43.895 30.4887V30.0649C43.7238 25.4784 41.1778 21.4027 37.526 19.1122V19.1095ZM20.2887 30.486C20.2887 24.7964 24.704 20.2968 30.3936 20.2968C36.0833 20.2968 40.5828 24.7964 40.5828 30.486C40.5828 36.1756 36.0833 40.6752 30.3936 40.6752C24.704 40.6752 20.2887 36.1756 20.2887 30.486Z" fill="#002954"/>
</svg>
