<svg width="65" height="77" viewBox="0 0 65 77" fill="none" xmlns="http://www.w3.org/2000/svg">
<path d="M42.6226 6.38584L43.4563 5.13526L44.29 3.91446L46.1361 1.14532C46.3743 0.817788 46.2849 0.341374 45.9276 0.132945C45.6001 -0.105261 45.1237 -0.01593 44.9153 0.341378L42.9502 3.28917L42.1165 4.53975L41.2828 5.79032C38.603 4.74817 35.6553 4.18244 32.4992 4.18244C29.3728 4.18244 26.3953 4.74817 23.7156 5.79032L22.8819 4.53975L22.0482 3.28917L20.0831 0.341378C19.8449 0.0138456 19.3983 -0.075485 19.0707 0.132945C18.7432 0.37115 18.6539 0.817788 18.8623 1.14532L20.7084 3.91446L21.5421 5.13526L22.3757 6.38584C16.123 9.30385 11.8652 14.8124 11.8652 21.1546H53.1629C53.1331 14.8124 48.9051 9.30385 42.6226 6.38584ZM23.6263 15.2292C22.4055 15.2292 21.423 14.2466 21.423 13.0258C21.423 11.805 22.4055 10.8224 23.6263 10.8224C24.8471 10.8224 25.8296 11.805 25.8296 13.0258C25.8296 14.2466 24.8471 15.2292 23.6263 15.2292ZM41.3125 15.2292C40.0918 15.2292 39.1092 14.2466 39.1092 13.0258C39.1092 11.805 40.0918 10.8224 41.3125 10.8224C42.5333 10.8224 43.5159 11.805 43.5159 13.0258C43.5456 14.2466 42.5631 15.2292 41.3125 15.2292Z" fill="#002954"/>
<path d="M12.0873 24.0714L11.7598 24.1012V27.7636V30.7709V56.5567C11.7598 59.1472 13.844 61.2315 16.4344 61.2315H19.799C19.6799 61.6185 19.6203 62.0354 19.6203 62.4523V62.6905V64.1792V71.8018C19.6203 74.2434 21.6152 76.2384 24.0568 76.2384C26.4983 76.2384 28.4932 74.2434 28.4932 71.8018V64.1792V62.6905V62.4523C28.4932 62.0354 28.4337 61.6185 28.3146 61.2315H36.5324C36.4133 61.6185 36.3538 62.0354 36.3538 62.4523V62.6905V64.1792V71.8018C36.3538 74.2434 38.3487 76.2384 40.7902 76.2384C43.2318 76.2384 45.2267 74.2434 45.2267 71.8018V64.1792V62.6905V62.4523C45.2267 62.0354 45.1671 61.6185 45.048 61.2315H48.4126C51.003 61.2315 53.0872 59.1472 53.0872 56.5567V30.7709V27.7636V24.0714H52.7597H12.0873Z" fill="#002954"/>
<path d="M4.43645 24.1012C1.99491 24.1012 0 26.0962 0 28.5378V47.4751C0 49.9167 1.99491 51.9117 4.43645 51.9117C6.87798 51.9117 8.8729 49.9167 8.8729 47.4751V28.5378C8.84312 26.0664 6.87798 24.1012 4.43645 24.1012Z" fill="#002954"/>
<path d="M60.5048 24.1012C58.0633 24.1012 56.0684 26.0962 56.0684 28.5378V47.4751C56.0684 49.9167 58.0633 51.9117 60.5048 51.9117C62.9463 51.9117 64.9413 49.9167 64.9413 47.4751V28.5378C64.9115 26.0664 62.9463 24.1012 60.5048 24.1012Z" fill="#002954"/>
</svg>
