<svg width="63" height="73" viewBox="0 0 63 73" fill="none" xmlns="http://www.w3.org/2000/svg">
<path d="M62.5167 53.3581C60.81 57.1434 59.9876 58.8336 57.7892 62.1808C54.7229 66.8505 50.3921 72.669 45.0323 72.7186C40.2718 72.7599 39.0486 69.6192 32.5813 69.6564C26.1181 69.6895 24.771 72.7764 20.0063 72.731C14.6465 72.6814 10.543 67.429 7.47257 62.7553C-1.11051 49.6967 -2.00725 34.3654 3.28641 26.2121C7.04693 20.4225 12.9852 17.0339 18.564 17.0339C24.2462 17.0339 27.8207 20.1498 32.5152 20.1498C37.0732 20.1498 39.8502 17.0257 46.4208 17.0257C51.3798 17.0257 56.6445 19.7324 60.3926 24.4021C48.111 31.1338 50.1028 48.6719 62.5167 53.3581ZM41.4371 11.8105C43.8215 8.74425 45.6357 4.42171 44.9786 0C41.0776 0.268609 36.5195 2.74807 33.8541 5.98378C31.4407 8.91781 29.4448 13.2693 30.2175 17.5009C34.4739 17.629 38.8791 15.0875 41.4371 11.8105Z" fill="#002954"/>
</svg>
