<svg width="74" height="74" viewBox="0 0 74 74" fill="none" xmlns="http://www.w3.org/2000/svg">
<path d="M34.6941 43.9903C34.6941 49.4827 31.8327 52.9394 27.2621 52.9394C22.6915 52.9394 19.8301 49.4635 19.8301 43.9903C19.8301 38.4787 22.6915 35.0219 27.2621 35.0219C31.8327 35.0219 34.6941 38.4787 34.6941 43.9903ZM41.0699 24.6133L39.0727 24.7477C37.9396 24.8245 37.4403 25.2278 37.4403 25.9576C37.4403 26.7257 38.0741 27.1482 38.9574 27.1482C40.1673 27.1482 41.0699 26.3609 41.0699 25.3046V24.6133ZM69.6457 37C69.6457 55.2247 55.2234 69.647 36.9986 69.647C18.7739 69.647 4.35156 55.2247 4.35156 37C4.35156 18.7752 18.7739 4.35291 36.9986 4.35291C55.2234 4.35291 69.6457 18.7752 69.6457 37ZM44.5651 24.21C44.5651 26.8602 46.0246 28.4733 48.4059 28.4733C50.4223 28.4733 51.6898 27.3403 51.901 25.7271H50.3263C50.1151 26.6105 49.4237 27.0906 48.4059 27.0906C47.0616 27.0906 46.2358 25.996 46.2358 24.21C46.2358 22.4432 47.0616 21.387 48.4059 21.387C49.4813 21.387 50.1535 22.0015 50.3263 22.7889H51.901C51.6898 21.2142 50.4607 20.0235 48.4059 20.0235C46.0246 20.0043 44.5651 21.6174 44.5651 24.21ZM22.6147 20.1771V28.3197H24.2279V23.3266C24.2279 22.2704 24.9768 21.4254 25.9562 21.4254C26.9164 21.4254 27.531 22.0015 27.531 22.9233V28.3197H29.1057V23.173C29.1057 22.1936 29.7779 21.4254 30.8341 21.4254C31.8903 21.4254 32.4088 21.9631 32.4088 23.0962V28.3197H34.022V22.6929C34.022 21.0029 33.0618 20.0043 31.4102 20.0043C30.2772 20.0043 29.3362 20.5804 28.9329 21.4638H28.7984C28.4336 20.5804 27.6654 20.0043 26.5516 20.0043C25.4569 20.0043 24.6311 20.542 24.2855 21.4638H24.1702V20.1579L22.6147 20.1771ZM37.5555 43.9903C37.5555 36.9039 33.5995 32.4486 27.2621 32.4486C20.9247 32.4486 16.9687 36.9039 16.9687 43.9903C16.9687 51.0766 20.9247 55.5128 27.2621 55.5128C33.5995 55.5128 37.5555 51.0574 37.5555 43.9903ZM38.5542 28.4541C39.6296 28.4541 40.513 27.9932 41.0123 27.1674H41.1467V28.3197H42.7023V22.7505C42.7023 21.0413 41.55 20.0235 39.4952 20.0235C37.6324 20.0235 36.3265 20.9261 36.1536 22.2896H37.7092C37.882 21.6943 38.5158 21.3678 39.4183 21.3678C40.513 21.3678 41.0891 21.8671 41.0891 22.7697V23.4802L38.8806 23.6147C36.941 23.7299 35.8464 24.5749 35.8464 26.0536C35.8272 27.5131 36.9794 28.4541 38.5542 28.4541ZM56.1644 48.7913C56.1644 45.6226 54.3208 43.779 49.6734 42.7612L47.196 42.2235C44.1426 41.5513 42.9519 40.3415 42.9519 38.5939C42.9519 36.3278 45.1028 34.9643 47.8874 34.9643C50.8064 34.9643 52.7268 36.4622 52.9765 38.9204H55.7611C55.6267 35.1372 52.4196 32.4678 47.9642 32.4678C43.336 32.4678 40.0905 35.0603 40.0905 38.7283C40.0905 41.897 42.0301 43.9327 46.5047 44.9121L48.982 45.4498C52.0739 46.1219 53.3222 47.3702 53.3222 49.233C53.3222 51.4223 51.1137 53.0162 48.0986 53.0162C44.8915 53.0162 42.6638 51.5567 42.3374 49.1562H39.5528C39.8216 53.0162 43.0671 55.5128 47.945 55.5128C52.9189 55.5128 56.1644 52.9202 56.1644 48.7913Z" fill="#002954"/>
</svg>
