<svg width="44" height="44" viewBox="0 0 44 44" fill="none" xmlns="http://www.w3.org/2000/svg">
<path d="M16.3444 6.05389C16.3444 6.05389 10.8399 6.43212 7.23997 9.32285C7.22309 9.3296 7.20282 9.33974 7.18594 9.34987C6.56118 9.92734 6.09179 10.8223 5.51093 12.1055C4.93009 13.3888 4.31547 15.0402 3.75488 16.8874C2.63708 20.5852 1.72867 25.1239 1.72867 29.3959C1.72529 29.5478 1.76243 29.6964 1.83673 29.8281C3.09974 32.0468 5.42313 33.3875 7.59118 34.2318C9.75923 35.076 11.7618 35.4137 12.7783 35.4475C13.0653 35.4576 13.3389 35.3259 13.5077 35.0963L15.615 32.1785C17.3136 32.5804 19.3061 32.854 21.6126 32.854C23.9191 32.854 25.9115 32.5804 27.6102 32.1785L29.7174 35.0963C29.8863 35.3259 30.1598 35.4576 30.4469 35.4475C31.4634 35.4137 33.4659 35.076 35.634 34.2318C37.802 33.3875 40.1254 32.0468 41.3884 29.8281C41.4627 29.6964 41.4999 29.5478 41.4965 29.3959C41.4965 25.1239 40.5881 20.5852 39.4703 16.8874C38.9097 15.0402 38.2951 13.3888 37.7142 12.1055C37.1334 10.8223 36.664 9.92734 36.0392 9.34987C36.0223 9.33974 36.0021 9.3296 35.9852 9.32285C32.3853 6.43212 26.8807 6.05389 26.8807 6.05389C26.8166 6.04714 26.7558 6.04714 26.6916 6.05389C26.3911 6.09442 26.1378 6.29029 26.0162 6.5672C26.0162 6.5672 25.7224 7.21221 25.5299 8.13414C23.8448 7.86398 22.4264 7.78293 21.6126 7.78293C20.7987 7.78293 19.3804 7.86398 17.6952 8.13414C17.5027 7.21221 17.2089 6.5672 17.2089 6.5672C17.0604 6.2295 16.7125 6.0235 16.3444 6.05389ZM15.8041 7.91801C15.8683 8.09362 15.9122 8.25909 15.9662 8.45833C14.0177 8.91086 11.8834 9.65043 9.88756 10.8898C9.57349 11.0215 9.3675 11.3254 9.35736 11.6665C9.35061 12.0042 9.5431 12.3183 9.84704 12.4669C10.1543 12.6121 10.5191 12.5682 10.7791 12.3487C14.7842 9.86655 19.8802 9.51196 21.6126 9.51196C23.345 9.51196 28.4409 9.86655 32.4461 12.3487C32.7061 12.5682 33.0708 12.6121 33.3781 12.4669C33.6821 12.3183 33.8746 12.0042 33.8678 11.6665C33.8577 11.3254 33.6517 11.0215 33.3376 10.8898C31.3418 9.65043 29.2075 8.91086 27.259 8.45833C27.313 8.25909 27.3569 8.09362 27.4211 7.91801C28.4072 8.03959 32.2401 8.55627 34.8505 10.6196C35.0194 10.775 35.607 11.6395 36.1473 12.835C36.6876 14.0304 37.255 15.5872 37.7953 17.3737C38.8489 20.8588 39.6999 25.1577 39.7405 29.0987C38.7578 30.6893 36.9139 31.8712 35.0126 32.6108C33.2836 33.2828 31.6694 33.5834 30.8251 33.6644L29.3662 31.6923C30.1092 31.4525 30.7778 31.1925 31.3654 30.9358C33.547 29.9767 34.7155 28.9636 34.7155 28.9636C35.0734 28.6428 35.1038 28.0924 34.783 27.7344C34.4622 27.3764 33.9117 27.346 33.5538 27.6669C33.5538 27.6669 32.6487 28.4942 30.663 29.3689C29.9336 29.6897 29.0488 30.0071 28.0425 30.2874C27.8095 30.2604 27.5764 30.328 27.3941 30.4765C25.7832 30.8683 23.8685 31.1249 21.6126 31.1249C19.3399 31.1249 17.4217 30.8446 15.8041 30.4495C15.6218 30.328 15.3989 30.2773 15.1828 30.3144C14.173 30.0341 13.295 29.6897 12.5622 29.3689C10.5765 28.4942 9.67145 27.6669 9.67145 27.6669C9.47559 27.4845 9.20543 27.4068 8.94202 27.4507C8.60769 27.5014 8.33078 27.7411 8.23959 28.0687C8.14504 28.3929 8.25311 28.7441 8.50976 28.9636C8.50976 28.9636 9.6782 29.9767 11.8598 30.9358C12.4474 31.1925 13.116 31.4525 13.859 31.6923L12.4001 33.6644C11.5558 33.5834 9.94161 33.2828 8.21258 32.6108C6.31131 31.8712 4.46746 30.6893 3.48474 29.0987C3.52527 25.1577 4.37628 20.8588 5.42991 17.3737C5.97023 15.5872 6.53757 14.0304 7.0779 12.835C7.61822 11.6395 8.20583 10.775 8.37468 10.6196C10.9851 8.55627 14.818 8.03959 15.8041 7.91801ZM15.9932 18.1571C13.788 18.1571 12.1029 20.1597 12.1029 22.4797C12.1029 24.7997 13.788 26.8023 15.9932 26.8023C18.1984 26.8023 19.8835 24.7997 19.8835 22.4797C19.8835 20.1597 18.1984 18.1571 15.9932 18.1571ZM27.232 18.1571C25.0268 18.1571 23.3416 20.1597 23.3416 22.4797C23.3416 24.7997 25.0268 26.8023 27.232 26.8023C29.4371 26.8023 31.1223 24.7997 31.1223 22.4797C31.1223 20.1597 29.4371 18.1571 27.232 18.1571ZM15.9932 19.8862C17.1313 19.8862 18.1545 20.9803 18.1545 22.4797C18.1545 23.9791 17.1313 25.0733 15.9932 25.0733C14.8552 25.0733 13.8319 23.9791 13.8319 22.4797C13.8319 20.9803 14.8552 19.8862 15.9932 19.8862ZM27.232 19.8862C28.37 19.8862 29.3932 20.9803 29.3932 22.4797C29.3932 23.9791 28.37 25.0733 27.232 25.0733C26.0939 25.0733 25.0707 23.9791 25.0707 22.4797C25.0707 20.9803 26.0939 19.8862 27.232 19.8862Z" fill="white"/>
</svg>
