<svg width="36" height="36" viewBox="0 0 36 36" fill="none" xmlns="http://www.w3.org/2000/svg">
<path d="M17.6975 0C7.93294 0 0 7.93294 0 17.6975C0 26.5616 6.53804 33.8974 15.0532 35.1766L15.9771 35.3164V21.3708H11.7962V18.5396H15.9771V14.7798C15.9771 12.4646 16.5326 10.9398 17.4524 9.98311C18.3721 9.02643 19.7311 8.54394 21.6222 8.54394C23.1344 8.54394 23.7227 8.63556 24.2822 8.70419V11.0216H22.3135C21.1965 11.0216 20.2801 11.6449 19.8044 12.475C19.3287 13.3051 19.1806 14.2962 19.1806 15.3062V18.538H24.1062L23.6679 21.3693H19.1806V35.3384L20.0935 35.2143C28.7297 34.043 35.395 26.6483 35.395 17.6975C35.395 7.93294 27.462 0 17.6975 0ZM17.6975 1.60886C26.5925 1.60886 33.7861 8.80243 33.7861 17.6975C33.7861 25.5244 28.1839 31.9615 20.7895 33.4106V22.9781H25.0473L25.9822 16.9292H20.7895V15.3062C20.7895 14.4716 20.9422 13.7238 21.1996 13.2747C21.4569 12.8255 21.705 12.6305 22.3135 12.6305H25.891V7.24773L25.1935 7.15346C24.711 7.08818 23.6094 6.93507 21.6222 6.93507C19.4478 6.93507 17.5813 7.52742 16.2929 8.86759C15.0044 10.2078 14.3682 12.2033 14.3682 14.7798V16.9308H10.1874V22.9797H14.3682V33.3603C7.09266 31.8191 1.60886 25.4397 1.60886 17.6975C1.60886 8.80243 8.80243 1.60886 17.6975 1.60886Z" fill="white"/>
</svg>
