<svg width="36" height="36" viewBox="0 0 36 36" fill="none" xmlns="http://www.w3.org/2000/svg">
<path d="M11.3164 2.12109C6.24654 2.12109 2.12103 6.2466 2.12103 11.3164V24.0484C2.12103 29.1182 6.24654 33.2437 11.3164 33.2437H24.0484C29.1182 33.2437 33.2437 29.1182 33.2437 24.0484V11.3164C33.2437 6.2466 29.1182 2.12109 24.0484 2.12109H11.3164ZM11.3164 3.53576H24.0484C28.3535 3.53576 31.829 7.01125 31.829 11.3164V24.0484C31.829 28.3536 28.3535 31.8291 24.0484 31.8291H11.3164C7.01119 31.8291 3.5357 28.3536 3.5357 24.0484V11.3164C3.5357 7.01125 7.01119 3.53576 11.3164 3.53576ZM26.1704 7.77976C25.7952 7.77976 25.4353 7.9288 25.17 8.1941C24.9047 8.45941 24.7557 8.81923 24.7557 9.19442C24.7557 9.56962 24.9047 9.92944 25.17 10.1947C25.4353 10.46 25.7952 10.6091 26.1704 10.6091C26.5455 10.6091 26.9054 10.46 27.1707 10.1947C27.436 9.92944 27.585 9.56962 27.585 9.19442C27.585 8.81923 27.436 8.45941 27.1707 8.1941C26.9054 7.9288 26.5455 7.77976 26.1704 7.77976ZM17.6824 9.90176C13.3936 9.90176 9.9017 13.3937 9.9017 17.6824C9.9017 21.9712 13.3936 25.4631 17.6824 25.4631C21.9711 25.4631 25.463 21.9712 25.463 17.6824C25.463 13.3937 21.9711 9.90176 17.6824 9.90176ZM17.6824 11.3164C21.2066 11.3164 24.0484 14.1582 24.0484 17.6824C24.0484 21.2066 21.2066 24.0484 17.6824 24.0484C14.1581 24.0484 11.3164 21.2066 11.3164 17.6824C11.3164 14.1582 14.1581 11.3164 17.6824 11.3164Z" fill="white"/>
</svg>
