<svg width="46" height="46" viewBox="0 0 46 46" fill="none" xmlns="http://www.w3.org/2000/svg">
<mask id="mask0_1994_4984" style="mask-type:alpha" maskUnits="userSpaceOnUse" x="0" y="0" width="46" height="46">
<rect width="45.0775" height="45.0775" fill="#D9D9D9"/>
</mask>
<g mask="url(#mask0_1994_4984)">
<path d="M8.66895 35.6858C7.80434 35.6858 7.08248 35.3963 6.50335 34.8172C5.92423 34.238 5.63467 33.5162 5.63467 32.6516V12.4249C5.63467 11.5603 5.92423 10.8384 6.50335 10.2593C7.08248 9.68019 7.80434 9.39062 8.66895 9.39062H36.4085C37.2731 9.39062 37.995 9.68019 38.5741 10.2593C39.1532 10.8384 39.4428 11.5603 39.4428 12.4249V32.6516C39.4428 33.5162 39.1532 34.238 38.5741 34.8172C37.995 35.3963 37.2731 35.6858 36.4085 35.6858H8.66895ZM37.5646 12.9301L23.3802 22.2166C23.2478 22.2864 23.1136 22.3448 22.9778 22.3917C22.8416 22.4387 22.6953 22.4622 22.5387 22.4622C22.3822 22.4622 22.2359 22.4387 22.0997 22.3917C21.9638 22.3448 21.8297 22.2864 21.6973 22.2166L7.5129 12.9301V32.6516C7.5129 32.9887 7.62121 33.2657 7.83784 33.4827C8.05477 33.6993 8.33181 33.8076 8.66895 33.8076H36.4085C36.7457 33.8076 37.0227 33.6993 37.2396 33.4827C37.4563 33.2657 37.5646 32.9887 37.5646 32.6516V12.9301ZM22.5387 20.66L36.9865 11.2689H8.09093L22.5387 20.66ZM7.5129 13.3279V11.8032V11.8685V11.7727V13.3279Z" fill="white"/>
</g>
</svg>
